<svg width="136" height="125" viewBox="0 0 136 125" fill="none" xmlns="http://www.w3.org/2000/svg">
<path d="M50 85.8608L39.1745 75C37.4581 77.081 35.305 78.7563 32.8689 79.9062C30.4327 81.0561 27.7736 81.6524 25.0812 81.6524C22.3889 81.6524 19.7298 81.0561 17.2936 79.9062C14.8575 78.7563 12.7044 77.081 10.988 75L0 86.0238C2.01934 87.7457 3.64141 89.8875 4.75382 92.3008C5.86623 94.7141 6.44235 97.3412 6.44235 100C6.44235 102.659 5.86623 105.286 4.75382 107.699C3.64141 110.112 2.01934 112.254 0 113.976L10.988 125C12.7044 122.919 14.8575 121.244 17.2936 120.094C19.7298 118.944 22.3889 118.348 25.0812 118.348C27.7736 118.348 30.4327 118.944 32.8689 120.094C35.305 121.244 37.4581 122.919 39.1745 125L50 114.13C47.9257 112.408 46.2559 110.247 45.1097 107.803C43.9635 105.359 43.3693 102.692 43.3693 99.9904C43.3693 97.2893 43.9635 94.6215 45.1097 92.1774C46.2559 89.7334 47.9257 87.5732 50 85.8512V85.8608Z" fill="#AB88EB"/>
<path d="M125.879 0H118.112C118.241 1.3602 118.068 2.73211 117.605 4.01776C117.143 5.3034 116.402 6.47109 115.436 7.43744C114.47 8.4038 113.303 9.14498 112.018 9.60809C110.732 10.0712 109.36 10.2448 108 10.1165V18C109.341 17.8899 110.691 18.073 111.954 18.5365C113.218 19.0001 114.365 19.733 115.317 20.6844C116.269 21.6358 117.002 22.783 117.466 24.0462C117.931 25.3095 118.114 26.6586 118.005 28H125.883C125.755 26.6397 125.929 25.2679 126.392 23.9825C126.855 22.6971 127.596 21.5297 128.563 20.5638C129.529 19.598 130.697 18.8573 131.982 18.3948C133.268 17.9323 134.64 17.7594 136 17.8883V10.1214C134.64 10.2495 133.268 10.0759 131.982 9.61281C130.696 9.14973 129.529 8.40862 128.563 7.44238C127.596 6.47613 126.855 5.30855 126.392 4.02293C125.929 2.7373 125.755 1.36532 125.883 0.00485802L125.879 0Z" fill="#99C6CC"/>
<path d="M122.941 96H119.054C119.119 96.6791 119.033 97.3641 118.802 98.0061C118.571 98.6482 118.201 99.2313 117.718 99.7139C117.235 100.197 116.652 100.567 116.009 100.798C115.366 101.029 114.68 101.116 114 101.052V105.01C114.67 104.956 115.345 105.047 115.976 105.278C116.607 105.51 117.181 105.875 117.657 106.35C118.133 106.825 118.5 107.397 118.732 108.027C118.964 108.657 119.056 109.331 119.002 110H122.941C122.876 109.321 122.963 108.636 123.195 107.994C123.426 107.352 123.797 106.77 124.281 106.287C124.764 105.805 125.348 105.436 125.991 105.205C126.634 104.975 127.32 104.889 128 104.953V101.073C127.32 101.137 126.633 101.05 125.991 100.819C125.348 100.587 124.764 100.217 124.281 99.7347C123.797 99.2522 123.427 98.6692 123.195 98.0272C122.963 97.3852 122.877 96.7001 122.941 96.0207V96Z" fill="#AB88EB"/>
</svg>
