<svg width="247" height="250" viewBox="0 0 247 250" fill="none" xmlns="http://www.w3.org/2000/svg">
<path d="M0.0271263 44.6023L12.3411 57C14.2978 54.6276 16.7523 52.7178 19.5295 51.4069C22.3067 50.096 25.3381 49.4163 28.4074 49.4163C31.4766 49.4163 34.5081 50.096 37.2853 51.4069C40.0625 52.7178 42.517 54.6276 44.4737 57L57 44.4329C54.698 42.4699 52.8488 40.0282 51.5806 37.2771C50.3125 34.5259 49.6557 31.5311 49.6557 28.5C49.6557 25.4689 50.3125 22.4741 51.5806 19.7229C52.8488 16.9718 54.698 14.5301 57 12.5671L44.4737 0C42.517 2.37236 40.0625 4.28214 37.2853 5.59305C34.5081 6.90396 31.4766 7.58367 28.4074 7.58367C25.3381 7.58367 22.3067 6.90396 19.5295 5.59305C16.7523 4.28214 14.2978 2.37236 12.3411 0L3.8147e-06 12.3813C2.36466 14.3444 4.26814 16.8069 5.57479 19.5932C6.88144 22.3795 7.55901 25.4208 7.55901 28.5C7.55901 31.5793 6.88144 34.6205 5.57479 37.4068C4.26814 40.1931 2.36466 42.6556 3.8147e-06 44.6187L0.0271263 44.6023Z" fill="#99C6CC"/>
<path d="M123.589 44.2627H132.285C132.141 42.7393 132.335 41.2028 132.852 39.7628C133.37 38.3229 134.2 37.0151 135.281 35.9328C136.363 34.8505 137.67 34.0204 139.109 33.5017C140.548 32.983 142.084 32.7886 143.607 32.9323V24.1028C142.106 24.2261 140.596 24.0212 139.182 23.5023C137.768 22.9834 136.484 22.1629 135.418 21.0978C134.353 20.0328 133.532 18.7486 133.013 17.3344C132.493 15.9202 132.288 14.4098 132.41 12.9082H123.583C123.727 14.4319 123.532 15.9685 123.014 17.4084C122.495 18.8483 121.666 20.156 120.584 21.2382C119.502 22.3204 118.195 23.1504 116.755 23.6691C115.316 24.1877 113.779 24.3822 112.256 24.2387V32.9377C113.779 32.7941 115.316 32.9886 116.755 33.5073C118.195 34.0259 119.502 34.8559 120.584 35.9381C121.666 37.0203 122.495 38.328 123.014 39.7679C123.532 41.2078 123.727 42.7445 123.583 44.2682L123.589 44.2627Z" fill="#AB88EB"/>
<path d="M24.2023 145H32.803C32.662 143.495 32.8548 141.978 33.3677 140.557C33.8805 139.135 34.7008 137.844 35.7701 136.776C36.8393 135.707 38.1312 134.888 39.5537 134.375C40.9763 133.863 42.4944 133.67 44 133.811V125.066C42.5156 125.185 41.023 124.98 39.6254 124.466C38.2278 123.952 36.9585 123.141 35.9055 122.089C34.8525 121.037 34.0407 119.768 33.5263 118.372C33.012 116.975 32.8074 115.483 32.9266 114H24.1969C24.3379 115.505 24.1451 117.022 23.6322 118.443C23.1193 119.865 22.299 121.156 21.2298 122.224C20.1605 123.293 18.8687 124.112 17.4461 124.625C16.0236 125.137 14.5056 125.33 13 125.189V133.784C14.5056 133.643 16.0236 133.836 17.4461 134.348C18.8687 134.861 20.1605 135.68 21.2298 136.749C22.299 137.817 23.1193 139.108 23.6322 140.53C24.1451 141.952 24.3379 143.469 24.1969 144.973L24.2023 145Z" fill="#AB88EB"/>
<path d="M25.4151 250H29.5793C29.5106 249.271 29.6037 248.536 29.8519 247.847C30.1 247.158 30.4971 246.533 31.0148 246.015C31.5326 245.497 32.1581 245.1 32.847 244.852C33.5359 244.604 34.271 244.511 35 244.579V240.36C34.2813 240.418 33.5583 240.32 32.8813 240.072C32.2044 239.823 31.5896 239.43 31.0797 238.92C30.5698 238.41 30.1769 237.796 29.9284 237.119C29.6799 236.442 29.5817 235.719 29.6405 235H25.4151C25.4787 235.727 25.3822 236.46 25.1327 237.146C24.8831 237.832 24.4864 238.455 23.9704 238.972C23.4543 239.488 22.8316 239.886 22.1457 240.136C21.4598 240.386 20.7274 240.483 20 240.421V244.579C20.7274 244.517 21.4598 244.614 22.1457 244.864C22.8316 245.114 23.4543 245.512 23.9704 246.028C24.4864 246.545 24.8831 247.168 25.1327 247.854C25.3822 248.54 25.4787 249.273 25.4151 250Z" fill="#99C6CC"/>
<path d="M237.635 35.9171H241.706C241.644 35.2058 241.738 34.4895 241.982 33.8185C242.226 33.1475 242.614 32.5381 243.118 32.0329C243.623 31.5278 244.232 31.1392 244.902 30.8944C245.573 30.6497 246.289 30.5547 247 30.6161V26.5058C246.298 26.5625 245.592 26.4659 244.93 26.2225C244.269 25.979 243.669 25.5948 243.171 25.0962C242.673 24.5976 242.289 23.9967 242.047 23.3351C241.804 22.6735 241.708 21.967 241.766 21.2646H237.635C237.697 21.9764 237.603 22.6932 237.358 23.3646C237.114 24.0361 236.726 24.6458 236.221 25.151C235.716 25.6563 235.106 26.0447 234.435 26.2891C233.763 26.5335 233.047 26.6279 232.335 26.5656V30.6324C233.047 30.5702 233.763 30.6645 234.435 30.9089C235.106 31.1533 235.716 31.5418 236.221 32.047C236.726 32.5522 237.114 33.1619 237.358 33.8334C237.603 34.5048 237.697 35.2216 237.635 35.9334V35.9171Z" fill="#161615"/>
</svg>
