<svg width="247" height="250" viewBox="0 0 247 250" fill="none" xmlns="http://www.w3.org/2000/svg">
<path d="M0.0271263 205.398L12.3411 193C14.2978 195.372 16.7523 197.282 19.5295 198.593C22.3067 199.904 25.3381 200.584 28.4074 200.584C31.4766 200.584 34.5081 199.904 37.2853 198.593C40.0625 197.282 42.517 195.372 44.4737 193L57 205.567C54.698 207.53 52.8488 209.972 51.5806 212.723C50.3125 215.474 49.6557 218.469 49.6557 221.5C49.6557 224.531 50.3125 227.526 51.5806 230.277C52.8488 233.028 54.698 235.47 57 237.433L44.4737 250C42.517 247.628 40.0625 245.718 37.2853 244.407C34.5081 243.096 31.4766 242.416 28.4074 242.416C25.3381 242.416 22.3067 243.096 19.5295 244.407C16.7523 245.718 14.2978 247.628 12.3411 250L3.8147e-06 237.619C2.36466 235.656 4.26814 233.193 5.57479 230.407C6.88144 227.621 7.55901 224.579 7.55901 221.5C7.55901 218.421 6.88144 215.379 5.57479 212.593C4.26814 209.807 2.36466 207.344 3.8147e-06 205.381L0.0271263 205.398Z" fill="#99C6CC"/>
<path d="M123.589 205.737H132.285C132.141 207.261 132.335 208.797 132.852 210.237C133.37 211.677 134.2 212.985 135.281 214.067C136.363 215.15 137.67 215.98 139.109 216.498C140.548 217.017 142.084 217.211 143.607 217.068V225.897C142.106 225.774 140.596 225.979 139.182 226.498C137.768 227.017 136.484 227.837 135.418 228.902C134.353 229.967 133.532 231.251 133.013 232.666C132.493 234.08 132.288 235.59 132.41 237.092H123.583C123.727 235.568 123.532 234.031 123.014 232.592C122.495 231.152 121.666 229.844 120.584 228.762C119.502 227.68 118.195 226.85 116.755 226.331C115.316 225.812 113.779 225.618 112.256 225.761V217.062C113.779 217.206 115.316 217.011 116.755 216.493C118.195 215.974 119.502 215.144 120.584 214.062C121.666 212.98 122.495 211.672 123.014 210.232C123.532 208.792 123.727 207.256 123.583 205.732L123.589 205.737Z" fill="#AB88EB"/>
<path d="M24.2023 105H32.803C32.662 106.505 32.8548 108.022 33.3677 109.443C33.8805 110.865 34.7008 112.156 35.7701 113.224C36.8393 114.293 38.1312 115.112 39.5537 115.625C40.9763 116.137 42.4944 116.33 44 116.189V124.934C42.5156 124.815 41.023 125.02 39.6254 125.534C38.2278 126.048 36.9585 126.859 35.9055 127.911C34.8525 128.963 34.0407 130.232 33.5263 131.628C33.012 133.025 32.8074 134.517 32.9266 136H24.1969C24.3379 134.495 24.1451 132.978 23.6322 131.557C23.1193 130.135 22.299 128.844 21.2298 127.776C20.1605 126.707 18.8687 125.888 17.4461 125.375C16.0236 124.863 14.5056 124.67 13 124.811V116.216C14.5056 116.357 16.0236 116.164 17.4461 115.652C18.8687 115.139 20.1605 114.32 21.2298 113.251C22.299 112.183 23.1193 110.892 23.6322 109.47C24.1451 108.048 24.3379 106.531 24.1969 105.027L24.2023 105Z" fill="#AB88EB"/>
<path d="M238.059 113H241.946C241.882 113.68 241.968 114.366 242.2 115.008C242.431 115.651 242.801 116.234 243.284 116.717C243.767 117.2 244.35 117.571 244.993 117.802C245.635 118.033 246.32 118.12 247 118.056V122.001C246.33 121.947 245.656 122.039 245.025 122.271C244.395 122.503 243.822 122.87 243.347 123.345C242.871 123.821 242.505 124.394 242.273 125.025C242.041 125.656 241.949 126.33 242.003 127H238.059C238.123 126.319 238.037 125.633 237.805 124.99C237.573 124.347 237.203 123.763 236.719 123.279C236.236 122.796 235.652 122.425 235.009 122.193C234.366 121.962 233.68 121.875 233 121.939V118.066C233.68 118.131 234.366 118.045 235.009 117.814C235.652 117.583 236.236 117.213 236.719 116.73C237.203 116.247 237.573 115.663 237.805 115.02C238.037 114.377 238.124 113.691 238.059 113.01V113Z" fill="#AB88EB"/>
<path d="M126.443 112H130.585C130.516 112.729 130.609 113.463 130.857 114.152C131.105 114.84 131.501 115.465 132.019 115.983C132.536 116.5 133.161 116.897 133.849 117.145C134.537 117.393 135.272 117.486 136 117.417V121.644C135.282 121.585 134.559 121.683 133.883 121.932C133.206 122.18 132.592 122.573 132.082 123.082C131.572 123.591 131.179 124.206 130.93 124.882C130.681 125.559 130.583 126.281 130.641 127H126.421C126.489 126.271 126.396 125.535 126.148 124.846C125.9 124.157 125.503 123.531 124.985 123.013C124.467 122.495 123.842 122.098 123.153 121.85C122.464 121.602 121.729 121.509 121 121.577V117.428C121.729 117.498 122.464 117.406 123.153 117.158C123.842 116.911 124.467 116.514 124.985 115.996C125.503 115.479 125.9 114.853 126.148 114.164C126.397 113.475 126.49 112.74 126.421 112.011L126.443 112Z" fill="#99C6CC"/>
<path d="M25.4151 -9.53674e-07H29.5793C29.5106 0.728968 29.6037 1.46408 29.8519 2.15295C30.1 2.84182 30.4971 3.46742 31.0148 3.98516C31.5326 4.5029 32.1581 4.9 32.847 5.14813C33.5359 5.39626 34.271 5.48936 35 5.42069V9.64046C34.2813 9.58159 33.5583 9.67983 32.8813 9.92835C32.2044 10.1769 31.5896 10.5697 31.0797 11.0797C30.5698 11.5896 30.1769 12.2044 29.9284 12.8813C29.6799 13.5583 29.5817 14.2813 29.6405 15H25.4151C25.4787 14.2726 25.3822 13.5402 25.1327 12.854C24.8831 12.1679 24.4864 11.5447 23.9704 11.0281C23.4543 10.5116 22.8316 10.1142 22.1457 9.86395C21.4598 9.61366 20.7274 9.51651 20 9.57931V5.42069C20.7274 5.48349 21.4598 5.38634 22.1457 5.13605C22.8316 4.88576 23.4543 4.4884 23.9704 3.97186C24.4864 3.45531 24.8831 2.83211 25.1327 2.14596C25.3822 1.45981 25.4787 0.727358 25.4151 -9.53674e-07Z" fill="#99C6CC"/>
<path d="M237.635 214.083H241.706C241.644 214.794 241.738 215.511 241.982 216.182C242.226 216.853 242.614 217.462 243.118 217.967C243.623 218.472 244.232 218.861 244.902 219.106C245.573 219.35 246.289 219.445 247 219.384V223.494C246.298 223.437 245.592 223.534 244.93 223.778C244.269 224.021 243.669 224.405 243.171 224.904C242.673 225.402 242.289 226.003 242.047 226.665C241.804 227.326 241.708 228.033 241.766 228.735H237.635C237.697 228.024 237.603 227.307 237.358 226.635C237.114 225.964 236.726 225.354 236.221 224.849C235.716 224.344 235.106 223.955 234.435 223.711C233.763 223.466 233.047 223.372 232.335 223.434V219.368C233.047 219.43 233.763 219.335 234.435 219.091C235.106 218.847 235.716 218.458 236.221 217.953C236.726 217.448 237.114 216.838 237.358 216.167C237.603 215.495 237.697 214.778 237.635 214.067V214.083Z" fill="#161615"/>
</svg>
