<svg width="212" height="97" viewBox="0 0 212 97" fill="none" xmlns="http://www.w3.org/2000/svg">
<path d="M93.7289 97C78.6434 96.9594 63.5868 95.9891 48.7058 94.0985C48.3187 94.0487 47.9734 93.8835 47.7459 93.6393C47.5183 93.395 47.4271 93.0918 47.4924 92.7962C47.5577 92.5007 47.7741 92.2371 48.094 92.0633C48.4138 91.8896 48.811 91.82 49.1981 91.8698C85.1338 96.3498 118.702 95.5793 146.303 89.6411C170.183 84.5034 189.214 75.5396 199.887 64.3998C210.028 53.8162 211.839 42.3043 205.007 32.0327C199.291 23.426 187.713 16.1761 171.532 11.0647C153.067 5.23166 129.374 2.27006 101.108 2.26254H101C36.724 2.26254 15.0543 18.5702 7.85728 28.2931C0.660289 38.016 1.39377 49.667 9.82636 60.3257C23.0487 77.0656 51.6693 87.4462 82.7759 86.7584C83.1675 86.7499 83.5476 86.8606 83.8324 87.0661C84.1172 87.2715 84.2834 87.5549 84.2945 87.854C84.3056 88.153 84.1607 88.4432 83.8916 88.6606C83.6224 88.8781 83.2512 89.005 82.8595 89.0134C66.211 89.3893 50.1974 86.781 36.5468 81.4967C23.8856 76.6108 13.7744 69.6803 7.29608 61.4833C-1.68785 50.1067 -2.41148 37.6026 5.327 27.1768C12.839 17.0292 35.2718 0 101.039 0H101.152C129.802 0 153.879 3.02925 172.704 8.97125C189.549 14.2931 201.644 21.9113 207.684 31.0029C214.941 41.9285 212.981 54.5829 202.299 65.7265C191.238 77.2685 171.645 86.5292 147.135 91.8022C131.043 95.2636 113.05 96.9962 93.7289 97Z" fill="#018FFF"/>
</svg>
