<svg width="220" height="64" viewBox="0 0 220 64" fill="none" xmlns="http://www.w3.org/2000/svg">
<path d="M158.735 2.28296V61.4811H218.085V2.28296H158.735Z" fill="url(#paint0_radial_675_868)"/>
<path d="M144.354 19.8325C142.874 19.8325 142.033 20.539 142.033 21.8542C142.033 22.1427 142.098 22.3365 142.163 22.4977H141.617V23.7807H145.931V22.4977H144.32C143.645 22.4639 143.484 22.3345 143.484 21.82C143.484 21.2429 143.676 21.1156 144.385 21.1156C144.835 21.1156 145.16 21.2127 145.644 21.5687V20.1523L145.415 20.0572C145.063 19.8935 144.74 19.8325 144.354 19.8325ZM85.6637 23.3353V40.1028H88.561V23.3353H85.6637ZM111.949 23.3353C109.823 25.7109 106.632 29.1827 106.246 29.5336V32.0389H110.369C111.625 32.0389 113.14 32.5205 113.14 34.7687C113.14 36.8584 112.209 37.6318 109.663 37.6318H104.956V34.1634C104.956 30.6597 103.154 28.8255 99.8028 28.8255C95.6803 28.8255 93.8136 31.6858 93.8136 34.5136C93.8136 36.5695 94.4898 38.1453 95.7146 38.9796C97.1322 39.9127 98.3232 40.1028 101.028 40.1028H102.024C101.993 42.0314 100.898 42.9926 98.8371 42.9926C97.9016 42.9926 96.779 42.8667 95.5542 42.4481L95.3596 42.3873V45.1781C96.8397 45.4328 97.9693 45.5626 99.0012 45.5626C102.962 45.5626 104.99 43.7313 105.055 40.1029H122.096C126.799 40.1029 129.28 38.8829 129.28 34.5137C129.28 31.6859 127.44 28.8256 123.317 28.8256C119.969 28.8256 118.164 30.6598 118.164 34.1635V37.6319H115.526C115.912 36.8886 116.137 35.9899 116.137 34.8983C116.137 32.4239 114.559 29.5642 110.178 29.5642H109.789L115.457 23.3354L111.949 23.3353ZM131.177 23.3353V40.1028H134.078V23.3353H131.177ZM80.3806 23.362V35.7625C80.3806 37.1478 79.8636 37.6281 78.4147 37.6281H77.7047C77.2226 37.6281 76.7403 37.5349 76.1931 37.3425C76.2582 36.9553 76.2885 36.5372 76.2885 36.0252V29.9182H73.3568V35.831C73.3568 37.115 72.777 37.6624 71.4558 37.6624C70.9737 37.6624 70.4907 37.5951 69.9747 37.4339C70.0398 37.0181 70.0701 36.6017 70.0701 35.9909V29.9182H67.1385V35.831C67.1385 36.9851 66.8515 37.467 66.0124 37.6281H64.5007C64.274 37.6281 63.7602 37.6614 63.7602 37.373V29.9182H60.8286V37.6281H55.8662C57.4767 35.9257 58.4429 34.1298 58.4429 32.7471C58.4429 30.1141 55.2543 28.7608 52.0986 28.7608C48.9428 28.7608 45.7543 30.1141 45.7543 32.7471C45.7543 34.6107 47.429 36.63 48.3958 37.6281H43.8838V34.1596C43.8838 30.6586 42.0817 28.8255 38.7305 28.8255C34.608 28.8255 32.7718 31.6858 32.7718 34.5137C32.7718 36.5696 33.4163 38.1428 34.6384 38.9797C36.056 39.9102 37.2509 40.1029 39.9559 40.1029H40.9522C40.9209 42.034 39.8573 42.9926 37.7648 42.9926C36.8292 42.9926 35.7003 42.8667 34.4781 42.4482L34.2872 42.3835V45.1781C35.7673 45.4354 36.8957 45.5664 37.925 45.5664C41.8886 45.5664 43.914 43.7339 43.9792 40.1029H63.9511C64.5296 40.1678 65.1132 40.198 65.6917 40.198C66.8201 40.198 67.6566 40.0042 68.4593 39.5546C69.5225 39.973 70.7807 40.198 72.0055 40.198C73.1338 40.198 74.0642 39.9745 74.773 39.4936C75.7398 39.9095 76.9324 40.1028 78.2849 40.1028H78.5788C79.8349 40.1028 81.1185 39.8143 81.8273 39.3985C82.7628 38.85 83.1822 37.9173 83.2473 37.4339C83.3437 37.0518 83.3771 36.6646 83.3771 35.8614V23.3619L80.3806 23.362ZM6.26094 24.1691C5.39317 24.1691 4.71495 24.8456 4.71495 25.7111C4.71495 26.6104 5.35928 27.2835 6.26094 27.2835C7.13131 27.2835 7.80692 26.5792 7.80692 25.7111C7.80692 24.8742 7.10004 24.1691 6.26094 24.1691ZM9.86825 24.1691C8.99788 24.1691 8.29172 24.8456 8.29172 25.7111C8.29172 26.6104 8.96661 27.2835 9.86825 27.2835C10.736 27.2835 11.4142 26.5792 11.4142 25.7111C11.4142 24.8742 10.7047 24.1691 9.86825 24.1691ZM142.327 25.1324V40.1029H145.224V25.1324H142.327ZM7.90236 28.8255C3.77981 28.8255 1.91309 31.6858 1.91309 34.5137C1.91309 36.5696 2.5893 38.1428 3.81407 38.9797C5.2317 39.9102 6.42277 40.1029 9.12771 40.1029H14.8956C17.9549 40.1029 19.6939 38.9467 19.6939 35.8615V28.8255H16.6973V35.7625C16.6973 37.1452 16.1841 37.6319 14.7353 37.6319H13.0595V34.1596C13.0595 30.6559 11.2536 28.8255 7.90236 28.8255ZM23.1409 28.8255V31.3003H25.7175C27.3905 31.3003 28.4583 32.5211 28.4583 34.4185V37.6281H20.7551V40.1029H31.451V34.5137C31.451 31.6858 29.6149 28.8255 25.4923 28.8255H23.1409ZM137.361 29.922V39.9734C137.361 41.8682 136.301 43.0269 134.628 43.0269C133.564 43.0269 132.787 42.769 132.498 42.6728L132.146 42.5434V45.338C133.079 45.5017 133.755 45.5626 134.399 45.5626C138.425 45.5626 140.392 43.7325 140.392 39.943V29.922H137.361ZM52.194 31.266C53.9009 31.266 55.6753 31.7828 55.6753 32.7471C55.6753 34.4495 52.6797 37.4339 52.0986 37.4339C51.679 37.4339 48.5523 34.4807 48.5523 32.7471C48.5523 31.7828 50.422 31.266 52.194 31.266ZM7.68096 31.3003C9.35655 31.3003 10.1278 32.3274 10.1278 34.4795V37.6319H8.41768C5.96813 37.6319 4.94018 36.6668 4.94018 34.4185C4.94018 32.5212 6.00536 31.3003 7.68096 31.3003ZM38.5053 31.3003C40.1783 31.3003 40.9522 32.3274 40.9522 34.4795V37.6281H39.2459C36.7963 37.6281 35.7683 36.6668 35.7683 34.4185C35.7683 32.5212 36.8297 31.3003 38.5053 31.3003ZM99.5776 31.3003C101.253 31.3003 101.994 32.3312 101.994 34.4833V37.6319H100.318C97.8712 37.6319 96.8406 36.663 96.8406 34.4147C96.8406 32.52 97.902 31.3003 99.5776 31.3003ZM123.546 31.3003C125.219 31.3003 126.283 32.52 126.283 34.4147C126.283 36.663 125.252 37.6319 122.836 37.6319H121.096V34.4833C121.096 32.3312 121.871 31.3003 123.546 31.3003ZM14.3803 42.5434C13.4786 42.5434 12.7999 43.2211 12.7999 44.0892C12.7999 44.9547 13.4786 45.6312 14.3803 45.6312C15.2167 45.6312 15.9224 44.9235 15.9224 44.0892C15.9224 43.2523 15.2167 42.5434 14.3803 42.5434ZM17.9532 42.5434C17.0828 42.5434 16.4072 43.2211 16.4072 44.0892C16.4072 44.9547 17.0828 45.6312 17.9532 45.6312C18.821 45.6312 19.5297 44.9235 19.5297 44.0892C19.5297 43.2523 18.821 42.5434 17.9532 42.5434Z" fill="white"/>
<path d="M62.6879 46.0916V50.8469C62.0755 50.4597 61.3666 50.2339 60.6265 50.2339H60.3364C56.9852 50.2339 54.664 52.4556 54.664 55.8916C54.664 57.9476 55.3428 59.5169 56.565 60.3539C57.9826 61.2844 59.1749 61.4808 61.8824 61.4808H65.4554V46.0916H62.6879ZM68.7115 46.3162C67.8411 46.3162 67.1655 46.9901 67.1655 47.8582C67.1655 48.7237 67.8411 49.4001 68.7115 49.4001C69.5793 49.4001 70.2537 48.7237 70.2537 47.8582C70.2537 47.0212 69.548 46.3162 68.7115 46.3162ZM25.3207 49.975C22.2223 49.975 20.5301 51.3754 20.5301 53.4626C20.5301 54.51 20.8241 55.9414 24.0763 56.8511C25.9865 57.4073 26.6835 57.4775 26.6835 58.0961C26.6835 58.7953 25.488 59.2954 24.1069 59.2954C22.6866 59.2954 21.2405 58.6786 20.3545 58.2446V60.963C21.4021 61.3893 22.7244 61.7169 24.0534 61.7169C27.4359 61.7169 29.4434 60.2863 29.4434 58.0771C29.4434 56.4084 28.4237 55.4919 25.7292 54.6809C23.978 54.1611 23.2835 53.8651 23.2861 53.3141C23.2881 52.7111 24.1742 52.3889 25.2635 52.3889C26.3449 52.3889 27.3828 52.6368 28.1646 52.8915L28.8288 50.3977C27.677 50.1299 26.2693 49.975 25.3207 49.975ZM114.225 50.1388C112.776 50.1388 111.296 50.3316 109.686 50.8774L109.392 50.9725V61.4808H112.259V52.8686C112.84 52.6762 113.292 52.6135 113.873 52.6135C115.288 52.6135 115.706 53.0637 115.706 54.54V61.4808H118.603V54.3458C118.603 53.7039 118.574 53.2901 118.477 52.9029C119.058 52.7105 119.51 52.6135 120.023 52.6135C121.378 52.6135 121.985 53.2249 121.985 54.54V61.4808H124.856V54.3154C124.856 52.9015 124.629 52.0679 123.985 51.3609C123.277 50.5889 122.086 50.1387 120.603 50.1387C119.347 50.1387 118.056 50.3968 117.026 50.8126C116.19 50.3292 115.387 50.1388 114.225 50.1388ZM131.967 50.1692C128.52 50.1692 126.207 52.5508 126.207 56.0934C126.207 59.5009 128.4 61.7016 131.803 61.7016C131.803 61.7016 134.083 61.802 135.613 60.3881L134.181 58.5606C133.407 59.0544 132.872 59.2154 132.093 59.2154C130.183 59.2154 129.089 58.0341 129.089 55.9678C129.089 53.8521 130.194 52.6402 132.12 52.6402C132.521 52.6402 132.858 52.6811 133.181 52.7772C133.181 52.7772 133.773 52.9466 134.292 53.3521L135.506 51.2771C134.847 50.7261 134.069 50.4906 133.803 50.4205C133.061 50.1969 131.967 50.1692 131.967 50.1692ZM36.4022 50.2035C32.2771 50.2035 30.4091 53.0638 30.4091 55.8917C30.4091 57.9476 31.0854 59.5196 32.3101 60.3539C33.7251 61.287 34.9188 61.4809 37.6238 61.4809H41.5555V55.5376C41.5555 52.0677 39.7508 50.2035 36.4022 50.2035ZM82.0146 50.2035C77.8921 50.2035 76.0215 53.0638 76.0215 55.8917C76.0215 57.9476 76.6978 59.5196 77.9225 60.3539C79.3402 61.287 80.535 61.4809 83.24 61.4809H87.1336V55.5376C87.1336 52.0677 85.3659 50.2035 82.0146 50.2035ZM102.567 50.2035C98.4416 50.2035 96.5737 53.0638 96.5737 55.8917C96.5737 57.9476 97.2499 59.5196 98.4747 60.3539C99.8897 61.287 101.083 61.4809 103.788 61.4809H107.72V55.5376C107.72 52.0677 105.915 50.2035 102.567 50.2035ZM94.7223 50.2378C90.631 50.2378 88.7292 52.0353 88.7292 55.8613V61.4809H91.6609V56.0821V55.827C91.6609 53.8984 92.7558 52.7088 94.4627 52.7088C95.1715 52.7088 95.7197 52.8412 96.1079 52.9372L96.7836 50.3977C95.6474 50.234 94.7223 50.2378 94.7223 50.2378ZM141.598 50.2682C138.442 50.2682 135.865 52.8393 135.865 55.9869C135.865 59.137 138.442 61.7055 141.598 61.7055C144.754 61.7055 147.301 59.137 147.301 55.9869C147.301 52.8393 144.754 50.2682 141.598 50.2682ZM43.1664 50.3634V57.4945C43.1664 60.8058 45.0333 61.7054 47.8998 61.7054H48.3846C51.4466 61.7054 53.2134 60.8344 53.2134 57.4945V50.3634H50.2512V57.3042C50.2512 58.6843 49.7032 59.2002 48.2205 59.2002H48.0639C46.5811 59.2002 46.0331 58.6843 46.0331 57.3042V50.3634H43.1664ZM67.2915 50.687V61.4808H70.1277V50.687H67.2915ZM36.177 52.6478C37.8526 52.6478 38.6888 53.7053 38.6888 55.8574V59.0708H36.9176C34.468 59.0708 33.3713 58.0785 33.3713 55.7964C33.3713 53.899 34.4675 52.6478 36.177 52.6478ZM60.4319 52.6478C62.0423 52.6478 62.6879 53.5784 62.6879 55.8916V59.0708H61.1419C58.6923 59.0708 57.63 58.0747 57.63 55.7926C57.63 53.8952 58.7224 52.6478 60.4319 52.6478ZM81.6902 52.6478C83.3996 52.6478 84.1714 53.6741 84.1714 55.8574V59.0708H82.4345C79.985 59.0708 78.8883 58.0785 78.8883 55.7964C78.8883 53.899 79.9833 52.6478 81.6902 52.6478ZM102.342 52.6478C104.017 52.6478 104.853 53.7053 104.853 55.8574V59.0708H103.078C100.631 59.0708 99.5359 58.0785 99.5359 55.7964C99.5359 53.899 100.635 52.6478 102.342 52.6478ZM141.598 52.9029C143.305 52.9029 144.694 54.2844 144.694 55.9868C144.694 57.6892 143.305 59.105 141.598 59.105C139.86 59.105 138.476 57.6892 138.476 55.9868C138.476 54.2844 139.86 52.9029 141.598 52.9029Z" fill="white"/>
<path d="M181.397 4.66016L180.969 4.69817L181.297 5.03322L181.725 4.99521L181.397 4.66016ZM166.402 5.97369C166.252 5.98929 166.127 6.03549 166.059 6.10703C165.923 6.26044 166.085 6.45234 166.421 6.5563C166.76 6.6524 167.121 6.61809 167.254 6.47248C167.379 6.31906 167.226 6.12719 166.895 6.02321C166.729 5.97389 166.553 5.95771 166.402 5.97369ZM182.839 6.03841L182.362 6.06882L182.721 6.44575L183.191 6.41534L182.839 6.03841ZM194.723 6.16415L195.051 6.51823L195.421 6.56384L195.097 6.21358L194.723 6.16415ZM181.95 6.81901C181.85 6.82486 181.776 6.86307 181.748 6.93325C181.701 7.07613 181.871 7.24409 182.145 7.35587C182.413 7.4625 182.652 7.46074 182.71 7.31785C182.751 7.1697 182.577 7.0006 182.309 6.89143C182.176 6.83938 182.05 6.81375 181.95 6.81901ZM169.055 6.84942C168.881 6.86697 168.735 6.9196 168.658 7.00927C168.512 7.20167 168.711 7.44523 169.113 7.58037C169.514 7.70767 169.932 7.66595 170.078 7.48135C170.214 7.29421 170.023 7.05181 169.632 6.91404C169.432 6.8503 169.229 6.83188 169.055 6.84942ZM194.543 6.94845L194.917 7.35203L195.341 7.39764L194.971 6.99026L194.543 6.94845ZM183.866 7.55382C183.772 7.55967 183.701 7.59788 183.679 7.66806C183.645 7.81094 183.823 7.97389 184.084 8.08306C184.347 8.18442 184.57 8.17643 184.615 8.03354C184.651 7.89065 184.472 7.72892 184.214 7.62234C184.083 7.57303 183.961 7.54739 183.866 7.55382ZM171.708 7.67176C171.503 7.6893 171.336 7.75422 171.25 7.86592C171.086 8.10243 171.331 8.41376 171.808 8.59311C172.29 8.76718 172.781 8.72274 172.945 8.49408C173.096 8.25756 172.861 7.95003 172.392 7.77069C172.156 7.68628 171.913 7.65461 171.708 7.67176ZM194.509 7.69125C194.421 7.67956 194.359 7.70685 194.345 7.77878C194.327 7.92693 194.519 8.10775 194.78 8.2585C195.04 8.40139 195.246 8.44466 195.272 8.29651C195.286 8.14836 195.103 7.96875 194.845 7.82059C194.714 7.74905 194.597 7.70198 194.509 7.69125ZM192.948 8.08721L193.272 8.46034L193.669 8.49074L193.341 8.11762L192.948 8.08721ZM183.259 8.42987C183.133 8.44351 183.042 8.49127 183.015 8.57841C182.968 8.75775 183.196 8.99653 183.546 9.13429C183.895 9.26938 184.199 9.23487 184.248 9.05807C184.29 8.88399 184.06 8.64377 183.721 8.50601C183.548 8.43973 183.386 8.417 183.259 8.42987ZM194.337 8.525C194.24 8.51525 194.177 8.54254 194.162 8.62402C194.138 8.79303 194.341 8.99851 194.627 9.15706C194.914 9.313 195.148 9.35121 195.177 9.18747C195.195 9.02372 194.986 8.82701 194.707 8.66586C194.565 8.58652 194.434 8.53513 194.337 8.525ZM174.186 8.53279C173.958 8.54839 173.776 8.62363 173.682 8.75364C173.51 9.03434 173.794 9.40458 174.338 9.62551C174.886 9.84124 175.435 9.80192 175.61 9.53408C175.769 9.26117 175.491 8.88693 174.957 8.66601C174.688 8.55938 174.414 8.51661 174.186 8.53279ZM192.65 8.86405L193.016 9.29047C193.251 9.41523 193.443 9.44856 193.474 9.31328L193.108 8.88686L192.65 8.86405ZM170.96 9.14579C170.789 9.16665 170.648 9.23098 170.575 9.32844C170.439 9.53377 170.65 9.78964 171.052 9.93C171.456 10.0651 171.865 10.0121 172.006 9.81206C172.131 9.60933 171.93 9.35466 171.537 9.21431C171.337 9.14803 171.132 9.12512 170.96 9.14579ZM185.424 9.37041C185.321 9.37041 185.244 9.40667 185.214 9.48835C185.167 9.64956 185.35 9.85939 185.626 10.0023C185.905 10.1402 186.149 10.1483 186.206 9.98674C186.248 9.823 186.068 9.61952 185.794 9.47656C185.656 9.40774 185.526 9.37041 185.424 9.37041ZM194.142 9.40843C194.029 9.39868 193.952 9.43533 193.932 9.53026C193.904 9.7252 194.142 9.96631 194.471 10.1509C194.802 10.3277 195.07 10.3674 195.104 10.1704C195.125 9.97542 194.893 9.74432 194.57 9.56498C194.406 9.47667 194.255 9.41798 194.142 9.40843ZM195.685 9.48465L196.024 9.86157L196.395 9.88107L196.059 9.50796L195.685 9.48465ZM182.756 9.52656C182.639 9.5402 182.556 9.58933 182.53 9.6712C182.483 9.84528 182.696 10.0719 183.019 10.1966C183.342 10.3161 183.621 10.2779 183.668 10.1091C183.707 9.93754 183.496 9.71605 183.183 9.59129C183.023 9.53145 182.872 9.51194 182.756 9.52656ZM192.551 9.53435C192.464 9.52851 192.405 9.55814 192.386 9.62948C192.355 9.78017 192.532 9.95744 192.78 10.0978C193.035 10.2278 193.238 10.2522 193.272 10.1095C193.298 9.96134 193.125 9.78274 192.875 9.64498C192.751 9.58007 192.638 9.53981 192.551 9.53435ZM176.843 9.6942C176.666 9.7059 176.526 9.76535 176.457 9.87315C176.332 10.0967 176.564 10.4094 176.991 10.5966C177.424 10.7784 177.846 10.749 177.976 10.5279C178.091 10.3044 177.865 9.9967 177.446 9.81216C177.233 9.72249 177.019 9.68309 176.843 9.6942ZM173.411 9.91502C173.198 9.93842 173.025 10.0185 172.938 10.1473C172.779 10.415 173.045 10.7569 173.556 10.9544C174.067 11.139 174.579 11.0812 174.743 10.8211C174.892 10.556 174.626 10.2101 174.129 10.0178C173.878 9.92555 173.624 9.89163 173.411 9.91502ZM184.924 10.292C184.783 10.2978 184.679 10.3481 184.641 10.4481C184.579 10.6586 184.818 10.9653 185.191 11.1525C185.571 11.3396 185.906 11.3236 185.973 11.1182C186.031 10.9076 185.794 10.6047 185.424 10.4176C185.239 10.3266 185.064 10.2865 184.924 10.292ZM193.963 10.2998C193.84 10.2959 193.757 10.3395 193.738 10.4292C193.709 10.6163 193.962 10.9132 194.322 11.1107C194.681 11.3004 194.978 11.3029 195.009 11.1185C195.03 10.9314 194.78 10.6433 194.429 10.4484C194.25 10.3535 194.086 10.3031 193.963 10.2998ZM192.245 10.4216C192.146 10.4177 192.077 10.4539 192.054 10.5358C192.018 10.7074 192.217 10.9207 192.501 11.0689C192.785 11.2195 193.023 11.2441 193.062 11.0727C193.091 10.9012 192.894 10.6943 192.616 10.5435C192.475 10.4681 192.345 10.4251 192.245 10.4216ZM195.589 10.4483L195.967 10.8785L196.398 10.8941L196.017 10.4639L195.589 10.4483ZM179.232 10.6767C179.08 10.6884 178.962 10.7442 178.908 10.8442C178.814 11.0469 179.023 11.3339 179.404 11.5029C179.784 11.6641 180.154 11.628 180.255 11.4305C180.344 11.2226 180.129 10.942 179.759 10.7757C179.57 10.6952 179.384 10.6648 179.232 10.6767ZM175.957 10.8747C175.743 10.8965 175.572 10.978 175.491 11.1146C175.337 11.3979 175.623 11.7707 176.144 11.9865C176.67 12.1918 177.179 12.1299 177.335 11.857C177.473 11.5737 177.194 11.2033 176.686 10.9928C176.431 10.8914 176.171 10.8529 175.957 10.8747ZM193.776 11.2059C193.642 11.205 193.55 11.2568 193.528 11.3582C193.499 11.5687 193.767 11.8927 194.158 12.1006C194.549 12.3086 194.868 12.3074 194.902 12.0967C194.931 11.8888 194.663 11.5699 194.28 11.3619C194.087 11.2592 193.91 11.2069 193.776 11.2059ZM195.658 11.2859C195.576 11.282 195.522 11.3134 195.509 11.3886C195.493 11.542 195.675 11.7256 195.917 11.8607C196.165 11.9907 196.364 12.0153 196.379 11.8646C196.393 11.7112 196.214 11.5315 195.975 11.3963C195.852 11.33 195.74 11.29 195.658 11.2859ZM191.928 11.3582C191.82 11.3566 191.747 11.398 191.722 11.4915C191.683 11.6787 191.896 11.9115 192.203 12.0779C192.511 12.2364 192.766 12.2535 192.81 12.0662C192.841 11.8765 192.629 11.6448 192.329 11.4837C192.177 11.4043 192.037 11.3599 191.928 11.3582ZM186.977 11.3699C186.856 11.3757 186.767 11.426 186.737 11.5184C186.69 11.7081 186.906 11.9813 187.237 12.1581C187.576 12.3193 187.868 12.3072 187.92 12.1201C187.962 11.9304 187.748 11.657 187.42 11.488C187.253 11.4048 187.099 11.3644 186.977 11.3699ZM184.351 11.4498C184.188 11.4596 184.065 11.5233 184.015 11.6403C183.929 11.8768 184.191 12.2179 184.618 12.4284C185.048 12.6259 185.441 12.604 185.534 12.3676C185.61 12.1284 185.353 11.7924 184.931 11.5871C184.72 11.4871 184.515 11.4403 184.351 11.4498ZM181.69 11.8039C181.559 11.8136 181.459 11.8665 181.416 11.9561C181.34 12.1433 181.536 12.4018 181.87 12.5577C182.203 12.7084 182.522 12.6813 182.603 12.4969C182.673 12.3123 182.48 12.0563 182.149 11.9029C181.984 11.8275 181.822 11.794 181.69 11.8039ZM178.385 11.8156C178.159 11.8376 177.982 11.9275 177.9 12.0783C177.749 12.3928 178.065 12.8137 178.625 13.0606C179.191 13.2945 179.727 13.2314 179.881 12.9273C180.014 12.6128 179.702 12.1981 179.16 11.9564C178.885 11.8394 178.611 11.7936 178.385 11.8156ZM193.57 12.2154C193.424 12.2173 193.324 12.2748 193.299 12.3904C193.262 12.6217 193.555 12.9791 193.974 13.2052C194.397 13.4261 194.748 13.4175 194.788 13.1857C194.819 12.9492 194.524 12.5983 194.112 12.3747C193.905 12.2656 193.716 12.213 193.57 12.2154ZM195.57 12.3296C195.477 12.3276 195.416 12.3657 195.402 12.4514C195.385 12.6282 195.588 12.8425 195.864 12.9959C196.143 13.144 196.366 13.1651 196.387 12.9881C196.403 12.814 196.2 12.6046 195.929 12.4513C195.791 12.3772 195.664 12.3319 195.57 12.3296ZM175.205 12.3639C175.033 12.3854 174.899 12.454 174.831 12.5657C174.708 12.8022 174.929 13.1037 175.346 13.2701C175.766 13.4313 176.178 13.3783 176.308 13.1519C176.423 12.9206 176.202 12.6151 175.793 12.4514C175.587 12.3709 175.377 12.3425 175.205 12.3639ZM191.581 12.4058C191.46 12.4097 191.377 12.4583 191.352 12.5505C191.31 12.7429 191.54 13.0234 191.879 13.2053C192.22 13.3769 192.511 13.3658 192.558 13.1786C192.59 12.9862 192.361 12.7095 192.028 12.5276C191.86 12.4431 191.702 12.4019 191.581 12.4058ZM186.458 12.4286C186.279 12.4384 186.149 12.5119 186.099 12.6418C186.013 12.9174 186.311 13.3089 186.79 13.548C187.27 13.7793 187.703 13.7434 187.794 13.4757C187.865 13.2028 187.563 12.8187 187.1 12.5848C186.864 12.4692 186.637 12.4179 186.458 12.4286ZM180.816 12.855C180.583 12.8769 180.403 12.973 180.324 13.1368C180.175 13.4825 180.518 13.9452 181.106 14.2181C181.703 14.4754 182.269 14.4113 182.412 14.0734C182.537 13.7356 182.199 13.2801 181.626 13.015C181.335 12.8863 181.05 12.8332 180.816 12.855ZM183.977 12.897C183.863 12.9067 183.776 12.9547 183.74 13.0379C183.68 13.2042 183.859 13.4458 184.156 13.5862C184.451 13.724 184.725 13.6967 184.79 13.5329C184.845 13.3639 184.667 13.1276 184.378 12.9847C184.232 12.917 184.091 12.8878 183.977 12.897ZM177.705 13.2929C177.503 13.3167 177.342 13.4013 177.266 13.5404C177.131 13.8315 177.403 14.2144 177.904 14.4275C178.404 14.6328 178.89 14.5673 179.034 14.2866C179.159 13.9981 178.884 13.619 178.396 13.4033C178.151 13.3044 177.908 13.2692 177.705 13.2929ZM193.352 13.3046C193.194 13.3105 193.087 13.3777 193.058 13.5064C193.017 13.7689 193.33 14.1594 193.784 14.4011C194.24 14.6377 194.618 14.6154 194.665 14.3555C194.699 14.0904 194.387 13.7139 193.944 13.4722C193.72 13.3566 193.511 13.2988 193.352 13.3046ZM195.478 13.377C195.377 13.3776 195.311 13.4204 195.295 13.514C195.274 13.7089 195.492 13.943 195.792 14.1041C196.094 14.2626 196.334 14.2774 196.36 14.0846C196.376 13.8871 196.159 13.6557 195.864 13.4945C195.716 13.4165 195.579 13.3764 195.478 13.377ZM191.18 13.4721C191.04 13.4799 190.94 13.5393 190.909 13.651C190.862 13.8797 191.126 14.2122 191.52 14.4201C191.913 14.6203 192.25 14.5967 192.302 14.3706C192.344 14.1393 192.079 13.8119 191.696 13.6091C191.501 13.5103 191.321 13.4649 191.18 13.4721ZM188.707 13.5824C188.552 13.5922 188.437 13.6608 188.397 13.7804C188.335 14.0299 188.609 14.3806 189.031 14.599C189.456 14.8069 189.827 14.7812 189.898 14.5342C189.952 14.2873 189.682 13.9352 189.268 13.7195C189.059 13.6167 188.862 13.5717 188.707 13.5824ZM185.97 13.6471C185.764 13.6647 185.611 13.754 185.554 13.9098C185.452 14.2347 185.793 14.6878 186.34 14.9607C186.89 15.2206 187.383 15.1713 187.485 14.8464C187.574 14.5267 187.234 14.0823 186.703 13.8146C186.433 13.686 186.175 13.6306 185.97 13.6471ZM183.221 13.9555C183.002 13.9774 182.834 14.0735 182.763 14.2373C182.638 14.5752 182.975 15.0342 183.546 15.3071C184.116 15.567 184.643 15.5027 184.771 15.1701C184.878 14.8322 184.541 14.3806 183.988 14.1154C183.711 13.9868 183.44 13.9337 183.221 13.9555ZM180.152 14.283C179.925 14.3097 179.749 14.4085 179.671 14.5723C179.528 14.9128 179.85 15.3658 180.423 15.6231C180.994 15.8701 181.539 15.7986 181.69 15.4633C181.816 15.1254 181.494 14.6786 180.939 14.4239C180.658 14.3017 180.379 14.2564 180.152 14.283ZM193.123 14.4276C192.952 14.4373 192.83 14.5132 192.799 14.656C192.752 14.9497 193.093 15.381 193.585 15.6383C194.078 15.8905 194.487 15.8571 194.539 15.566C194.578 15.2723 194.24 14.8563 193.761 14.5989C193.52 14.4742 193.295 14.4173 193.123 14.4276ZM195.391 14.4999C195.278 14.5058 195.201 14.5561 195.185 14.6522C195.164 14.8497 195.399 15.1365 195.73 15.3185C196.064 15.4925 196.332 15.4742 196.36 15.2765C196.378 15.0816 196.144 14.7984 195.818 14.6217C195.654 14.5359 195.504 14.4947 195.391 14.4999ZM190.791 14.6257C190.635 14.6373 190.523 14.7052 190.489 14.8313C190.435 15.0912 190.724 15.4644 191.153 15.6879C191.589 15.9036 191.954 15.8717 192.016 15.6117C192.063 15.3544 191.779 14.99 191.36 14.7665C191.147 14.6598 190.946 14.6143 190.791 14.6257ZM188.168 14.6676C187.939 14.6876 187.774 14.7927 187.714 14.976C187.626 15.3034 187.913 15.7476 188.405 16.0725C187.824 15.8775 187.34 15.9723 187.218 16.3466C187.129 16.6767 187.349 17.0947 187.771 17.4507C187.274 17.3546 186.886 17.4858 186.779 17.8315C186.667 18.2369 186.987 18.7617 187.542 19.1412C186.927 18.954 186.417 19.0907 186.279 19.5143C186.18 19.8756 186.379 20.3115 186.783 20.6832C186.288 20.6261 185.905 20.7898 185.79 21.1667C185.673 21.5826 185.923 22.0902 186.397 22.4878C185.832 22.3943 185.377 22.5793 185.237 23.0133C185.114 23.4665 185.381 24.0073 185.874 24.4106C185.354 24.3318 184.921 24.5205 184.786 24.9398C184.63 25.5116 185.081 26.2221 185.828 26.5807C186.582 26.9186 187.268 26.7414 187.424 26.1695C187.525 25.7455 187.299 25.2572 186.878 24.8903C187.316 24.9677 187.693 24.8727 187.909 24.6238C187.99 25.1436 188.431 25.6977 189.069 26.0096C189.622 26.2722 190.122 26.2562 190.432 26.0252C190.58 26.4355 190.934 26.8208 191.383 27.0951C190.714 26.8156 190.129 26.9789 190.004 27.5215C189.895 28.1089 190.364 28.8393 191.089 29.2006C191.818 29.5462 192.449 29.3551 192.558 28.7703C192.637 28.237 192.245 27.6155 191.646 27.2398C192.143 27.4475 192.586 27.443 192.86 27.2203C193.037 27.6907 193.447 28.1455 193.978 28.4158C194.528 28.6861 195.01 28.6631 195.284 28.4002C195.421 28.7859 195.734 29.1351 196.112 29.4167C195.571 29.2663 195.144 29.4477 195.07 29.9384C195.007 30.5414 195.489 31.2878 196.192 31.6517C196.898 32.0026 197.472 31.808 197.54 31.2024C197.577 30.7239 197.269 30.167 196.795 29.7785C197.316 29.9132 197.702 29.7463 197.811 29.3254C197.847 29.8692 198.288 30.5063 198.903 30.8369C199.58 31.1852 200.113 31.0104 200.155 30.4333C200.178 29.8641 199.7 29.1687 199.051 28.8152C198.451 28.5076 197.968 28.6244 197.838 29.0627C197.805 28.6293 197.543 28.154 197.124 27.7872C197.581 27.8662 197.906 27.6979 197.994 27.3265C198.046 27.8291 198.468 28.4147 199.059 28.7352C199.711 29.0705 200.227 28.9165 200.269 28.3811C200.285 27.8561 199.818 27.1963 199.185 26.8506C198.578 26.5415 198.088 26.6533 197.994 27.1095C197.972 26.7333 197.766 26.3179 197.402 25.9711C197.838 26.0179 198.137 25.843 198.173 25.4609C198.207 25.0009 197.845 24.4319 197.303 24.0446C197.81 24.2116 198.18 24.0925 198.28 23.7514C198.316 24.2014 198.73 24.7498 199.303 25.0612C199.924 25.3809 200.408 25.2715 200.437 24.7984C200.447 24.3384 200.002 23.7375 199.403 23.4126C198.843 23.1214 198.398 23.1935 198.296 23.5648C198.282 23.2073 198.054 22.7954 197.666 22.4569C198.057 22.5331 198.327 22.4212 198.41 22.1485C198.459 22.5667 198.858 23.0787 199.406 23.3783C200.008 23.6902 200.481 23.5967 200.51 23.1574C200.519 22.726 200.081 22.1534 199.494 21.8363C198.958 21.5572 198.534 21.6106 198.425 21.939C198.39 21.5529 198.063 21.0899 197.586 20.7587C198.073 20.9278 198.43 20.8266 198.464 20.4808C198.484 20.0779 198.06 19.5413 197.486 19.232C196.981 18.9695 196.563 18.9823 196.417 19.2398C196.339 18.8681 195.962 18.4351 195.459 18.1699C194.977 17.923 194.56 17.9173 194.383 18.1356C194.299 17.7603 193.919 17.3396 193.413 17.0505C193.973 17.3098 194.437 17.2586 194.497 16.9096C194.542 16.5431 194.139 16.0372 193.566 15.7331C192.985 15.4368 192.491 15.471 192.413 15.8245C192.353 16.1753 192.728 16.6653 193.276 16.9782C192.755 16.7351 192.301 16.7327 192.112 16.9782C192.033 16.6247 191.674 16.2151 191.176 15.9578C190.572 15.6589 190.046 15.6825 189.947 16.0568C190.031 15.6774 189.604 15.1706 188.997 14.8613C188.691 14.7118 188.398 14.6474 188.168 14.6676ZM187.218 16.3466C187.325 15.9489 186.93 15.4085 186.294 15.094C185.653 14.7951 185.058 14.8514 184.912 15.2386C184.785 15.6389 185.187 16.1906 185.844 16.5103C186.5 16.817 187.09 16.7443 187.218 16.3466ZM182.542 15.3148C182.301 15.3435 182.116 15.4489 182.038 15.6308C181.9 16.0129 182.263 16.52 182.878 16.8111C183.498 17.0866 184.074 17.0078 184.218 16.6284C184.34 16.2516 183.981 15.7543 183.382 15.471C183.079 15.3359 182.782 15.2863 182.542 15.3148ZM166.776 15.4062C166.638 15.4329 166.522 15.4969 166.46 15.5852C166.34 15.7698 166.493 15.9802 166.811 16.0763C167.129 16.1699 167.461 16.1034 167.586 15.9241C167.7 15.7422 167.551 15.5355 167.238 15.4368C167.079 15.39 166.915 15.3795 166.776 15.4062ZM173.686 15.6233C173.551 15.6447 173.441 15.7047 173.388 15.7983C173.286 15.988 173.456 16.2294 173.774 16.3542C174.091 16.4737 174.414 16.4156 174.518 16.2287C174.617 16.039 174.453 15.8052 174.14 15.6804C173.981 15.6205 173.82 15.6018 173.686 15.6233ZM195.261 15.65C195.13 15.6597 195.04 15.7221 195.02 15.8365C194.994 16.0704 195.266 16.4117 195.646 16.617C196.032 16.8172 196.345 16.7874 196.379 16.5562C196.4 16.3171 196.132 15.9861 195.757 15.7833C195.567 15.6845 195.392 15.6402 195.261 15.65ZM162.894 16.0269C162.756 16.0571 162.643 16.1175 162.578 16.2019C162.452 16.3787 162.589 16.563 162.902 16.6436C163.209 16.719 163.543 16.645 163.673 16.4761C163.79 16.3021 163.653 16.1113 163.349 16.0307C163.195 15.9942 163.032 15.9969 162.894 16.0269ZM179.625 16.0612C179.463 16.0836 179.335 16.1587 179.278 16.282C179.174 16.5341 179.409 16.859 179.812 17.0435C180.222 17.2176 180.611 17.1624 180.721 16.9101C180.817 16.6554 180.589 16.3292 180.19 16.1525C179.99 16.0667 179.788 16.0388 179.625 16.0612ZM169.678 16.1869C169.473 16.2249 169.304 16.317 169.216 16.4534C169.049 16.7367 169.286 17.0726 169.758 17.2416C170.235 17.395 170.727 17.3026 170.899 17.0246C171.053 16.7438 170.821 16.4104 170.357 16.244C170.123 16.1661 169.882 16.1489 169.678 16.1869ZM189.478 16.3392C189.579 16.3294 189.711 16.3548 189.848 16.423C190.119 16.5634 190.299 16.7997 190.26 16.9713C190.219 17.1453 189.974 17.1749 189.695 17.0399C189.422 16.8995 189.24 16.6607 189.279 16.484C189.303 16.3996 189.376 16.3499 189.478 16.3392ZM184.905 16.3587C184.649 16.3903 184.455 16.5113 184.378 16.7166C184.237 17.1454 184.651 17.7242 185.321 18.0491C185.998 18.361 186.61 18.271 186.748 17.8473C186.866 17.4185 186.46 16.8599 185.806 16.5376C185.477 16.3856 185.16 16.3272 184.905 16.3587ZM176.297 16.5528C176.119 16.5815 175.98 16.6665 175.911 16.7965C175.786 17.059 176.016 17.3977 176.446 17.577C176.878 17.7485 177.304 17.6758 177.434 17.4133C177.554 17.1481 177.319 16.8095 176.9 16.6328C176.687 16.5495 176.474 16.5242 176.297 16.5528ZM165.746 16.7927C165.602 16.8225 165.484 16.8857 165.418 16.9792C165.295 17.1742 165.444 17.3919 165.773 17.4932C166.098 17.5868 166.444 17.5129 166.574 17.3258C166.691 17.1334 166.542 16.9144 166.219 16.8156C166.058 16.7688 165.889 16.7629 165.746 16.7927ZM195.131 16.8765C194.987 16.8902 194.89 16.9637 194.868 17.0935C194.836 17.3612 195.129 17.7381 195.551 17.9616C195.971 18.1773 196.319 18.1417 196.353 17.8741C196.379 17.609 196.085 17.2372 195.673 17.0136C195.465 16.9084 195.275 16.8625 195.131 16.8765ZM182.038 16.964C181.837 16.9929 181.683 17.0872 181.614 17.2458C181.497 17.5733 181.798 18.0068 182.309 18.2433C182.825 18.472 183.306 18.3969 183.431 18.072C183.538 17.7419 183.241 17.3224 182.74 17.0859C182.487 16.9728 182.239 16.9352 182.038 16.964ZM172.525 17.162C172.31 17.2006 172.138 17.3032 172.048 17.4552C171.881 17.7723 172.142 18.1576 172.647 18.3499C173.158 18.5345 173.677 18.4384 173.846 18.1291C174.002 17.8146 173.744 17.4305 173.247 17.2382C172.997 17.1471 172.741 17.1234 172.525 17.162ZM203.163 17.4971C203.084 17.501 203.037 17.5431 203.037 17.6341C203.046 17.816 203.243 18.033 203.499 18.1786C203.754 18.3136 203.952 18.3173 203.949 18.1329C203.935 17.9561 203.732 17.7391 203.48 17.5961C203.352 17.5273 203.241 17.4928 203.163 17.4971ZM205.186 17.5314L204.808 17.5618L205.224 18.0301L205.602 18.0034L205.186 17.5314ZM191.818 17.5392C191.904 17.5294 192.015 17.5548 192.135 17.6154C192.374 17.7401 192.535 17.9414 192.509 18.1103C192.475 18.2766 192.266 18.2883 192.024 18.1712C191.784 18.0439 191.621 17.8414 191.65 17.6724C191.669 17.5905 191.731 17.5479 191.818 17.5392ZM178.9 17.5696C178.711 17.5998 178.562 17.6881 178.492 17.8323C178.369 18.1364 178.629 18.5179 179.099 18.7232C179.568 18.9181 180.021 18.8406 180.148 18.5443C180.268 18.2454 180.005 17.8701 179.549 17.6648C179.32 17.5687 179.09 17.5394 178.9 17.5696ZM206.613 17.5696L206.285 17.5924L206.644 18.0036L206.976 17.9769L206.613 17.5696ZM201.197 17.5813C201.09 17.591 201.025 17.6499 201.021 17.7563C201.023 17.9721 201.281 18.2812 201.617 18.4683C201.953 18.6476 202.213 18.6219 202.216 18.4036C202.208 18.1853 201.951 17.8838 201.62 17.6992C201.454 17.6109 201.304 17.5721 201.197 17.5813ZM168.739 17.6575C168.571 17.6916 168.434 17.7702 168.361 17.8859C168.222 18.1225 168.409 18.4006 168.792 18.5332C169.18 18.6554 169.58 18.5794 169.723 18.3427C169.854 18.1062 169.674 17.8318 169.296 17.6993C169.106 17.6369 168.906 17.6234 168.739 17.6575ZM199.254 17.7793C199.14 17.791 199.064 17.8516 199.055 17.962C199.047 18.1881 199.309 18.5057 199.658 18.7006C200.01 18.8852 200.284 18.8505 200.292 18.6244C200.298 18.4009 200.04 18.0869 199.696 17.8972C199.523 17.8075 199.368 17.7682 199.254 17.7793ZM189.127 17.8973C189.221 17.8856 189.34 17.9109 189.466 17.9735C189.719 18.1008 189.887 18.3183 189.848 18.4951C189.804 18.6692 189.577 18.6922 189.321 18.5674C189.063 18.4349 188.897 18.2188 188.936 18.042C188.96 17.9562 189.032 17.9082 189.127 17.8973ZM197.074 17.9168C196.939 17.9324 196.849 18.0051 196.834 18.1338C196.813 18.3989 197.104 18.7645 197.505 18.9828C197.909 19.1907 198.231 19.1528 198.257 18.8877C198.271 18.6252 197.98 18.2606 197.589 18.0501C197.39 17.9462 197.209 17.9021 197.074 17.9168ZM184.401 17.9663C184.162 18.0019 183.981 18.1228 183.908 18.3204C183.775 18.7336 184.149 19.2741 184.775 19.573C185.4 19.8589 185.974 19.764 186.107 19.3559C186.219 18.9453 185.848 18.4123 185.241 18.1186C184.936 17.9782 184.639 17.9304 184.401 17.9663ZM175.667 18.1148C175.275 18.0692 174.931 18.1867 174.797 18.446C174.627 18.7995 174.917 19.2429 175.465 19.4664C176.02 19.6822 176.569 19.576 176.743 19.2304C176.897 18.8743 176.607 18.4411 176.068 18.2176C175.932 18.165 175.797 18.13 175.667 18.1148ZM181.358 18.526C181.126 18.5646 180.947 18.6827 180.866 18.8725C180.725 19.2623 181.061 19.766 181.652 20.0337C182.244 20.2936 182.8 20.1926 182.946 19.8053C183.074 19.4128 182.735 18.9232 182.164 18.6555C181.873 18.5293 181.591 18.4874 181.358 18.526ZM193.929 18.6174C194.012 18.6077 194.122 18.633 194.242 18.6937L194.62 19.1924C194.588 19.364 194.39 19.3805 194.15 19.261C193.913 19.1337 193.749 18.9236 193.772 18.7546C193.788 18.6714 193.845 18.6274 193.929 18.6174ZM205.296 18.6861L204.941 18.7204L205.331 19.1734L205.686 19.1391L205.296 18.6861ZM203.216 18.7055C203.122 18.7153 203.063 18.7705 203.063 18.8693C203.073 19.0694 203.311 19.354 203.613 19.5203C203.915 19.6866 204.139 19.6595 204.136 19.4595C204.122 19.2646 203.887 18.9786 203.59 18.8123C203.44 18.7318 203.31 18.6958 203.216 18.7055ZM201.132 18.7627C201.01 18.7763 200.935 18.8436 200.929 18.9683C200.929 19.223 201.222 19.5877 201.605 19.7983C201.991 19.9984 202.283 19.9616 202.288 19.7068C202.281 19.4521 201.991 19.0988 201.613 18.8883C201.423 18.7883 201.254 18.7488 201.132 18.7627ZM199.082 18.9492C198.937 18.9668 198.842 19.05 198.83 19.1929C198.814 19.4892 199.147 19.9018 199.59 20.1409C200.033 20.3774 200.374 20.3294 200.395 20.0306C200.397 19.7343 200.073 19.3293 199.643 19.0902C199.424 18.9757 199.227 18.9311 199.082 18.9492ZM171.766 18.9648C171.621 18.9937 171.502 19.0652 171.441 19.1704C171.329 19.3887 171.495 19.6522 171.834 19.7796C172.176 19.9018 172.523 19.8291 172.64 19.6158C172.749 19.3975 172.579 19.1378 172.25 19.0105C172.081 18.9506 171.911 18.9358 171.766 18.9648ZM178.4 19.3646C178.059 19.3199 177.763 19.4275 177.656 19.6615C177.517 19.9864 177.784 20.3876 178.266 20.5982C178.754 20.7983 179.226 20.7046 179.362 20.385C179.487 20.0626 179.223 19.6651 178.751 19.4598C178.632 19.4105 178.514 19.3794 178.4 19.3646ZM188.733 19.4445C188.831 19.4289 188.953 19.4523 189.085 19.5131C189.345 19.6457 189.517 19.8782 189.478 20.0576C189.431 20.2369 189.194 20.2749 188.928 20.1527C188.662 20.0201 188.501 19.7826 188.542 19.6006C188.566 19.5123 188.636 19.4599 188.733 19.4445ZM183.779 19.5244C183.503 19.5718 183.291 19.7182 183.202 19.9547C183.046 20.4433 183.474 21.0762 184.191 21.4167C184.91 21.739 185.569 21.6083 185.725 21.1197C185.858 20.6311 185.437 20.0208 184.744 19.6881C184.394 19.5297 184.054 19.477 183.779 19.5244ZM195.979 19.6578C196.069 19.6441 196.187 19.6714 196.318 19.7377C196.581 19.8806 196.766 20.123 196.753 20.305C196.732 20.4843 196.512 20.5163 196.246 20.3812C195.98 20.2434 195.792 19.992 195.811 19.8101C195.824 19.7204 195.888 19.6706 195.979 19.6578ZM203.25 20.0195C203.173 20.0272 203.126 20.0731 203.125 20.1641C203.134 20.3487 203.327 20.5722 203.575 20.7048C203.82 20.8398 204.005 20.8322 204.002 20.6476C203.993 20.4658 203.803 20.2447 203.556 20.107C203.435 20.0407 203.328 20.0113 203.25 20.0195ZM174.735 20.1261C174.61 20.1518 174.509 20.2138 174.457 20.3126C174.366 20.5128 174.521 20.7578 174.823 20.8799C175.123 20.9916 175.423 20.9291 175.522 20.7314C175.608 20.5339 175.454 20.2901 175.159 20.1679C175.012 20.112 174.861 20.1005 174.735 20.1261ZM201.155 20.1339C201.041 20.1495 200.969 20.2187 200.964 20.3395C200.964 20.5838 201.235 20.9187 201.59 21.1162C201.942 21.3033 202.212 21.2614 202.22 21.0172C202.212 20.7702 201.948 20.4392 201.601 20.2443C201.425 20.1521 201.268 20.1175 201.155 20.1339ZM198.933 20.2824C198.767 20.3068 198.662 20.4066 198.647 20.5794C198.631 20.9303 199 21.4144 199.506 21.6873C200.011 21.9525 200.409 21.8847 200.429 21.5312C200.437 21.1803 200.062 20.71 199.574 20.4423C199.325 20.3123 199.099 20.2581 198.933 20.2824ZM181.061 20.4347C180.694 20.3832 180.382 20.5027 180.27 20.7659C180.14 21.1324 180.438 21.5852 180.961 21.8243C181.49 22.0531 181.991 21.9495 182.129 21.5883C182.249 21.227 181.949 20.7816 181.439 20.5451C181.309 20.4891 181.183 20.4518 181.061 20.4347ZM188.313 21.0933C188.415 21.0738 188.544 21.0953 188.68 21.1581C188.946 21.2959 189.119 21.542 189.077 21.7292C189.03 21.9216 188.779 21.9681 188.508 21.8434C188.237 21.703 188.067 21.4582 188.111 21.2685C188.138 21.1735 188.212 21.1124 188.313 21.0933ZM177.526 21.2913C177.406 21.3163 177.312 21.3804 177.266 21.4779C177.186 21.6832 177.341 21.9357 177.633 22.0604C177.925 22.1774 178.212 22.1158 178.301 21.9158C178.379 21.7104 178.225 21.4656 177.938 21.3408C177.794 21.281 177.646 21.2664 177.526 21.2913ZM195.898 21.3256C195.983 21.312 196.094 21.3393 196.215 21.4019C196.458 21.5319 196.632 21.7529 196.616 21.9349C196.59 22.1195 196.391 22.146 196.146 22.0187C195.899 21.8914 195.721 21.669 195.742 21.4819C195.756 21.3897 195.814 21.3389 195.898 21.3256ZM183.637 21.3295C183.13 21.2553 182.704 21.4253 182.561 21.8055C182.394 22.3305 182.826 22.9953 183.569 23.3436C184.309 23.6711 184.999 23.5222 185.168 22.9972C185.311 22.4747 184.878 21.8287 184.164 21.4856C183.984 21.4051 183.807 21.3543 183.637 21.3295ZM201.243 21.7293C201.158 21.743 201.105 21.7995 201.101 21.8931C201.099 22.0827 201.3 22.3414 201.563 22.487C201.826 22.6248 202.031 22.5903 202.036 22.4032C202.034 22.2108 201.835 21.956 201.575 21.813C201.442 21.7429 201.327 21.7151 201.243 21.7293ZM180.377 22.2014C179.998 22.1544 179.676 22.286 179.557 22.5707C179.416 22.9606 179.717 23.442 180.259 23.6863C180.804 23.915 181.328 23.7956 181.477 23.4083C181.604 23.0185 181.299 22.5471 180.771 22.308C180.637 22.2515 180.504 22.217 180.377 22.2014ZM187.855 22.7154C187.972 22.691 188.119 22.7095 188.271 22.7801C188.582 22.9335 188.773 23.2177 188.726 23.4464C188.666 23.6725 188.387 23.734 188.077 23.591C187.764 23.4351 187.568 23.1459 187.623 22.9172C187.655 22.8066 187.739 22.7398 187.855 22.7154ZM203.254 22.7992C203.163 22.8168 203.107 22.878 203.105 22.9819C203.113 23.1976 203.339 23.487 203.628 23.6482C203.917 23.8066 204.136 23.7649 204.136 23.5491C204.126 23.3334 203.9 23.0478 203.613 22.8867C203.471 22.8101 203.345 22.7819 203.254 22.7992ZM200.918 22.9058C200.755 22.937 200.649 23.0487 200.636 23.2333C200.628 23.6128 201.013 24.115 201.521 24.3983C202.029 24.6635 202.415 24.5824 202.426 24.2003C202.42 23.8235 202.044 23.3285 201.552 23.0582C201.303 22.9231 201.081 22.8747 200.918 22.9058ZM195.7 22.9402C195.787 22.9226 195.903 22.9441 196.028 23.0088C196.276 23.1413 196.455 23.3877 196.437 23.5723C196.413 23.7569 196.201 23.7986 195.948 23.6713C195.695 23.5387 195.519 23.2937 195.54 23.104C195.553 23.013 195.613 22.9573 195.7 22.9402ZM176.533 23.2333C176.361 23.2729 176.223 23.3708 176.155 23.5189C176.033 23.8178 176.254 24.1836 176.671 24.3603C177.088 24.5318 177.502 24.4309 177.633 24.1319C177.745 23.8304 177.53 23.4722 177.121 23.2981C176.915 23.2148 176.706 23.1938 176.533 23.2333ZM183.103 23.2752C182.629 23.2127 182.228 23.3865 182.091 23.755C181.932 24.2644 182.33 24.8923 183.015 25.2094C183.703 25.5135 184.354 25.3558 184.515 24.8515C184.656 24.3447 184.262 23.7318 183.595 23.4199C183.427 23.3458 183.261 23.2961 183.103 23.2752ZM205.289 23.8654C205.192 23.8853 205.137 23.9564 205.14 24.0786C205.154 24.3177 205.405 24.6467 205.72 24.8286C206.041 25.0027 206.276 24.9563 206.266 24.7068C206.25 24.4625 205.997 24.1411 205.682 23.9644C205.523 23.8772 205.386 23.8457 205.289 23.8654ZM202.979 24.0024C202.814 24.0369 202.712 24.1539 202.708 24.3527C202.71 24.753 203.12 25.2976 203.644 25.5939C204.173 25.8798 204.566 25.7849 204.564 25.3769C204.548 24.9714 204.145 24.4444 203.632 24.1585C203.374 24.0195 203.145 23.9681 202.979 24.0024ZM190.482 24.018C190.581 23.9956 190.705 24.0161 190.84 24.0788C191.109 24.2139 191.287 24.4739 191.253 24.6766C191.206 24.8793 190.965 24.9334 190.692 24.806C190.423 24.6709 190.247 24.4072 190.283 24.2045C190.308 24.1031 190.382 24.0404 190.482 24.018ZM179.629 24.1779C179.218 24.1326 178.865 24.2886 178.732 24.6043C178.576 25.0435 178.895 25.5741 179.476 25.8341C180.063 26.0784 180.636 25.9306 180.797 25.499C180.941 25.0623 180.618 24.5468 180.053 24.2921C179.909 24.2311 179.766 24.1931 179.629 24.1779ZM200.907 24.5205C200.73 24.5599 200.618 24.6856 200.605 24.8937C200.597 25.3173 201.01 25.879 201.552 26.1805C202.102 26.469 202.521 26.3657 202.537 25.9368C202.531 25.5132 202.125 24.9627 201.594 24.669C201.325 24.5273 201.083 24.4813 200.907 24.5205ZM195.486 24.6652C195.576 24.6447 195.696 24.6632 195.826 24.726C196.079 24.8611 196.259 25.116 196.238 25.3161C196.212 25.5137 195.995 25.5679 195.734 25.438C195.479 25.3001 195.297 25.0415 195.318 24.844C195.332 24.7452 195.396 24.6856 195.486 24.6652ZM207.186 24.9279C207.082 24.9509 207.022 25.0337 207.029 25.1716C207.05 25.4445 207.336 25.8152 207.682 26.0206C208.034 26.2181 208.282 26.1578 208.266 25.8796C208.24 25.6041 207.954 25.2384 207.61 25.0382C207.436 24.9407 207.29 24.9047 207.186 24.9279ZM198.555 25.0041C198.366 25.048 198.241 25.1817 198.219 25.4001C198.191 25.8471 198.605 26.4271 199.174 26.7364C199.747 27.0353 200.197 26.9132 200.231 26.4661C200.245 26.0191 199.832 25.4515 199.277 25.1526C198.996 25.0083 198.744 24.9602 198.555 25.0041ZM175.827 25.1639C175.404 25.1294 175.027 25.2953 174.877 25.6208C174.689 26.0679 175 26.6011 175.594 26.8506C176.191 27.0845 176.785 26.9256 176.972 26.4813C177.144 26.0342 176.837 25.5137 176.259 25.2667C176.113 25.2083 175.968 25.1754 175.827 25.1639ZM192.845 25.1868C192.94 25.1647 193.067 25.1865 193.2 25.2515C193.463 25.384 193.642 25.6413 193.616 25.8492C193.579 26.0546 193.347 26.1162 193.081 25.9863C192.813 25.8484 192.634 25.5812 192.665 25.3733C192.683 25.2719 192.749 25.2088 192.845 25.1868ZM205.17 25.2363C205.028 25.269 204.941 25.3755 204.941 25.5561C204.959 25.9277 205.327 26.4216 205.796 26.6945C206.266 26.9492 206.607 26.8695 206.594 26.4927C206.568 26.121 206.202 25.6358 205.743 25.3733C205.514 25.246 205.313 25.2033 205.17 25.2363ZM182.496 25.3429C182.054 25.2924 181.682 25.4659 181.549 25.8226C181.395 26.3139 181.757 26.911 182.393 27.2047C183.034 27.4802 183.64 27.3189 183.801 26.8277C183.937 26.3391 183.575 25.7544 182.958 25.4685C182.801 25.4003 182.643 25.3599 182.496 25.3429ZM203.117 25.7693C202.963 25.8067 202.869 25.9235 202.865 26.1158C202.871 26.5057 203.248 27.0244 203.735 27.2999C204.225 27.565 204.59 27.4691 204.59 27.0714C204.577 26.6789 204.204 26.1741 203.728 25.9064C203.486 25.7752 203.271 25.7319 203.117 25.7693ZM188.466 25.8455C188.069 25.7902 187.749 25.9461 187.657 26.2834C187.55 26.7486 187.915 27.3224 188.504 27.6083C189.093 27.8812 189.624 27.7333 189.733 27.2733C189.819 26.8132 189.456 26.2519 188.882 25.9712C188.738 25.9043 188.599 25.8639 188.466 25.8455ZM209.045 25.9255C208.921 25.9553 208.851 26.0561 208.862 26.2262C208.901 26.5745 209.254 27.0438 209.679 27.3037C210.106 27.548 210.398 27.4706 210.37 27.1172C210.325 26.7663 209.975 26.3108 209.56 26.0587C209.349 25.9379 209.169 25.8956 209.045 25.9255ZM195.139 26.3062C195.242 26.2793 195.381 26.3003 195.528 26.3748C195.82 26.5282 196.022 26.8274 196.001 27.0639C195.968 27.2979 195.721 27.3644 195.421 27.2162C195.127 27.0628 194.919 26.7636 194.948 26.5271C194.965 26.4101 195.035 26.3331 195.139 26.3062ZM200.872 26.3442C200.724 26.3807 200.628 26.4896 200.616 26.6716C200.609 27.0381 200.949 27.516 201.403 27.7682C201.859 28.0099 202.211 27.9114 202.224 27.5397C202.224 27.1732 201.888 26.7091 201.445 26.4622C201.222 26.3453 201.02 26.3078 200.872 26.3442ZM178.805 26.3481C178.348 26.307 177.953 26.4918 177.801 26.8583C177.616 27.3651 177.968 27.9659 178.614 28.2518C179.263 28.5169 179.893 28.3372 180.083 27.833C180.25 27.3313 179.909 26.7442 179.278 26.4661C179.119 26.4004 178.957 26.3619 178.805 26.3481ZM207.217 26.4584C207.092 26.4896 207.017 26.5941 207.022 26.763C207.048 27.1087 207.387 27.5631 207.804 27.81C208.221 28.0466 208.519 27.9679 208.495 27.6196C208.467 27.2791 208.13 26.8269 207.72 26.5878C207.516 26.4708 207.341 26.4272 207.217 26.4584ZM185.286 26.6489C184.875 26.6004 184.537 26.7701 184.427 27.1172C184.297 27.5928 184.649 28.1741 185.248 28.4574C185.853 28.7251 186.407 28.565 186.542 28.0919C186.654 27.6162 186.301 27.0462 185.718 26.7707C185.57 26.7044 185.424 26.6651 185.286 26.6489ZM205.304 27.0258C205.177 27.0595 205.1 27.1627 205.102 27.3304C205.117 27.6735 205.445 28.1257 205.854 28.3622C206.271 28.5935 206.572 28.5035 206.564 28.1604C206.543 27.8173 206.217 27.3765 205.816 27.14C205.611 27.027 205.431 26.9921 205.304 27.0258ZM211.041 27.1514C210.934 27.1796 210.876 27.2746 210.892 27.4331C210.934 27.7528 211.257 28.1853 211.629 28.4192C212.007 28.6453 212.259 28.5728 212.225 28.2479C212.178 27.923 211.859 27.5019 211.492 27.2732C211.304 27.1626 211.149 27.1231 211.041 27.1514ZM174.854 27.5092C174.412 27.4794 174.014 27.6666 173.85 28.0194C173.647 28.5081 173.954 29.0744 174.571 29.3291C175.194 29.5709 175.82 29.3861 176.026 28.9027C176.211 28.4167 175.901 27.8654 175.304 27.6159C175.154 27.556 175.001 27.5192 174.854 27.5092ZM209.251 27.6691C209.137 27.6999 209.077 27.7972 209.087 27.9623C209.121 28.2975 209.443 28.7473 209.831 28.9864C210.222 29.2204 210.491 29.1377 210.465 28.7999C210.428 28.4594 210.107 28.0236 209.724 27.7871C209.532 27.6754 209.365 27.6381 209.251 27.6691ZM203.205 27.7147C203.095 27.7449 203.025 27.8332 203.021 27.9774C203.023 28.2685 203.289 28.6455 203.636 28.8379C203.983 29.0275 204.248 28.9539 204.251 28.6628C204.241 28.3717 203.975 27.9985 203.636 27.8062C203.464 27.7126 203.314 27.6845 203.205 27.7147ZM181.774 27.7342C181.377 27.6956 181.043 27.8634 180.919 28.1987C180.776 28.6587 181.095 29.2066 181.66 29.4665C182.231 29.7135 182.78 29.547 182.931 29.0896C183.064 28.6322 182.739 28.0967 182.187 27.8446C182.047 27.7842 181.907 27.7471 181.774 27.7342ZM201.048 28.0883C200.717 28.0265 200.481 28.1684 200.46 28.4881C200.446 28.9247 200.831 29.4838 201.349 29.7749C201.868 30.0479 202.274 29.9248 202.292 29.4856C202.292 29.0489 201.91 28.4984 201.407 28.2177C201.279 28.1501 201.158 28.1089 201.048 28.0883ZM188.023 28.1C187.714 28.0637 187.466 28.1963 187.39 28.4693C187.309 28.8436 187.588 29.2916 188.039 29.5125C188.497 29.7204 188.906 29.5987 188.997 29.227C189.07 28.8553 188.791 28.4097 188.348 28.1914C188.236 28.1407 188.126 28.1121 188.023 28.1ZM207.438 28.3551C207.339 28.3833 207.284 28.4699 207.289 28.6102C207.307 28.8961 207.573 29.2641 207.904 29.4668C208.237 29.6565 208.47 29.584 208.457 29.2955C208.431 29.0122 208.166 28.6414 207.842 28.4464C207.678 28.3542 207.537 28.3268 207.438 28.3551ZM193.566 28.3707C193.19 28.3159 192.9 28.4806 192.833 28.8276C192.768 29.3032 193.147 29.8907 193.715 30.1792C194.288 30.4547 194.769 30.3045 194.845 29.8289C194.897 29.3558 194.518 28.7834 193.963 28.5001C193.824 28.4319 193.691 28.3888 193.566 28.3707ZM213.141 28.5344C213.062 28.5572 213.022 28.633 213.038 28.7591C213.074 29.0086 213.321 29.3448 213.603 29.5319C213.887 29.7087 214.072 29.6559 214.038 29.3986C213.999 29.1413 213.756 28.8062 213.477 28.6295C213.338 28.5424 213.219 28.5116 213.141 28.5344ZM177.931 28.8276C177.504 28.7958 177.13 28.9829 176.984 29.3416C176.804 29.838 177.118 30.4128 177.721 30.6779C178.325 30.9223 178.919 30.7325 179.106 30.2439C179.268 29.7501 178.956 29.1915 178.369 28.9342C178.222 28.8732 178.073 28.8381 177.931 28.8276ZM211.282 28.9874C211.197 29.0124 211.152 29.0923 211.163 29.2235C211.197 29.486 211.445 29.8333 211.74 30.023C212.037 30.2049 212.235 30.1396 212.209 29.8745C212.178 29.6094 211.926 29.2633 211.637 29.0787C211.49 28.9904 211.367 28.9625 211.282 28.9874ZM190.653 29.174C190.246 29.1235 189.924 29.3042 189.84 29.6765C189.747 30.1886 190.135 30.813 190.737 31.1119C191.347 31.3952 191.879 31.2242 191.978 30.7121C192.054 30.2027 191.668 29.5971 191.085 29.3034C190.936 29.2333 190.789 29.1907 190.653 29.174ZM184.511 29.3566C184.384 29.395 184.288 29.4855 184.248 29.6193C184.175 29.8896 184.365 30.2122 184.691 30.3656C185.017 30.5085 185.323 30.4124 185.401 30.1448C185.469 29.8718 185.279 29.5531 184.958 29.4023C184.796 29.3308 184.639 29.3182 184.511 29.3566ZM171.01 29.528C170.679 29.5163 170.377 29.6588 170.243 29.924C170.073 30.2852 170.285 30.699 170.739 30.8758C171.195 31.0473 171.67 30.8953 171.842 30.5331C171.998 30.1718 171.786 29.7694 171.346 29.5927C171.234 29.5523 171.12 29.5319 171.01 29.528ZM203.464 29.5699C203.212 29.5215 203.041 29.6381 203.033 29.8935C203.035 30.2392 203.338 30.6775 203.731 30.9063C204.13 31.122 204.431 31.0262 204.434 30.6778C204.428 30.3321 204.125 29.8962 203.739 29.6727C203.64 29.6195 203.548 29.5859 203.464 29.5699ZM215.141 29.8593C215.076 29.8801 215.043 29.9493 215.057 30.061C215.096 30.2846 215.309 30.5838 215.546 30.7502C215.785 30.9061 215.94 30.8558 215.908 30.6244L215.424 29.9429C215.304 29.8649 215.206 29.8386 215.141 29.8593ZM180.855 30.1714C180.715 30.2157 180.605 30.3139 180.553 30.457C180.462 30.7507 180.652 31.0906 180.996 31.2413C181.34 31.3895 181.675 31.2733 181.774 30.99C181.863 30.6963 181.671 30.3655 181.332 30.2095C181.161 30.1368 180.994 30.1272 180.855 30.1714ZM173.831 30.1831C173.418 30.1633 173.048 30.352 172.888 30.7009C172.69 31.1844 172.969 31.7311 173.544 31.965C174.118 32.1885 174.709 31.9927 174.915 31.5195C175.097 31.0439 174.812 30.511 174.254 30.2745C174.114 30.2199 173.968 30.1898 173.831 30.1831ZM201.01 30.2288C200.714 30.1765 200.504 30.3151 200.483 30.6133C200.469 31.0188 200.812 31.5274 201.273 31.7822C201.734 32.0265 202.092 31.9073 202.113 31.4966C202.119 31.0937 201.779 30.5925 201.33 30.343C201.217 30.282 201.108 30.2461 201.01 30.2288ZM187.554 30.4838C187.256 30.4554 187.015 30.5936 186.943 30.8646C186.86 31.2389 187.121 31.6808 187.554 31.8888C187.989 32.0863 188.386 31.9506 188.478 31.5842C188.556 31.2099 188.292 30.7755 187.867 30.5676C187.759 30.5195 187.653 30.4934 187.554 30.4838ZM193.329 30.7009C193.037 30.664 192.809 30.8009 192.757 31.0816C192.705 31.4611 192.998 31.9318 193.436 32.1553C193.877 32.3658 194.254 32.2301 194.314 31.8507C194.359 31.4712 194.068 31.0144 193.639 30.7961C193.53 30.7434 193.427 30.7132 193.329 30.7009ZM198.467 30.7695C198.067 30.7083 197.774 30.9009 197.731 31.3025C197.692 31.8509 198.132 32.5359 198.75 32.8712C199.375 33.1908 199.874 33.0109 199.918 32.46C199.941 31.9115 199.501 31.2429 198.899 30.918C198.747 30.84 198.601 30.79 198.467 30.7695ZM205.438 30.857C205.329 30.8927 205.265 30.9892 205.266 31.1464C205.276 31.4609 205.55 31.8687 205.9 32.0792C206.254 32.2793 206.512 32.1856 206.506 31.866C206.491 31.5463 206.215 31.1473 205.877 30.9446C205.701 30.8471 205.546 30.8211 205.438 30.857ZM176.9 31.5043C176.747 31.5544 176.625 31.6618 176.564 31.8165C176.449 32.1336 176.641 32.4891 177.003 32.6503C177.37 32.7932 177.734 32.6698 177.854 32.3571C177.964 32.0426 177.772 31.6881 177.415 31.5347C177.235 31.4607 177.053 31.4542 176.9 31.5043ZM190.207 31.5729C189.808 31.5321 189.493 31.7238 189.405 32.1059C189.309 32.6257 189.68 33.2502 190.272 33.5413C190.866 33.8142 191.392 33.6233 191.493 33.1034C191.574 32.5862 191.2 31.9742 190.627 31.6909C190.481 31.624 190.34 31.5863 190.207 31.5729ZM203.361 31.5846C203.104 31.539 202.928 31.6676 202.918 31.9425C202.916 32.309 203.223 32.7758 203.632 33.0123C204.039 33.2384 204.346 33.1227 204.354 32.7458C204.348 32.3793 204.041 31.9225 203.64 31.6912C203.539 31.6366 203.447 31.5998 203.361 31.5846ZM195.83 31.7635C195.462 31.7154 195.184 31.8939 195.131 32.2623C195.074 32.7613 195.459 33.3709 196.017 33.6672C196.582 33.9427 197.051 33.7742 197.108 33.2674C197.15 32.771 196.767 32.1751 196.223 31.8892C196.085 31.821 195.952 31.7797 195.83 31.7635ZM169.857 31.7752C169.43 31.7674 169.037 31.9666 168.857 32.3235C168.625 32.8121 168.89 33.364 169.471 33.5875C170.055 33.8033 170.675 33.5895 170.907 33.104C171.118 32.6127 170.854 32.0813 170.288 31.8552C170.145 31.8039 169.999 31.7779 169.857 31.7752ZM200.914 32.2778C200.611 32.2302 200.396 32.3807 200.376 32.7004C200.358 33.1319 200.707 33.6727 201.181 33.9378C201.656 34.1899 202.022 34.0481 202.048 33.6142C202.054 33.1775 201.706 32.6519 201.243 32.392C201.127 32.3302 201.015 32.2936 200.914 32.2778ZM207.755 32.3234C207.679 32.3507 207.639 32.4234 207.644 32.5404C207.658 32.7718 207.856 33.075 208.106 33.2258C208.356 33.3764 208.53 33.3061 208.522 33.0696C208.504 32.8331 208.306 32.5388 208.064 32.3881C207.94 32.3154 207.83 32.2961 207.755 32.3234ZM172.903 32.7765C172.589 32.7687 172.305 32.9204 172.182 33.1991C172.025 33.576 172.232 34.0008 172.659 34.1776C173.091 34.3439 173.541 34.1854 173.705 33.8083C173.853 33.4314 173.643 33.0153 173.224 32.8412C173.118 32.8009 173.008 32.7792 172.903 32.7765ZM205.693 32.8488C205.415 32.7966 205.23 32.9387 205.228 33.2486C205.236 33.6696 205.586 34.2018 206.029 34.4669C206.475 34.7268 206.806 34.6001 206.8 34.1738C206.78 33.7527 206.434 33.2293 205.999 32.9668C205.889 32.9044 205.786 32.8662 205.693 32.8488ZM187.111 32.9669C186.815 32.9424 186.573 33.0935 186.496 33.3781C186.408 33.7628 186.668 34.211 187.096 34.4137C187.528 34.6034 187.922 34.4558 188.016 34.0711C188.091 33.689 187.837 33.2482 187.42 33.0507C187.313 33.0026 187.21 32.9751 187.111 32.9669ZM198.33 33.0165C197.958 32.9662 197.686 33.1539 197.643 33.5419C197.604 34.0721 198.011 34.7186 198.582 35.0305C199.16 35.3242 199.626 35.1471 199.67 34.6117C199.696 34.0841 199.288 33.45 198.731 33.1459C198.59 33.0744 198.454 33.0332 198.33 33.0165ZM192.971 33.1459C192.688 33.1165 192.472 33.2591 192.421 33.5418C192.366 33.9213 192.644 34.3795 193.066 34.5927C193.485 34.7928 193.847 34.6498 193.91 34.2729C193.959 33.8882 193.681 33.444 193.272 33.2335C193.167 33.1847 193.065 33.1556 192.971 33.1459ZM166.532 33.5038C166.227 33.5056 165.938 33.6576 165.792 33.915C165.612 34.2659 165.782 34.6539 166.189 34.8021C166.6 34.9424 167.053 34.776 167.238 34.4252C167.413 34.0743 167.239 33.7052 166.838 33.5571C166.737 33.5226 166.634 33.503 166.532 33.5038ZM203.323 33.816C203.244 33.8458 203.197 33.9199 203.193 34.033C203.193 34.2669 203.382 34.5551 203.624 34.6955C203.869 34.8306 204.054 34.7581 204.06 34.5241C204.06 34.2928 203.872 34.0122 203.632 33.8693C203.51 33.803 203.401 33.786 203.323 33.816ZM189.737 34.0787C189.347 34.0483 189.033 34.2524 188.947 34.6422C188.845 35.1698 189.206 35.7956 189.779 36.0737C190.36 36.3388 190.871 36.1318 190.978 35.6016C191.064 35.074 190.706 34.4672 190.146 34.1891C190.004 34.1253 189.867 34.0888 189.737 34.0787ZM207.885 34.2157C207.642 34.1666 207.482 34.3003 207.488 34.585C207.505 34.9723 207.825 35.4613 208.213 35.7082C208.604 35.9447 208.886 35.8304 208.873 35.4379C208.847 35.048 208.535 34.5653 208.152 34.3261C208.055 34.2682 207.965 34.2321 207.885 34.2157ZM200.8 34.4175C200.473 34.3705 200.241 34.5462 200.216 34.9049C200.195 35.3857 200.564 35.9808 201.075 36.2641C201.583 36.5344 201.98 36.3693 202.006 35.8833C202.014 35.3973 201.646 34.8149 201.151 34.5394C201.026 34.4731 200.908 34.4331 200.8 34.4175ZM168.933 34.4707C168.62 34.4629 168.333 34.6165 168.208 34.8934C168.054 35.2728 168.255 35.6989 168.685 35.8756C169.12 36.0394 169.569 35.8768 169.731 35.5025C169.88 35.1256 169.67 34.7058 169.25 34.5317C169.145 34.4913 169.038 34.4731 168.933 34.4707ZM195.456 34.6649C195.348 34.7058 195.275 34.8025 195.253 34.9428C195.227 35.2261 195.433 35.566 195.738 35.7271C196.04 35.8753 196.301 35.7743 196.337 35.4911C196.361 35.2026 196.156 34.8703 195.856 34.7144C195.705 34.6389 195.563 34.624 195.456 34.6649ZM205.678 35.1675C205.603 35.1977 205.56 35.2751 205.56 35.3921C205.56 35.6286 205.753 35.923 205.987 36.066C206.23 36.2089 206.405 36.1338 206.407 35.8946C206.4 35.6555 206.214 35.3675 205.98 35.2246C205.859 35.1557 205.753 35.1372 205.678 35.1675ZM198.17 35.6053C197.838 35.5655 197.592 35.7492 197.551 36.1117C197.515 36.6081 197.873 37.1954 198.383 37.4709C198.897 37.7334 199.316 37.5535 199.361 37.0597C199.387 36.5685 199.025 35.9898 198.525 35.7195C198.399 35.6552 198.28 35.6186 198.17 35.6053ZM192.406 35.617C192.128 35.593 191.911 35.7435 191.856 36.032C191.799 36.4271 192.07 36.8889 192.482 37.0942C192.901 37.2892 193.257 37.1391 193.322 36.744C193.374 36.3541 193.106 35.9009 192.699 35.7008C192.597 35.652 192.498 35.625 192.406 35.617ZM210.11 35.6626C209.897 35.6166 209.764 35.7402 209.774 36.0053C209.8 36.364 210.084 36.8172 210.431 37.0485C210.777 37.2694 211.018 37.1688 210.999 36.8048C210.971 36.4435 210.688 35.9889 210.347 35.7654C210.261 35.7114 210.181 35.6778 210.11 35.6626ZM186.706 35.7349C186.428 35.7193 186.199 35.8692 186.122 36.1461C186.034 36.5256 186.271 36.9617 186.672 37.1437C187.076 37.3205 187.454 37.1665 187.542 36.7896C187.623 36.4127 187.39 35.9944 186.996 35.8073C186.896 35.7638 186.799 35.74 186.706 35.7349ZM203.35 36.07C203.129 36.0357 202.972 36.1591 202.96 36.4165C202.954 36.7569 203.224 37.182 203.571 37.3873C203.918 37.5823 204.185 37.4678 204.193 37.117C204.191 36.7739 203.928 36.3551 203.586 36.1576C203.501 36.1094 203.423 36.0815 203.35 36.07ZM165.57 36.0928C165.284 36.0967 165.009 36.2487 164.868 36.5002C164.688 36.8433 164.829 37.2127 165.204 37.353C165.582 37.4856 166.011 37.3177 166.196 36.9799C166.371 36.6368 166.223 36.2788 165.853 36.1385C165.759 36.1059 165.666 36.0912 165.57 36.0928ZM207.953 36.5078C207.875 36.5413 207.83 36.6265 207.831 36.7591C207.845 37.0294 208.049 37.367 208.304 37.5281C208.562 37.6894 208.751 37.6016 208.743 37.334C208.73 37.0637 208.523 36.7337 208.27 36.5725C208.142 36.4932 208.032 36.4743 207.953 36.5078ZM189.207 36.8314C188.827 36.8088 188.52 37.0238 188.428 37.4216C188.321 37.9622 188.672 38.5854 189.23 38.8531C189.792 39.1052 190.298 38.8798 190.405 38.3391C190.502 37.8011 190.152 37.1967 189.607 36.9342C189.47 36.8718 189.333 36.8388 189.207 36.8314ZM200.716 36.8846C200.358 36.8394 200.104 37.0445 200.071 37.4557C200.045 38.0093 200.451 38.6806 201.006 38.9977C201.566 39.294 202.005 39.0971 202.036 38.5332C202.046 37.9796 201.647 37.3208 201.105 37.0141C200.968 36.9414 200.835 36.8996 200.716 36.8846ZM212.244 37.3529C212.18 37.3816 212.144 37.458 212.152 37.5776C212.176 37.8167 212.36 38.1222 212.576 38.2781C212.797 38.4263 212.948 38.3561 212.935 38.1144C212.909 37.8727 212.723 37.571 212.507 37.4176C212.399 37.3449 212.307 37.3243 212.244 37.3529ZM162.944 37.6461C162.616 37.5422 162.229 37.68 162.055 37.9659C161.888 38.2648 162.015 38.575 162.348 38.6893C162.685 38.7985 163.066 38.6517 163.238 38.3581C163.397 38.0618 163.272 37.7605 162.944 37.6461ZM210.175 37.8936C210.092 37.9306 210.044 38.0259 210.049 38.1753C210.072 38.4794 210.297 38.8627 210.576 39.0472C210.849 39.2291 211.047 39.1369 211.034 38.8302C211.005 38.5261 210.784 38.1505 210.511 37.9659C210.374 37.8788 210.257 37.8565 210.175 37.8936ZM203.208 38.3466C202.895 38.3036 202.676 38.4921 202.659 38.8683C202.653 39.3803 203.017 39.9935 203.51 40.2846C204.005 40.5601 204.381 40.3867 204.392 39.8696C204.39 39.3602 204.028 38.7518 203.548 38.4685C203.426 38.4008 203.313 38.3611 203.208 38.3466ZM191.886 38.3771C191.626 38.3615 191.422 38.5151 191.367 38.7997C191.31 39.1843 191.564 39.6291 191.947 39.8162C192.336 39.993 192.676 39.8392 192.741 39.4545C192.794 39.0725 192.542 38.6403 192.161 38.4532C192.066 38.4084 191.973 38.3825 191.886 38.3771ZM197.818 38.6131C197.712 38.6609 197.641 38.7656 197.624 38.9215C197.6 39.2308 197.815 39.5978 198.12 39.7667C198.433 39.9201 198.684 39.8046 198.715 39.4926C198.733 39.1807 198.515 38.8149 198.215 38.6512C198.063 38.5746 197.925 38.5654 197.818 38.6131ZM186.172 38.7311C185.912 38.7233 185.697 38.8769 185.622 39.1499C185.534 39.5241 185.747 39.9442 186.122 40.1131C186.503 40.2743 186.857 40.1092 186.951 39.7438C187.031 39.3747 186.813 38.9635 186.443 38.792C186.351 38.7524 186.258 38.7334 186.172 38.7311ZM212.358 39.4392C212.294 39.4704 212.259 39.5556 212.267 39.6829C212.288 39.9376 212.475 40.263 212.694 40.4215C212.913 40.5749 213.069 40.4987 213.053 40.2388C213.032 39.9841 212.848 39.6638 212.629 39.5078C212.519 39.4299 212.423 39.408 212.358 39.4392ZM200.54 39.5306C200.206 39.4944 199.964 39.7002 199.933 40.0979C199.907 40.636 200.284 41.2803 200.8 41.5714C201.321 41.8495 201.729 41.6462 201.765 41.1031C201.779 40.5625 201.405 39.932 200.899 39.6487C200.771 39.5804 200.651 39.5427 200.54 39.5306ZM188.672 39.7972C188.338 39.7855 188.069 39.9886 187.985 40.353C187.889 40.8469 188.181 41.4036 188.668 41.6323C189.158 41.8428 189.602 41.6324 189.707 41.1412C189.793 40.6499 189.495 40.1071 189.023 39.8809C188.903 39.8277 188.784 39.8009 188.672 39.7972ZM203.201 40.9165C202.842 40.8719 202.591 41.1058 202.567 41.5561C202.557 42.1643 202.976 42.8935 203.537 43.2314C204.102 43.5537 204.536 43.3257 204.552 42.7098C204.552 42.0964 204.132 41.3849 203.59 41.0574C203.451 40.9788 203.32 40.9315 203.201 40.9165ZM214.611 41.1107C214.555 41.1393 214.526 41.2158 214.534 41.3353C214.558 41.577 214.723 41.8799 214.916 42.0359C215.114 42.1866 215.247 42.1138 215.229 41.8721C215.205 41.6304 215.034 41.3261 214.843 41.1754C214.747 41.1026 214.666 41.082 214.611 41.1107ZM191.264 41.1374C191.019 41.1276 190.825 41.283 190.772 41.5638C190.714 41.9433 190.943 42.3643 191.302 42.5385C191.667 42.7048 191.989 42.5424 192.054 42.1654C192.109 41.7911 191.877 41.3762 191.52 41.2021C191.431 41.1618 191.346 41.1403 191.264 41.1374ZM185.611 42.1339C185.363 42.1336 185.154 42.2892 185.084 42.5603C184.998 42.9294 185.19 43.3307 185.542 43.4893C185.894 43.6374 186.235 43.4647 186.328 43.1009C186.412 42.7344 186.214 42.3431 185.87 42.1872C185.783 42.1501 185.693 42.1339 185.611 42.1339ZM205.743 42.7545C205.49 42.7192 205.316 42.8931 205.312 43.2304C205.314 43.68 205.624 44.2283 206.018 44.483C206.419 44.7273 206.718 44.5635 206.72 44.1061C206.71 43.6512 206.409 43.1106 206.018 42.8611C205.92 42.8012 205.827 42.7662 205.743 42.7545ZM200.548 42.8307C200.344 42.8131 200.197 42.9484 200.177 43.2038C200.164 43.5443 200.387 43.9394 200.697 44.1214C201.012 44.2851 201.26 44.1522 201.281 43.8092C201.296 43.4687 201.074 43.0746 200.769 42.903C200.692 42.8615 200.616 42.8367 200.548 42.8307ZM188.008 43.1353C187.682 43.1343 187.417 43.3512 187.329 43.7216C187.227 44.2284 187.508 44.7813 187.978 44.997C188.452 45.1998 188.891 44.9657 189.001 44.464C189.087 43.9624 188.808 43.4219 188.352 43.2114C188.234 43.1607 188.117 43.1357 188.008 43.1353ZM203.09 43.9729C202.79 43.9415 202.579 44.1503 202.556 44.544C202.548 45.0768 202.897 45.7036 203.361 45.987C203.833 46.2573 204.198 46.0554 204.216 45.5149C204.222 44.982 203.871 44.36 203.415 44.0871C203.299 44.0214 203.19 43.9834 203.09 43.9729ZM190.527 44.4031C190.298 44.4014 190.116 44.5604 190.062 44.8371C190.004 45.2088 190.214 45.6164 190.55 45.7776C190.892 45.931 191.199 45.7569 191.264 45.393C191.319 45.0213 191.105 44.6162 190.772 44.4602C190.688 44.4226 190.604 44.4037 190.527 44.4031ZM205.617 45.5986C205.311 45.5602 205.104 45.7828 205.094 46.2078C205.1 46.7822 205.47 47.4695 205.949 47.784C206.434 48.0803 206.791 47.8686 206.797 47.2891C206.787 46.7095 206.422 46.0296 205.953 45.7281C205.833 45.6553 205.719 45.6115 205.617 45.5986ZM187.268 46.8855C186.976 46.8972 186.729 47.1076 186.649 47.4604C186.55 47.9386 186.792 48.4497 187.214 48.6369C187.636 48.8059 188.031 48.5745 188.138 48.0962C188.224 47.6206 187.981 47.1271 187.569 46.9426C187.465 46.8997 187.365 46.8818 187.268 46.8855ZM203.067 47.2015C202.842 47.1816 202.682 47.3503 202.666 47.6622C202.659 48.0781 202.916 48.5596 203.266 48.7701C203.615 48.9755 203.885 48.8105 203.903 48.3894C203.909 47.9735 203.65 47.4906 203.311 47.2853C203.224 47.236 203.142 47.2081 203.067 47.2015ZM205.678 48.7549C205.397 48.7235 205.201 48.9413 205.19 49.3565C205.19 49.9101 205.53 50.5691 205.976 50.868C206.421 51.1487 206.751 50.9358 206.758 50.3692C206.753 49.8078 206.419 49.1576 205.984 48.8691C205.874 48.8009 205.772 48.7654 205.678 48.7549ZM186.531 50.6928C186.28 50.7156 186.069 50.9175 185.993 51.2411C185.899 51.6752 186.095 52.1221 186.454 52.2729C186.817 52.4107 187.158 52.184 187.26 51.7551C187.341 51.3236 187.139 50.8843 186.79 50.7309C186.702 50.6964 186.614 50.6852 186.531 50.6928ZM207.991 50.8566C207.735 50.8207 207.566 51.0262 207.564 51.4277C207.578 51.9683 207.894 52.6162 208.301 52.9126C208.71 53.1985 209.012 53.0055 209.007 52.4519C208.989 51.9035 208.67 51.2631 208.274 50.9746C208.173 50.9064 208.077 50.8685 207.991 50.8566ZM205.594 52.0026C205.393 51.9831 205.253 52.1533 205.243 52.4671C205.243 52.8856 205.484 53.3695 205.796 53.5826C206.114 53.7854 206.357 53.623 206.365 53.2019C206.363 52.7809 206.128 52.2943 205.816 52.0864C205.737 52.0371 205.661 52.009 205.594 52.0026ZM207.652 54.1309C207.425 54.1005 207.272 54.2991 207.27 54.6716C207.278 55.1758 207.563 55.7745 207.915 56.0422C208.277 56.3021 208.533 56.1137 208.533 55.6043C208.52 55.0975 208.244 54.5026 207.9 54.2375C207.81 54.1745 207.727 54.141 207.652 54.1309ZM209.087 57.6146C208.906 57.5826 208.791 57.7626 208.793 58.1058C208.807 58.5762 209.04 59.1315 209.324 59.3888C209.615 59.6332 209.823 59.4686 209.812 58.9929C209.797 58.5251 209.571 57.9669 209.289 57.7174C209.217 57.6576 209.147 57.6251 209.087 57.6146Z" fill="white"/>
<defs>
<radialGradient id="paint0_radial_675_868" cx="0" cy="0" r="1" gradientUnits="userSpaceOnUse" gradientTransform="translate(132.114 77.5564) rotate(-41.2028) scale(114.273 114.234)">
<stop stop-color="#73C52A"/>
<stop offset="0.29" stop-color="#73C52A"/>
<stop offset="0.44" stop-color="#58BD33"/>
<stop offset="0.685" stop-color="#099744"/>
<stop offset="0.705" stop-color="#1D5EB3"/>
<stop offset="0.9" stop-color="#0EA6E8"/>
<stop offset="1" stop-color="#0BAEEE"/>
</radialGradient>
</defs>
</svg>
