<svg width="221" height="48" viewBox="0 0 221 48" fill="none" xmlns="http://www.w3.org/2000/svg">
<path d="M220.666 21.7619V17.8902H215.861V11.8711L215.699 11.9209L211.186 13.3025L211.098 13.3296V17.8902H203.975V15.3498C203.975 14.1668 204.239 13.2615 204.76 12.6577C205.278 12.0611 206.018 11.7579 206.961 11.7579C207.64 11.7579 208.342 11.9179 209.049 12.2334L209.226 12.3124V8.23498L209.143 8.20437C208.484 7.96718 207.586 7.84766 206.475 7.84766C205.073 7.84766 203.8 8.15273 202.689 8.75754C201.578 9.36316 200.704 10.2278 200.092 11.3272C199.482 12.4253 199.172 13.6935 199.172 15.0969V17.8902H195.827V21.7619H199.172V38.0725H203.975V21.7619H211.098V32.1271C211.098 36.396 213.11 38.5594 217.078 38.5594C217.73 38.5594 218.416 38.4827 219.117 38.3329C219.831 38.1793 220.316 38.0257 220.602 37.8617L220.666 37.8244V33.9168L220.47 34.0462C220.21 34.2203 219.885 34.3622 219.504 34.4676C219.122 34.5751 218.803 34.6292 218.556 34.6292C217.626 34.6292 216.938 34.3784 216.511 33.8838C216.08 33.3847 215.861 32.5115 215.861 31.2904V21.7619H220.666ZM185.101 34.6295C183.358 34.6295 181.984 34.0511 181.015 32.9117C180.041 31.7665 179.547 30.1339 179.547 28.0596C179.547 25.9196 180.041 24.2446 181.016 23.0792C181.985 21.9215 183.346 21.334 185.062 21.334C186.727 21.334 188.053 21.8951 189.002 23.0028C189.957 24.1161 190.441 25.7777 190.441 27.9427C190.441 30.1344 189.986 31.8179 189.088 32.9439C188.196 34.0617 186.855 34.6295 185.101 34.6295ZM185.315 17.404C181.989 17.404 179.348 18.3791 177.464 20.3024C175.582 22.226 174.628 24.8878 174.628 28.2148C174.628 31.3747 175.559 33.9164 177.397 35.7681C179.234 37.6206 181.735 38.559 184.829 38.559C188.052 38.559 190.641 37.5703 192.524 35.6203C194.406 33.6723 195.36 31.0358 195.36 27.7865C195.36 24.5771 194.465 22.0165 192.699 20.177C190.933 18.3368 188.448 17.404 185.315 17.404ZM166.884 17.4039C164.622 17.4039 162.751 17.9829 161.321 19.1246C159.883 20.273 159.154 21.7795 159.154 23.6022C159.154 24.5496 159.311 25.3913 159.621 26.105C159.933 26.8214 160.415 27.4518 161.056 27.981C161.693 28.5059 162.674 29.0559 163.976 29.6152C165.069 30.0656 165.885 30.4468 166.403 30.7471C166.91 31.0413 167.27 31.3373 167.473 31.6253C167.67 31.9072 167.77 32.2929 167.77 32.7695C167.77 34.1252 166.755 34.7849 164.667 34.7849C163.893 34.7849 163.009 34.6233 162.042 34.3041C161.073 33.9855 160.169 33.5273 159.353 32.9398L159.154 32.7969V37.4238L159.227 37.4579C159.907 37.7717 160.763 38.0363 161.773 38.2447C162.781 38.4532 163.697 38.5594 164.492 38.5594C166.947 38.5594 168.924 37.9775 170.366 36.8291C171.818 35.6727 172.554 34.1308 172.554 32.2448C172.554 30.8845 172.158 29.7177 171.377 28.7769C170.602 27.8436 169.256 26.987 167.379 26.2296C165.884 25.6291 164.926 25.1305 164.531 24.7479C164.15 24.3782 163.957 23.8553 163.957 23.1933C163.957 22.6063 164.195 22.1362 164.685 21.7552C165.179 21.3724 165.867 21.1778 166.729 21.1778C167.529 21.1778 168.348 21.3043 169.162 21.5521C169.976 21.8 170.691 22.1319 171.287 22.5382L171.483 22.6723V18.2831L171.408 18.2507C170.858 18.0145 170.132 17.8125 169.251 17.6485C168.373 17.4861 167.577 17.4039 166.884 17.4039ZM146.633 34.6295C144.89 34.6295 143.516 34.0511 142.547 32.9117C141.573 31.7665 141.08 30.1344 141.08 28.0596C141.08 25.9196 141.573 24.2446 142.548 23.0792C143.517 21.9215 144.878 21.334 146.595 21.334C148.259 21.334 149.585 21.8951 150.535 23.0028C151.489 24.1161 151.973 25.7777 151.973 27.9427C151.973 30.1344 151.518 31.8179 150.619 32.9439C149.728 34.0617 148.387 34.6295 146.633 34.6295ZM146.848 17.404C143.521 17.404 140.879 18.3791 138.997 20.3024C137.115 22.226 136.16 24.8878 136.16 28.2148C136.16 31.376 137.092 33.9164 138.929 35.7681C140.767 37.6206 143.267 38.559 146.361 38.559C149.584 38.559 152.174 37.5703 154.056 35.6203C155.938 33.6723 156.893 31.0358 156.893 27.7865C156.893 24.5771 155.997 22.0165 154.231 20.177C152.464 18.3368 149.98 17.404 146.848 17.404ZM128.869 21.3852V17.8902H124.125V38.072H128.869V27.7483C128.869 25.9927 129.267 24.5507 130.052 23.4613C130.827 22.3851 131.859 21.8396 133.12 21.8396C133.547 21.8396 134.027 21.9102 134.546 22.0497C135.061 22.1884 135.433 22.3388 135.653 22.4972L135.852 22.6417V17.8556L135.775 17.8226C135.333 17.6347 134.709 17.5399 133.918 17.5399C132.726 17.5399 131.659 17.9232 130.745 18.6779C129.943 19.3413 129.363 20.2509 128.92 21.3852H128.869ZM115.629 17.4039C113.453 17.4039 111.511 17.8711 109.86 18.7916C108.205 19.7143 106.926 21.0317 106.055 22.7069C105.188 24.3782 104.748 26.3302 104.748 28.507C104.748 30.4138 105.175 32.1638 106.018 33.706C106.862 35.2507 108.057 36.4593 109.568 37.2976C111.078 38.1348 112.823 38.5594 114.755 38.5594C117.009 38.5594 118.934 38.1082 120.478 37.2188L120.54 37.1829V32.8336L120.341 32.9792C119.642 33.4887 118.86 33.8955 118.02 34.1886C117.181 34.4814 116.417 34.6294 115.747 34.6294C113.885 34.6294 112.391 34.0464 111.306 32.8975C110.219 31.7467 109.667 30.1311 109.667 28.0978C109.667 26.0518 110.242 24.3947 111.375 23.1717C112.505 21.9525 114.002 21.3341 115.825 21.3341C117.384 21.3341 118.904 21.8625 120.341 22.906L120.54 23.0506V18.4679L120.476 18.4317C119.935 18.1287 119.197 17.8785 118.281 17.6887C117.369 17.4994 116.477 17.4039 115.629 17.4039ZM101.481 17.8903H96.7366V38.072H101.481V17.8903ZM99.1572 9.29267C98.3764 9.29267 97.6954 9.55861 97.1359 10.0857C96.5741 10.6144 96.2889 11.2799 96.2889 12.0652C96.2889 12.8382 96.5706 13.4915 97.1269 14.0061C97.6797 14.5191 98.3628 14.7791 99.1572 14.7791C99.9513 14.7791 100.637 14.5191 101.197 14.0069C101.76 13.4915 102.045 12.8382 102.045 12.0652C102.045 11.3073 101.767 10.6484 101.22 10.107C100.673 9.56659 99.9787 9.29267 99.1572 9.29267ZM87.3202 16.4013V38.0719H92.1619V9.91069H85.461L76.9435 30.828L68.6779 9.91069H61.7041V38.0719H66.2539V16.3992H66.4103L75.1385 38.0719H78.5721L87.1641 16.4013H87.3202Z" fill="white"/>
<path d="M22.9837 22.833H0.666016V0.5H22.9837V22.833Z" fill="#F1511B"/>
<path d="M47.6251 22.833H25.3076V0.5H47.6251V22.833Z" fill="#80CC28"/>
<path d="M22.9832 47.5H0.666016V25.167H22.9832V47.5Z" fill="#00ADEF"/>
<path d="M47.6251 47.5H25.3076V25.167H47.6251V47.5Z" fill="#FBBC09"/>
</svg>
