<svg width="221" height="66" viewBox="0 0 221 66" fill="none" xmlns="http://www.w3.org/2000/svg">
<g clip-path="url(#clip0_675_858)">
<path d="M136.786 51.5612C124.017 60.9163 105.509 65.9076 89.5733 65.9076C67.2294 65.9076 47.1142 57.6933 31.8963 44.0315C30.7006 42.9572 31.7719 41.4931 33.2067 42.3297C49.6298 51.8274 69.9364 57.5412 90.9124 57.5412C105.059 57.5412 120.621 54.632 134.931 48.5949C137.092 47.6822 138.9 50.002 136.786 51.5612Z" fill="#FF9900"/>
<path d="M142.095 45.5242C140.469 43.4517 131.306 44.545 127.193 45.0299C125.94 45.182 125.749 44.0982 126.877 43.3186C134.175 38.2132 146.151 39.6868 147.547 41.3981C148.944 43.1189 147.184 55.0505 140.326 60.7453C139.273 61.6199 138.269 61.1541 138.738 59.9942C140.278 56.1723 143.731 47.6063 142.095 45.5242Z" fill="#FF9900"/>
<path d="M127.479 7.27679V2.31403C127.479 1.56296 128.053 1.05908 128.742 1.05908H151.095C151.813 1.05908 152.386 1.57247 152.386 2.31403V6.56375C152.377 7.27679 151.774 8.2085 150.703 9.68212L139.12 26.1201C143.424 26.0155 147.967 26.6525 151.87 28.8391C152.75 29.3335 152.989 30.0561 153.056 30.7691V36.0646C153.056 36.7872 152.253 37.6333 151.411 37.196C144.534 33.6118 135.399 33.222 127.795 37.234C127.02 37.6523 126.207 36.8157 126.207 36.0931V31.0638C126.207 30.2557 126.217 28.8772 127.03 27.6507L140.449 8.52224H128.77C128.053 8.52224 127.479 8.01836 127.479 7.27679Z" fill="white"/>
<path d="M45.9383 38.2415H39.1376C38.4872 38.194 37.9707 37.7091 37.9229 37.0912V2.39938C37.9229 1.70535 38.5063 1.15393 39.2333 1.15393H45.5749C46.2349 1.18243 46.7609 1.68633 46.8088 2.31381V6.84875H46.9331C48.5878 2.46592 51.6965 0.421875 55.886 0.421875C60.1424 0.421875 62.8015 2.46592 64.7145 6.84875C66.3596 2.46592 70.0996 0.421875 74.1073 0.421875C76.9577 0.421875 80.0759 1.59126 81.9793 4.21525C84.1315 7.13396 83.6915 11.3742 83.6915 15.0915L83.6819 36.9866C83.6819 37.6806 83.0984 38.2415 82.3715 38.2415H75.5803C74.9012 38.194 74.356 37.6521 74.356 36.9866V18.5997C74.356 17.1355 74.4899 13.4848 74.1647 12.0967C73.6578 9.76746 72.1369 9.11146 70.1665 9.11146C68.5213 9.11146 66.7996 10.2048 66.1014 11.9541C65.4031 13.7034 65.4701 16.6317 65.4701 18.5997V36.9866C65.4701 37.6806 64.8866 38.2415 64.1597 38.2415H57.3685C56.6799 38.194 56.1442 37.6521 56.1442 36.9866L56.1346 18.5997C56.1346 14.7302 56.7755 9.0354 51.9452 9.0354C47.0574 9.0354 47.2487 14.5876 47.2487 18.5997V36.9866C47.2487 37.6806 46.6653 38.2415 45.9383 38.2415Z" fill="white"/>
<path d="M171.632 0.421875C181.723 0.421875 187.185 9.0354 187.185 19.9877C187.185 30.5692 181.149 38.9641 171.632 38.9641C161.723 38.9641 156.328 30.3506 156.328 19.6169C156.328 8.81674 161.79 0.421875 171.632 0.421875ZM171.69 7.50475C166.677 7.50475 166.362 14.2929 166.362 18.5236C166.362 22.7638 166.295 31.8147 171.632 31.8147C176.902 31.8147 177.151 24.5131 177.151 20.0638C177.151 17.1355 177.027 13.6369 176.137 10.8608C175.372 8.44596 173.851 7.50475 171.69 7.50475Z" fill="white"/>
<path d="M200.27 38.2415H193.498C192.818 38.194 192.273 37.6521 192.273 36.9866L192.264 2.28529C192.321 1.6483 192.885 1.15393 193.574 1.15393H199.877C200.47 1.18243 200.958 1.58176 201.092 2.12367V7.42869H201.217C203.12 2.68459 205.789 0.421875 210.485 0.421875C213.536 0.421875 216.511 1.5152 218.424 4.50997C220.203 7.28608 220.203 11.9541 220.203 15.3102V37.1482C220.127 37.7567 219.562 38.2415 218.893 38.2415H212.073C211.451 38.194 210.935 37.7377 210.868 37.1482V18.3049C210.868 14.5116 211.308 8.95934 206.611 8.95934C204.956 8.95934 203.436 10.0622 202.68 11.7354C201.723 13.8556 201.599 15.9662 201.599 18.3049V36.9866C201.59 37.6806 200.997 38.2415 200.27 38.2415Z" fill="white"/>
<path d="M109.66 21.6705V20.2064C104.743 20.2064 99.5496 21.2522 99.5496 27.0135C99.5496 29.9322 101.07 31.9097 103.682 31.9097C105.595 31.9097 107.307 30.7404 108.388 28.8389C109.727 26.5001 109.66 24.304 109.66 21.6705ZM116.518 38.1465C116.068 38.5458 115.418 38.5743 114.911 38.3081C112.654 36.4447 112.252 35.5795 111.008 33.8017C107.278 37.5855 104.638 38.7169 99.7983 38.7169C94.0784 38.7169 89.6211 35.2087 89.6211 28.1829C89.6211 22.6973 92.6149 18.9609 96.8714 17.1355C100.563 15.5193 105.719 15.2341 109.66 14.7873V13.9126C109.66 12.3059 109.784 10.4044 108.837 9.01638C108.005 7.77093 106.417 7.25754 105.021 7.25754C102.429 7.25754 100.114 8.57905 99.5496 11.3171C99.4348 11.9256 98.9852 12.5245 98.3731 12.5531L91.7732 11.8495C91.2185 11.7259 90.6063 11.2791 90.7593 10.433C92.2802 2.48493 99.5018 0.0891113 105.968 0.0891113C109.277 0.0891113 113.601 0.963774 116.212 3.45466C119.521 6.52549 119.206 10.6231 119.206 15.082V25.616C119.206 28.7819 120.526 30.1699 121.769 31.8812C122.209 32.4897 122.305 33.2217 121.75 33.6781C120.363 34.8284 117.895 36.9676 116.537 38.1655L116.518 38.1465Z" fill="white"/>
<path d="M20.5045 21.6705V20.2064C15.5881 20.2064 10.3943 21.2522 10.3943 27.0135C10.3943 29.9322 11.9151 31.9097 14.5264 31.9097C16.4394 31.9097 18.1515 30.7404 19.2324 28.8389C20.5715 26.5001 20.5045 24.304 20.5045 21.6705ZM27.3626 38.1465C26.9131 38.5458 26.2627 38.5743 25.7557 38.3081C23.4984 36.4447 23.0966 35.5795 21.8532 33.8017C18.1228 37.5855 15.4829 38.7169 10.643 38.7169C4.92311 38.7169 0.46582 35.2087 0.46582 28.1829C0.46582 22.6973 3.45967 18.9609 7.7161 17.1355C11.4082 15.5193 16.5637 15.2341 20.5045 14.7873V13.9126C20.5045 12.3059 20.6289 10.4044 19.6819 9.01638C18.8498 7.77093 17.262 7.25754 15.8655 7.25754C13.2734 7.25754 10.9586 8.57905 10.3943 11.3171C10.2795 11.9256 9.82997 12.5245 9.21781 12.5531L2.61795 11.8495C2.06318 11.7259 1.45102 11.2791 1.60406 10.433C3.12489 2.48493 10.3465 0.0891113 16.8124 0.0891113C20.1219 0.0891113 24.4453 0.963774 27.0566 3.45466C30.3661 6.52549 30.0504 10.6231 30.0504 15.082V25.616C30.0504 28.7819 31.3704 30.1699 32.6138 31.8812C33.0538 32.4897 33.1495 33.2217 32.5947 33.6781C31.2078 34.8284 28.74 36.9676 27.3818 38.1655L27.3626 38.1465Z" fill="white"/>
</g>
<defs>
<clipPath id="clip0_675_858">
<rect width="220" height="66" fill="white" transform="translate(0.333008)"/>
</clipPath>
</defs>
</svg>
