<svg width="220" height="84" viewBox="0 0 220 84" fill="none" xmlns="http://www.w3.org/2000/svg">
<path fill-rule="evenodd" clip-rule="evenodd" d="M104.045 65.6605V41.038L117.468 41.0331C123.001 41.0363 127.652 39.311 131.42 35.8565C135.227 32.5778 137.356 27.8641 137.248 22.9511C137.323 18.065 135.198 13.3862 131.42 10.1178C127.685 6.64477 122.663 4.74969 117.468 4.85394H95.9219V65.6605H104.045ZM104.045 33.5662V12.3404L117.67 12.3355C120.706 12.2531 123.633 13.4282 125.708 15.5618C127.795 17.5131 128.973 20.1931 128.973 22.9921C128.973 25.791 127.795 28.4716 125.708 30.4223C123.607 32.5112 120.69 33.6525 117.67 33.5662H104.045Z" fill="white"/>
<path fill-rule="evenodd" clip-rule="evenodd" d="M170.187 27.3273C166.712 24.2412 161.973 22.6987 155.968 22.6987C148.254 22.6987 142.429 25.4153 138.493 30.8495L145.649 35.1822C148.293 31.5012 151.884 29.6607 156.422 29.6607C159.315 29.6285 162.115 30.6453 164.263 32.5087C166.405 34.2117 167.637 36.7503 167.619 39.4226V41.208C164.497 39.51 160.524 38.6607 155.7 38.6607C150.049 38.6672 145.531 39.9417 142.147 42.4842C138.763 45.026 137.071 48.45 137.071 52.7548C136.997 56.6749 138.766 60.4182 141.885 62.9437C145.093 65.6608 149.082 67.0193 153.848 67.0193C159.433 67.0193 163.906 64.6417 167.271 59.8871H167.624V65.6608H175.394V40.0192C175.398 34.6435 173.662 30.4128 170.187 27.3273ZM148.152 58.0193C146.45 56.8398 145.446 54.9419 145.457 52.9246C145.457 50.6589 146.562 48.772 148.787 47.2191C150.991 45.6892 153.742 44.9245 157.042 44.9245C161.574 44.9245 165.106 45.8944 167.639 47.8354C167.639 51.1152 166.293 53.9726 163.602 56.4086C161.178 58.7392 157.892 60.0514 154.464 60.0568C152.179 60.0978 149.948 59.3784 148.152 58.0193Z" fill="white"/>
<path fill-rule="evenodd" clip-rule="evenodd" d="M220 24.0569L192.873 83.9999H184.486L194.553 63.0257L176.716 24.0569H185.546L198.438 53.9433H198.615L211.154 24.0569H220Z" fill="white"/>
<path fill-rule="evenodd" clip-rule="evenodd" d="M71.2164 35.7307C71.2197 33.3504 71.0102 30.9739 70.5911 28.6279H36.3291V42.0818H55.9527C55.1415 46.4238 52.5201 50.2588 48.6965 52.6975V61.4306H60.4083C67.2658 55.3513 71.2164 46.3611 71.2164 35.7307Z" fill="#4285F4"/>
<path fill-rule="evenodd" clip-rule="evenodd" d="M36.3285 69.8669C46.1329 69.8669 54.3879 66.771 60.4077 61.4345L48.6959 52.7014C45.4366 54.8263 41.2384 56.0391 36.3285 56.0391C26.8525 56.0391 18.8092 49.897 15.9332 41.6196H3.86816V50.6197C10.035 62.4192 22.5949 69.8658 36.3285 69.8669Z" fill="#34A853"/>
<path fill-rule="evenodd" clip-rule="evenodd" d="M15.9336 41.6203C14.4128 37.2832 14.4128 32.5859 15.9336 28.2488V19.2488H3.86854C-1.28951 29.1178 -1.28951 40.7514 3.86854 50.6203L15.9336 41.6203Z" fill="#FBBC04"/>
<path fill-rule="evenodd" clip-rule="evenodd" d="M36.3285 13.8301C41.5095 13.7482 46.5157 15.6307 50.2656 19.07L60.6349 9.09946C54.0596 3.16148 45.3486 -0.0986992 36.3285 0.00227749C22.5949 0.00282331 10.035 7.44999 3.86816 19.249L15.9332 28.249C18.8092 19.9722 26.8525 13.8301 36.3285 13.8301Z" fill="#EA4335"/>
</svg>
