<svg width="221" height="110" viewBox="0 0 221 110" fill="none" xmlns="http://www.w3.org/2000/svg">
<path d="M169.007 50.3194C164.241 50.3176 162.967 50.4202 161.384 50.9372C159.727 51.4781 158.7 52.4589 158.246 53.9384C157.512 56.3951 157.635 61.4184 158.506 63.1601C159.139 64.4434 160.464 65.2281 162.455 65.5471C164.013 65.7964 176.792 65.7927 177.855 65.5434C180.097 65.0154 181.419 63.6587 181.734 61.5577C181.888 60.5366 181.973 60.5586 177.6 60.5971L173.805 60.6282L173.671 61.1049C173.573 61.4298 173.412 61.7321 173.196 61.9942C172.981 62.2564 172.715 62.4732 172.416 62.6321C172.027 62.8154 171.631 62.8429 169.706 62.8099C167.242 62.7677 167.114 62.7311 166.498 61.9042C166.146 61.4331 166.045 59.7042 166.351 59.3999C166.534 59.2166 167.282 59.2037 174.08 59.2716L181.786 59.1341C182.033 58.8352 181.905 54.5507 181.624 53.7954C181.139 52.4516 180.042 51.4579 178.522 50.9831C177.118 50.5431 173.917 50.3231 168.989 50.3231L169.007 50.3194ZM170.137 53.4361C171.028 53.4397 171.897 53.5222 172.219 53.6872C173.393 54.2849 174.058 55.4326 173.534 55.9551C173.363 56.1256 172.874 56.1512 170.093 56.1512C167.739 56.1512 166.807 56.1109 166.701 56.0009C166.619 55.9184 166.551 55.6067 166.551 55.3116C166.551 54.6241 167.071 53.9916 167.907 53.6689C168.329 53.5076 169.246 53.4306 170.137 53.4306V53.4361ZM106.698 65.4627C104.494 65.3344 103.722 65.2134 102.731 64.8394C101.63 64.386 100.754 63.5161 100.292 62.4194C99.9677 61.5504 99.7367 60.1644 99.7899 59.4127L99.8265 58.8627H109.151L109.224 59.6181C109.343 60.8464 109.848 61.5376 110.838 61.8327C111.124 61.9171 112.33 61.9537 114.075 61.9281C116.851 61.8877 116.858 61.8859 117.368 61.5486C118.088 61.0719 118.413 60.3441 118.413 59.2092C118.413 58.1771 118.279 57.7426 117.808 57.2512C117.208 56.6224 116.66 56.5546 110.786 56.4079L104.425 56.0834C103.11 55.8267 101.711 55.1044 101.185 54.4334C100.483 53.5094 100.355 52.8072 100.426 50.2681C100.494 47.8352 100.578 47.4136 101.183 46.5226C101.94 45.4226 103.295 44.7442 105.391 44.4692C105.952 44.3959 109.864 44.3226 114.442 44.2859L123.493 44.4821C125.18 44.8781 126.23 45.4592 126.788 46.3062C127.297 47.0836 127.565 50.1342 127.16 50.5229C126.987 50.6952 126.412 50.7209 122.765 50.7209C119.557 50.7209 118.539 50.6842 118.442 50.5632C118.373 50.4771 118.292 50.0352 118.264 49.5806C118.182 48.2129 117.604 47.6849 115.918 47.4172C114.759 47.2339 111.367 47.3714 110.486 47.6372C109.129 48.0461 108.914 48.3706 108.982 50.0114C109.032 51.1847 109.206 51.5514 109.954 52.0611C110.427 52.3837 110.828 52.4131 117.408 52.5964L123.015 52.9631C125.262 53.4764 126.828 54.5819 127.295 55.9844C127.556 56.7727 127.763 59.2019 127.662 60.3422C127.4 63.3819 126.034 64.9219 123.354 65.1951C119.87 65.5507 110.949 65.6754 106.692 65.4279L106.698 65.4627ZM131.453 65.4499C131.42 65.3637 131.408 60.6429 131.426 54.9596L131.459 44.6269L135.287 44.5939L139.287 44.7039C139.425 44.8176 139.46 45.4922 139.46 48.0406V51.2361L139.764 51.3131C139.947 51.3589 140.461 51.2544 141.055 51.0509C142.939 50.4056 148.228 50.3634 150.573 50.9776C152.504 51.4799 153.831 52.4497 154.178 53.6084C154.392 54.3417 154.39 65.2427 154.176 65.4572C154.066 65.5672 153.076 65.6076 150.421 65.6076C147.766 65.6076 146.776 65.5672 146.666 65.4572C146.556 65.3472 146.516 64.0822 146.516 60.5531V55.7992L146.142 55.4252C144.932 54.2152 141.088 54.2959 139.725 55.5572L139.441 55.8249V60.5659L139.291 65.4572C139.071 65.6772 131.521 65.6736 131.435 65.4517L131.453 65.4499ZM185.709 65.3637C185.504 64.9971 185.529 45.0559 185.735 44.7754C185.878 44.5792 186.233 44.5627 189.735 44.5921L193.578 44.6251V65.5251L189.728 65.5581C186.006 65.5892 185.854 65.5819 185.727 65.3454L185.709 65.3637ZM198.11 65.4499C198.077 65.3637 198.064 60.6429 198.082 54.9596L198.115 44.6269L201.943 44.5939L205.944 44.7039C206.182 44.9019 206.204 65.2372 205.966 65.4572C205.746 65.6772 198.196 65.6717 198.11 65.4499Z" fill="white"/>
<path d="M50.9437 89.4007C50.0197 89.2577 49.1067 88.8048 48.2047 88.044L47.6657 87.5857H38.1873C30.6835 87.5857 28.6998 87.5637 28.6687 87.4757C28.6467 87.417 28.533 86.4728 28.412 85.3783L28.1113 82.6962L27.8913 80.7492L27.6292 78.4135L27.3285 75.6892L27.1048 73.8082C27.0645 73.6102 26.0928 72.8842 21.2895 69.4632L15.2835 65.1567C15.058 64.9733 15.036 64.8872 14.8747 63.58C13.562 52.954 16.0113 43.681 22.428 34.9873C24.0102 32.8423 25.3485 31.3207 26.8225 29.9915C31.0758 26.1543 35.815 23.5327 41.3462 21.956C46.0945 20.5993 51.2462 20.2143 56.1833 20.8505C63.2838 21.7598 69.8857 24.6693 75.4755 29.3535C76.9605 30.6002 79.1202 32.8057 80.0643 34.0468C86.5507 42.5755 89.286 52.3692 88.2337 63.2793C88.186 63.7798 88.1237 64.306 88.0962 64.4472C88.054 64.6672 87.6085 65.0338 85.0198 66.9588L76.1722 73.5533L76.0713 74.47L75.3893 80.6667L74.6267 87.3822C74.6083 87.4005 70.3825 87.4372 65.2308 87.4702L55.8662 87.5288L55.3033 87.9872C53.9192 89.1238 52.3792 89.6188 50.94 89.3988L50.9437 89.4007Z" fill="#EC1B23"/>
<path d="M53.0782 83.0022C53.4632 82.8134 53.9032 82.4834 54.3652 82.0397L55.0674 81.3651L62.0891 81.3027L69.1511 81.1011C69.1731 81.0277 69.2152 80.6904 69.2427 80.3586L69.4187 78.5857L70.1594 71.4027L70.2657 70.3174L81.7057 61.9207C81.9202 61.7594 82.1824 60.0837 82.2557 58.5144C82.3144 56.8699 82.2099 55.6966 81.8891 54.3894C81.6361 53.3591 81.0751 51.8961 80.9357 51.8961C80.8807 51.8961 77.5349 55.2401 73.4961 59.3266L64.1314 68.7994L62.0689 70.6841C62.0139 70.4714 62.1972 70.2147 64.0672 67.8571L71.1329 58.9562L80.2739 47.3402C80.3197 47.1642 79.9292 45.7764 79.6322 45.0632C79.2986 44.2621 78.6056 43.0924 77.9089 42.1611C77.2856 41.3214 75.6722 39.5724 75.5989 39.6549C75.5806 39.6787 74.9646 40.7494 74.2367 42.0346L60.8057 65.6956L59.1429 68.5372C59.0732 68.6069 58.9559 68.6289 58.8459 68.5959C58.4829 68.4804 58.6186 68.0826 60.0981 64.9164L70.2657 43.0961L73.1991 36.6482C73.1991 36.3916 72.5702 35.5152 71.8919 34.8277C71.1127 34.0394 69.8477 33.0751 68.7386 32.4224C67.7614 31.8486 65.8492 30.8824 65.7961 30.9374C65.7594 30.9741 65.6127 31.5516 64.3294 36.0212L56.0171 65.4371C55.6394 66.7937 55.5899 66.9074 55.3864 66.9074C55.1224 66.9074 55.1041 66.6911 55.2874 65.7524L55.8557 62.7971L56.1931 61.0242L62.1606 29.2709L61.9589 29.1206C60.6096 28.1232 58.9632 27.5861 56.5726 27.3642C55.5734 27.2726 53.3606 27.2781 53.2726 27.3734C53.2542 27.3954 53.1919 28.7557 53.1369 30.3984L52.1744 58.3861L51.9672 64.0731C51.8536 67.2814 51.8242 67.5142 51.5217 67.5142C51.3604 67.5142 51.3329 67.2539 51.2284 64.6176L50.7517 53.4562L50.5776 49.3459L50.2751 42.4672L50.1431 39.3506L50.0147 36.4961L49.6444 27.8427L49.6261 27.2377L48.9331 27.1681C47.1388 27.0296 45.3345 27.2336 43.6164 27.7694C42.8537 28.0352 41.6584 28.6402 41.1011 29.0472L40.7087 29.3332L45.9411 55.4674L48.1997 67.0174C48.1997 67.3474 47.9834 67.4391 47.7561 67.2099C47.6021 67.0559 46.2106 62.3039 43.0132 51.0032L42.1442 47.9746L39.6289 39.1782L37.3006 31.1116C37.1722 30.9062 34.7852 31.9696 33.5606 32.7744C32.1929 33.6727 30.8949 34.9377 29.9746 36.2577L29.6189 36.7711L44.0344 66.8707C44.3736 67.5802 44.6614 68.2787 44.6724 68.4254C44.6999 68.7884 44.4524 68.8287 44.1591 68.5079C44.0381 68.3741 42.9857 66.6287 41.8161 64.6286L27.3456 39.9006C27.2117 39.7539 25.5342 41.7211 24.6927 43.0117C23.7706 44.4234 23.1161 46.0917 22.9786 47.3714L22.9181 47.9361L29.1276 55.5481L38.3969 66.9111L41.4292 70.8051C41.4292 70.8051 41.3064 70.9572 41.1872 70.9701C40.9452 70.9994 40.2394 70.3009 31.4962 61.3854L21.9446 51.7934C21.7649 51.9731 21.1489 54.1492 20.8941 55.5022C20.6557 56.7599 20.6796 59.5539 20.9344 60.7822C21.0701 61.4349 21.1782 61.7447 21.3157 61.8822C21.4917 62.0546 22.9767 63.1912 30.4274 68.8617L32.9464 70.7776L33.0472 71.6429L33.2801 73.6779L33.5331 75.8412L33.8814 78.9121L34.1472 81.1854L34.1839 81.3797H48.3922L48.8982 81.9297C49.8369 82.9564 50.7499 83.3927 51.8462 83.3414C52.3852 83.3157 52.6217 83.2552 53.0929 83.0224L53.0782 83.0022Z" fill="#FDEF00"/>
</svg>
