<svg width="160" height="282" viewBox="0 0 160 282" fill="none" xmlns="http://www.w3.org/2000/svg">
<path d="M108.779 209.38L77.8738 191.539L47.168 209.28L78.0733 227.12L108.779 209.38Z" fill="white" stroke="black" stroke-width="2" stroke-linecap="round" stroke-linejoin="round"/>
<path d="M108.779 18.8406L77.8738 1L47.168 18.7408L78.0733 36.5814L108.779 18.8406Z" fill="#02CE6B" stroke="white" stroke-opacity="0.2" stroke-width="2" stroke-linecap="round" stroke-linejoin="round"/>
<path d="M108.78 18.8406V209.38L78.0742 227.121V36.5814L108.78 18.8406Z" fill="#0B0B22" stroke="white" stroke-opacity="0.2" stroke-width="2" stroke-linecap="round" stroke-linejoin="round"/>
<path d="M78.0733 227.121L47.168 209.28V18.7412L78.0733 36.5818V227.121Z" fill="#0B0B22" stroke="white" stroke-opacity="0.2" stroke-width="2" stroke-linecap="round" stroke-linejoin="round"/>
<path d="M62.6111 236.341L31.7058 218.5L1 236.241L31.9053 254.081L62.6111 236.341Z" fill="white" stroke="black" stroke-width="2" stroke-linecap="round" stroke-linejoin="round"/>
<path d="M62.6111 105.629L31.7058 87.7683L1 105.509L31.9053 123.35L62.6111 105.629Z" fill="#D61D87" stroke="white" stroke-opacity="0.2" stroke-width="2" stroke-linecap="round" stroke-linejoin="round"/>
<path d="M62.6121 105.629V236.34L31.9062 254.081V123.35L62.6121 105.629Z" fill="#0B0B22" stroke="white" stroke-opacity="0.2" stroke-width="2" stroke-linecap="round" stroke-linejoin="round"/>
<path d="M31.9053 254.082L1 236.241V105.51L31.9053 123.35V254.082Z" fill="#0B0B22" stroke="white" stroke-opacity="0.2" stroke-width="2" stroke-linecap="round" stroke-linejoin="round"/>
<path d="M158.5 238.655L127.594 220.814L96.8887 238.535L127.794 256.396L158.5 238.655Z" fill="white" stroke="black" stroke-width="2" stroke-linecap="round" stroke-linejoin="round"/>
<path d="M158.5 143.824L127.594 125.964L96.8887 143.705L127.794 161.545L158.5 143.824Z" fill="#0569CC" stroke="white" stroke-opacity="0.2" stroke-width="2" stroke-linecap="round" stroke-linejoin="round"/>
<path d="M158.501 143.824V238.655L127.795 256.396V161.545L158.501 143.824Z" fill="#0B0B22" stroke="white" stroke-opacity="0.2" stroke-width="2" stroke-linecap="round" stroke-linejoin="round"/>
<path d="M127.794 256.396L96.8887 238.536V143.705L127.794 161.546V256.396Z" fill="#0B0B22" stroke="white" stroke-opacity="0.2" stroke-width="2" stroke-linecap="round" stroke-linejoin="round"/>
<path d="M108.74 263.06L77.8352 245.22L47.1094 262.961L78.0148 280.801L108.74 263.06Z" fill="white" stroke="black" stroke-width="2" stroke-linecap="round" stroke-linejoin="round"/>
<path d="M108.74 191.3L77.8352 173.439L47.1094 191.18L78.0148 209.021L108.74 191.3Z" fill="#02CE6B" stroke="white" stroke-opacity="0.2" stroke-width="2" stroke-linecap="round" stroke-linejoin="round"/>
<path d="M108.739 191.3V263.061L78.0137 280.802V209.021L108.739 191.3Z" fill="#0B0B22" stroke="white" stroke-opacity="0.2" stroke-width="2" stroke-linecap="round" stroke-linejoin="round"/>
<path d="M78.0148 280.802L47.1094 262.961V191.18L78.0148 209.02V280.802Z" fill="#0B0B22" stroke="white" stroke-opacity="0.2" stroke-width="2" stroke-linecap="round" stroke-linejoin="round"/>
</svg>
