<svg width="52" height="147" viewBox="0 0 52 147" fill="none" xmlns="http://www.w3.org/2000/svg">
<path d="M52 113.772V128.208C49.4729 127.97 46.9244 128.293 44.5363 129.153C42.1482 130.013 39.9795 131.39 38.1847 133.185C36.3898 134.98 35.0132 137.148 34.153 139.536C33.2928 141.924 32.9702 144.473 33.2083 147H18.5604C18.7642 144.51 18.424 142.006 17.5636 139.66C16.7032 137.315 15.3429 135.185 13.5774 133.417C11.8118 131.65 9.68297 130.288 7.33851 129.425C4.99406 128.562 2.49009 128.219 0 128.421L0 113.772C2.52456 114.011 5.0705 113.689 7.45627 112.829C9.84203 111.97 12.0088 110.595 13.8018 108.802C15.5949 107.009 16.9701 104.842 17.8293 102.456C18.6885 100.071 19.0105 97.5246 18.7724 95H33.2083C32.9697 97.5263 33.2921 100.074 34.1524 102.461C35.0127 104.849 36.3896 107.017 38.1849 108.81C39.9801 110.603 42.1494 111.978 44.5376 112.836C46.9258 113.694 49.4739 114.014 52 113.772Z" fill="#99C6CC"/>
<path d="M33 5.41498V9.57931C32.271 9.51064 31.5359 9.60374 30.847 9.85187C30.1581 10.1 29.5325 10.4971 29.0148 11.0148C28.4971 11.5326 28.1 12.1581 27.8518 12.847C27.6037 13.5359 27.5106 14.271 27.5793 15H23.354C23.4127 14.2818 23.3146 13.5594 23.0664 12.8828C22.8182 12.2063 22.4258 11.5917 21.9165 11.0819C21.4072 10.5721 20.7932 10.1792 20.1169 9.93032C19.4406 9.68142 18.7183 9.58237 18 9.64039V5.41498C18.7282 5.48367 19.4626 5.39082 20.1508 5.14297C20.839 4.89513 21.4641 4.49859 21.9813 3.98136C22.4985 3.46413 22.8952 2.83905 23.1431 2.15085C23.3909 1.46264 23.4838 0.728238 23.4151 -9.53674e-07H27.5793C27.5105 0.728748 27.6035 1.46356 27.8517 2.1522C28.0998 2.84084 28.497 3.4662 29.0149 3.98353C29.5327 4.50086 30.1585 4.89742 30.8474 5.14487C31.5363 5.39233 32.2713 5.48455 33 5.41498Z" fill="#262626"/>
</svg>
