<svg width="224" height="331" viewBox="0 0 224 331" fill="none" xmlns="http://www.w3.org/2000/svg">
<path d="M80.0271 100.398L92.3411 88C94.2978 90.3724 96.7523 92.2822 99.5295 93.5931C102.307 94.904 105.338 95.5837 108.407 95.5837C111.477 95.5837 114.508 94.904 117.285 93.5931C120.062 92.2822 122.517 90.3724 124.474 88L137 100.567C134.698 102.53 132.849 104.972 131.581 107.723C130.313 110.474 129.656 113.469 129.656 116.5C129.656 119.531 130.313 122.526 131.581 125.277C132.849 128.028 134.698 130.47 137 132.433L124.474 145C122.517 142.628 120.062 140.718 117.285 139.407C114.508 138.096 111.477 137.416 108.407 137.416C105.338 137.416 102.307 138.096 99.5295 139.407C96.7523 140.718 94.2978 142.628 92.3411 145L80 132.619C82.3647 130.656 84.2681 128.193 85.5748 125.407C86.8814 122.621 87.559 119.579 87.559 116.5C87.559 113.421 86.8814 110.379 85.5748 107.593C84.2681 104.807 82.3647 102.344 80 100.381L80.0271 100.398Z" fill="#018FFF"/>
<path d="M203.589 100.737H212.286C212.142 102.261 212.335 103.797 212.853 105.237C213.371 106.677 214.2 107.985 215.282 109.067C216.363 110.15 217.67 110.98 219.11 111.498C220.549 112.017 222.085 112.211 223.608 112.068V120.897C222.107 120.774 220.597 120.979 219.183 121.498C217.769 122.017 216.484 122.837 215.419 123.902C214.354 124.967 213.533 126.251 213.013 127.666C212.494 129.08 212.288 130.59 212.411 132.092H203.584C203.727 130.568 203.533 129.031 203.014 127.592C202.496 126.152 201.666 124.844 200.584 123.762C199.502 122.68 198.195 121.85 196.756 121.331C195.316 120.812 193.78 120.618 192.256 120.761V112.062C193.78 112.206 195.316 112.011 196.756 111.493C198.195 110.974 199.502 110.144 200.584 109.062C201.666 107.98 202.496 106.672 203.014 105.232C203.533 103.792 203.727 102.256 203.584 100.732L203.589 100.737Z" fill="#AB88EB"/>
<path d="M104.202 0H112.803C112.662 1.50452 112.855 3.02158 113.368 4.44312C113.881 5.86466 114.701 7.15564 115.77 8.22415C116.839 9.29266 118.131 10.1124 119.554 10.6249C120.976 11.1374 122.494 11.3301 124 11.1892V19.9343C122.516 19.8152 121.023 20.0197 119.625 20.5337C118.228 21.0476 116.959 21.8588 115.906 22.9111C114.852 23.9634 114.041 25.2317 113.526 26.6284C113.012 28.025 112.807 29.5166 112.927 31H104.197C104.338 29.4955 104.145 27.9784 103.632 26.5569C103.119 25.1353 102.299 23.8444 101.23 22.7758C100.161 21.7073 98.8687 20.8876 97.4461 20.3751C96.0236 19.8626 94.5056 19.6699 93 19.8108V11.2161C94.5056 11.357 96.0236 11.1643 97.4461 10.6518C98.8687 10.1393 100.161 9.31955 101.23 8.25104C102.299 7.18253 103.119 5.89154 103.632 4.47C104.145 3.04847 104.338 1.53134 104.197 0.0268173L104.202 0Z" fill="#AB88EB"/>
<path d="M106.415 316H110.579C110.511 316.729 110.604 317.464 110.852 318.153C111.1 318.842 111.497 319.467 112.015 319.985C112.533 320.503 113.158 320.9 113.847 321.148C114.536 321.396 115.271 321.489 116 321.421V325.646C115.282 325.587 114.559 325.685 113.883 325.934C113.206 326.182 112.592 326.574 112.082 327.083C111.572 327.593 111.179 328.207 110.93 328.883C110.681 329.559 110.583 330.282 110.641 331H106.415C106.484 330.272 106.391 329.537 106.143 328.849C105.895 328.161 105.499 327.536 104.981 327.019C104.464 326.501 103.839 326.105 103.151 325.857C102.463 325.609 101.728 325.516 101 325.585V321.421C101.729 321.49 102.464 321.396 103.152 321.148C103.841 320.9 104.466 320.503 104.984 319.985C105.501 319.467 105.898 318.842 106.145 318.153C106.392 317.464 106.485 316.729 106.415 316Z" fill="#99C6CC"/>
<path d="M5.41498 316H9.57931C9.51064 316.729 9.60374 317.464 9.85187 318.153C10.1 318.842 10.4971 319.467 11.0148 319.985C11.5326 320.503 12.1581 320.9 12.847 321.148C13.5359 321.396 14.271 321.489 15 321.421V325.646C14.2818 325.587 13.5594 325.685 12.8828 325.934C12.2063 326.182 11.5917 326.574 11.0819 327.083C10.5721 327.593 10.1792 328.207 9.93032 328.883C9.68142 329.559 9.58237 330.282 9.64039 331H5.41498C5.48367 330.272 5.39082 329.537 5.14297 328.849C4.89513 328.161 4.49859 327.536 3.98136 327.019C3.46413 326.501 2.83905 326.105 2.15085 325.857C1.46264 325.609 0.728238 325.516 -9.53674e-07 325.585V321.421C0.728748 321.49 1.46356 321.396 2.1522 321.148C2.84084 320.9 3.4662 320.503 3.98353 319.985C4.50086 319.467 4.89742 318.842 5.14487 318.153C5.39233 317.464 5.48455 316.729 5.41498 316Z" fill="#262626"/>
</svg>
