<svg width="335" height="436" viewBox="0 0 335 436" fill="none" xmlns="http://www.w3.org/2000/svg">
<path d="M88.0271 205.398L100.341 193C102.298 195.372 104.752 197.282 107.53 198.593C110.307 199.904 113.338 200.584 116.407 200.584C119.477 200.584 122.508 199.904 125.285 198.593C128.062 197.282 130.517 195.372 132.474 193L145 205.567C142.698 207.53 140.849 209.972 139.581 212.723C138.313 215.474 137.656 218.469 137.656 221.5C137.656 224.531 138.313 227.526 139.581 230.277C140.849 233.028 142.698 235.47 145 237.433L132.474 250C130.517 247.628 128.062 245.718 125.285 244.407C122.508 243.096 119.477 242.416 116.407 242.416C113.338 242.416 110.307 243.096 107.53 244.407C104.752 245.718 102.298 247.628 100.341 250L88 237.619C90.3647 235.656 92.2681 233.193 93.5748 230.407C94.8814 227.621 95.559 224.579 95.559 221.5C95.559 218.421 94.8814 215.379 93.5748 212.593C92.2681 209.807 90.3647 207.344 88 205.381L88.0271 205.398Z" fill="#018FFF"/>
<path d="M211.589 205.737H220.286C220.142 207.261 220.335 208.797 220.853 210.237C221.371 211.677 222.2 212.985 223.282 214.067C224.363 215.15 225.67 215.98 227.11 216.498C228.549 217.017 230.085 217.211 231.608 217.068V225.897C230.107 225.774 228.597 225.979 227.183 226.498C225.769 227.017 224.484 227.837 223.419 228.902C222.354 229.967 221.533 231.251 221.013 232.666C220.494 234.08 220.288 235.59 220.411 237.092H211.584C211.727 235.568 211.533 234.031 211.014 232.592C210.496 231.152 209.666 229.844 208.584 228.762C207.502 227.68 206.195 226.85 204.756 226.331C203.316 225.812 201.78 225.618 200.256 225.761V217.062C201.78 217.206 203.316 217.011 204.756 216.493C206.195 215.974 207.502 215.144 208.584 214.062C209.666 212.98 210.496 211.672 211.014 210.232C211.533 208.792 211.727 207.256 211.584 205.732L211.589 205.737Z" fill="#AB88EB"/>
<path d="M11.1989 207.005H19.8011C19.6592 208.511 19.8513 210.03 20.3639 211.453C20.8765 212.875 21.6969 214.168 22.7664 215.238C23.836 216.307 25.1285 217.128 26.5517 217.641C27.9749 218.154 29.4937 218.347 31 218.206V226.934C29.5154 226.813 28.0221 227.016 26.6239 227.529C25.2256 228.043 23.9557 228.854 22.9022 229.906C21.8486 230.959 21.0366 232.228 20.5225 233.626C20.0083 235.023 19.8044 236.516 19.9247 238H11.1989C11.3408 236.494 11.1487 234.976 10.6361 233.553C10.1235 232.13 9.30309 230.838 8.23355 229.768C7.16402 228.698 5.87152 227.878 4.44834 227.364C3.02515 226.851 1.50632 226.659 0 226.8V218.2C1.50632 218.341 3.02515 218.149 4.44834 217.636C5.87152 217.122 7.16402 216.302 8.23355 215.232C9.30309 214.162 10.1235 212.87 10.6361 211.447C11.1487 210.024 11.3408 208.506 11.1989 207V207.005Z" fill="white" fill-opacity="0.2"/>
<path d="M112.202 105H120.803C120.662 106.505 120.855 108.022 121.368 109.443C121.881 110.865 122.701 112.156 123.77 113.224C124.839 114.293 126.131 115.112 127.554 115.625C128.976 116.137 130.494 116.33 132 116.189V124.934C130.516 124.815 129.023 125.02 127.625 125.534C126.228 126.048 124.959 126.859 123.906 127.911C122.852 128.963 122.041 130.232 121.526 131.628C121.012 133.025 120.807 134.517 120.927 136H112.197C112.338 134.495 112.145 132.978 111.632 131.557C111.119 130.135 110.299 128.844 109.23 127.776C108.161 126.707 106.869 125.888 105.446 125.375C104.024 124.863 102.506 124.67 101 124.811V116.216C102.506 116.357 104.024 116.164 105.446 115.652C106.869 115.139 108.161 114.32 109.23 113.251C110.299 112.183 111.119 110.892 111.632 109.47C112.145 108.048 112.338 106.531 112.197 105.027L112.202 105Z" fill="#AB88EB"/>
<path d="M112.202 305H120.803C120.661 306.506 120.853 308.024 121.366 309.447C121.878 310.87 122.698 312.162 123.768 313.232C124.837 314.302 126.129 315.122 127.552 315.635C128.975 316.149 130.494 316.341 132 316.2V324.929C130.516 324.809 129.023 325.014 127.625 325.528C126.228 326.042 124.959 326.854 123.906 327.907C122.852 328.96 122.041 330.229 121.526 331.626C121.012 333.023 120.807 334.516 120.927 336H112.197C112.339 334.494 112.147 332.976 111.634 331.553C111.122 330.131 110.301 328.839 109.232 327.769C108.163 326.7 106.87 325.88 105.447 325.368C104.024 324.855 102.506 324.663 101 324.805V316.206C102.506 316.347 104.025 316.154 105.448 315.641C106.871 315.128 108.163 314.307 109.232 313.238C110.302 312.168 111.122 310.875 111.634 309.453C112.147 308.03 112.339 306.511 112.197 305.005L112.202 305Z" fill="white" fill-opacity="0.2"/>
<path d="M326.059 113H329.946C329.882 113.68 329.968 114.366 330.2 115.008C330.431 115.651 330.801 116.234 331.284 116.717C331.767 117.2 332.35 117.571 332.993 117.802C333.635 118.033 334.32 118.12 335 118.056V122.001C334.33 121.947 333.656 122.039 333.025 122.271C332.395 122.503 331.822 122.87 331.347 123.345C330.871 123.821 330.505 124.394 330.273 125.025C330.041 125.656 329.949 126.33 330.003 127H326.059C326.123 126.319 326.037 125.633 325.805 124.99C325.573 124.347 325.203 123.763 324.719 123.279C324.236 122.796 323.652 122.425 323.009 122.193C322.366 121.962 321.68 121.875 321 121.939V118.066C321.68 118.131 322.366 118.045 323.009 117.814C323.652 117.583 324.236 117.213 324.719 116.73C325.203 116.247 325.573 115.663 325.805 115.02C326.037 114.377 326.124 113.691 326.059 113.01V113Z" fill="#AB88EB"/>
<path d="M214.443 112H218.585C218.516 112.729 218.609 113.463 218.857 114.152C219.105 114.84 219.501 115.465 220.019 115.983C220.536 116.5 221.161 116.897 221.849 117.145C222.537 117.393 223.272 117.486 224 117.417V121.644C223.282 121.585 222.559 121.683 221.883 121.932C221.206 122.18 220.592 122.573 220.082 123.082C219.572 123.591 219.179 124.206 218.93 124.882C218.681 125.559 218.583 126.281 218.641 127H214.421C214.489 126.271 214.396 125.535 214.148 124.846C213.9 124.157 213.503 123.531 212.985 123.013C212.467 122.495 211.842 122.098 211.153 121.85C210.464 121.602 209.729 121.509 209 121.577V117.428C209.729 117.498 210.464 117.406 211.153 117.158C211.842 116.911 212.467 116.514 212.985 115.996C213.503 115.479 213.9 114.853 214.148 114.164C214.397 113.475 214.49 112.74 214.421 112.011L214.443 112Z" fill="#99C6CC"/>
<path d="M114.415 421H118.579C118.511 421.729 118.604 422.464 118.852 423.153C119.1 423.842 119.497 424.467 120.015 424.985C120.533 425.503 121.158 425.9 121.847 426.148C122.536 426.396 123.271 426.489 124 426.421V430.646C123.282 430.587 122.559 430.685 121.883 430.934C121.206 431.182 120.592 431.574 120.082 432.083C119.572 432.593 119.179 433.207 118.93 433.883C118.681 434.559 118.583 435.282 118.641 436H114.415C114.484 435.272 114.391 434.537 114.143 433.849C113.895 433.161 113.499 432.536 112.981 432.019C112.464 431.501 111.839 431.105 111.151 430.857C110.463 430.609 109.728 430.516 109 430.585V426.421C109.729 426.49 110.464 426.396 111.152 426.148C111.841 425.9 112.466 425.503 112.984 424.985C113.501 424.467 113.898 423.842 114.145 423.153C114.392 422.464 114.485 421.729 114.415 421Z" fill="#99C6CC"/>
<path d="M13.415 421H17.5793C17.5106 421.729 17.6037 422.464 17.8519 423.153C18.1 423.842 18.4971 424.467 19.0148 424.985C19.5326 425.503 20.1581 425.9 20.847 426.148C21.5359 426.396 22.271 426.489 23 426.421V430.646C22.2818 430.587 21.5594 430.685 20.8828 430.934C20.2063 431.182 19.5917 431.574 19.0819 432.083C18.5721 432.593 18.1792 433.207 17.9303 433.883C17.6814 434.559 17.5824 435.282 17.6404 436H13.415C13.4837 435.272 13.3908 434.537 13.143 433.849C12.8951 433.161 12.4986 432.536 11.9814 432.019C11.4641 431.501 10.839 431.105 10.1508 430.857C9.46264 430.609 8.72824 430.516 8 430.585V426.421C8.72875 426.49 9.46356 426.396 10.1522 426.148C10.8408 425.9 11.4662 425.503 11.9835 424.985C12.5009 424.467 12.8974 423.842 13.1449 423.153C13.3923 422.464 13.4845 421.729 13.415 421Z" fill="#262626"/>
<path d="M113.415 -9.53674e-07H117.579C117.511 0.728968 117.604 1.46408 117.852 2.15295C118.1 2.84182 118.497 3.46742 119.015 3.98516C119.533 4.5029 120.158 4.9 120.847 5.14813C121.536 5.39626 122.271 5.48936 123 5.42069V9.64046C122.281 9.58159 121.558 9.67983 120.881 9.92835C120.204 10.1769 119.59 10.5697 119.08 11.0797C118.57 11.5896 118.177 12.2044 117.928 12.8813C117.68 13.5583 117.582 14.2813 117.641 15H113.415C113.479 14.2726 113.382 13.5402 113.133 12.854C112.883 12.1679 112.486 11.5447 111.97 11.0281C111.454 10.5116 110.832 10.1142 110.146 9.86395C109.46 9.61366 108.727 9.51651 108 9.57931V5.42069C108.727 5.48349 109.46 5.38634 110.146 5.13605C110.832 4.88576 111.454 4.4884 111.97 3.97186C112.486 3.45531 112.883 2.83211 113.133 2.14596C113.382 1.45981 113.479 0.727358 113.415 -9.53674e-07Z" fill="#262626"/>
</svg>
