<svg width="234" height="136" viewBox="0 0 234 136" fill="none" xmlns="http://www.w3.org/2000/svg">
<path d="M11.2023 105H19.803C19.662 106.505 19.8548 108.022 20.3677 109.443C20.8805 110.865 21.7008 112.156 22.7701 113.224C23.8393 114.293 25.1312 115.112 26.5537 115.625C27.9763 116.137 29.4944 116.33 31 116.189V124.934C29.5156 124.815 28.023 125.02 26.6254 125.534C25.2278 126.048 23.9585 126.859 22.9055 127.911C21.8525 128.963 21.0407 130.232 20.5263 131.628C20.012 133.025 19.8074 134.517 19.9266 136H11.1969C11.3379 134.495 11.1451 132.978 10.6322 131.557C10.1193 130.135 9.29905 128.844 8.2298 127.776C7.16055 126.707 5.86866 125.888 4.44614 125.375C3.02361 124.863 1.50556 124.67 0 124.811V116.216C1.50556 116.357 3.02361 116.164 4.44614 115.652C5.86866 115.139 7.16055 114.32 8.2298 113.251C9.29905 112.183 10.1193 110.892 10.6322 109.47C11.1451 108.048 11.3379 106.531 11.1969 105.027L11.2023 105Z" fill="#AB88EB"/>
<path d="M225.059 113H228.946C228.882 113.68 228.968 114.366 229.2 115.008C229.431 115.651 229.801 116.234 230.284 116.717C230.767 117.2 231.35 117.571 231.993 117.802C232.635 118.033 233.32 118.12 234 118.056V122.001C233.33 121.947 232.656 122.039 232.025 122.271C231.395 122.503 230.822 122.87 230.347 123.345C229.871 123.821 229.505 124.394 229.273 125.025C229.041 125.656 228.949 126.33 229.003 127H225.059C225.123 126.319 225.037 125.633 224.805 124.99C224.573 124.347 224.203 123.763 223.719 123.279C223.236 122.796 222.652 122.425 222.009 122.193C221.366 121.962 220.68 121.875 220 121.939V118.066C220.68 118.131 221.366 118.045 222.009 117.814C222.652 117.583 223.236 117.213 223.719 116.73C224.203 116.247 224.573 115.663 224.805 115.02C225.037 114.377 225.124 113.691 225.059 113.01V113Z" fill="#AB88EB"/>
<path d="M113.443 112H117.585C117.516 112.729 117.609 113.463 117.857 114.152C118.105 114.84 118.501 115.465 119.019 115.983C119.536 116.5 120.161 116.897 120.849 117.145C121.537 117.393 122.272 117.486 123 117.417V121.644C122.282 121.585 121.559 121.683 120.883 121.932C120.206 122.18 119.592 122.573 119.082 123.082C118.572 123.591 118.179 124.206 117.93 124.882C117.681 125.559 117.583 126.281 117.641 127H113.421C113.489 126.271 113.396 125.535 113.148 124.846C112.9 124.157 112.503 123.531 111.985 123.013C111.467 122.495 110.842 122.098 110.153 121.85C109.464 121.602 108.729 121.509 108 121.577V117.428C108.729 117.498 109.464 117.406 110.153 117.158C110.842 116.911 111.467 116.514 111.985 115.996C112.503 115.479 112.9 114.853 113.148 114.164C113.397 113.475 113.49 112.74 113.421 112.011L113.443 112Z" fill="#99C6CC"/>
<path d="M12.4151 -9.53674e-07H16.5793C16.5106 0.728968 16.6037 1.46408 16.8519 2.15295C17.1 2.84182 17.4971 3.46742 18.0148 3.98516C18.5326 4.5029 19.1581 4.9 19.847 5.14813C20.5359 5.39626 21.271 5.48936 22 5.42069V9.64046C21.2813 9.58159 20.5583 9.67983 19.8813 9.92835C19.2044 10.1769 18.5896 10.5697 18.0797 11.0797C17.5698 11.5896 17.1769 12.2044 16.9284 12.8813C16.6799 13.5583 16.5817 14.2813 16.6405 15H12.4151C12.4787 14.2726 12.3822 13.5402 12.1327 12.854C11.8831 12.1679 11.4864 11.5447 10.9704 11.0281C10.4543 10.5116 9.83158 10.1142 9.14569 9.86395C8.4598 9.61366 7.72742 9.51651 7 9.57931V5.42069C7.72742 5.48349 8.4598 5.38634 9.14569 5.13605C9.83158 4.88576 10.4543 4.4884 10.9704 3.97186C11.4864 3.45531 11.8831 2.83211 12.1327 2.14596C12.3822 1.45981 12.4787 0.727358 12.4151 -9.53674e-07Z" fill="#262626"/>
</svg>
