<svg width="136" height="215" viewBox="0 0 136 215" fill="none" xmlns="http://www.w3.org/2000/svg">
<path d="M50 39.1392L39.1745 50C37.4581 47.919 35.305 46.2437 32.8689 45.0938C30.4327 43.9439 27.7736 43.3476 25.0812 43.3476C22.3889 43.3476 19.7298 43.9439 17.2936 45.0938C14.8575 46.2437 12.7044 47.919 10.988 50L0 38.9762C2.01934 37.2543 3.64141 35.1125 4.75382 32.6992C5.86623 30.2859 6.44235 27.6588 6.44235 25C6.44235 22.3412 5.86623 19.7141 4.75382 17.3008C3.64141 14.8875 2.01934 12.7457 0 11.0238L10.988 0C12.7044 2.08102 14.8575 3.75627 17.2936 4.90619C19.7298 6.05611 22.3889 6.65235 25.0812 6.65235C27.7736 6.65235 30.4327 6.05611 32.8689 4.90619C35.305 3.75627 37.4581 2.08102 39.1745 0L50 10.8704C47.9257 12.5924 46.2559 14.7525 45.1097 17.1966C43.9635 19.6407 43.3693 22.3085 43.3693 25.0096C43.3693 27.7107 43.9635 30.3785 45.1097 32.8226C46.2559 35.2666 47.9257 37.4268 50 39.1488V39.1392Z" fill="#AB88EB"/>
<path d="M29.8786 125H22.1117C22.2406 123.64 22.0676 122.268 21.6051 120.982C21.1426 119.697 20.4021 118.529 19.4362 117.563C18.4703 116.596 17.3029 115.855 16.0175 115.392C14.7321 114.929 13.3603 114.755 12 114.883V107C13.3411 107.11 14.6903 106.927 15.9535 106.464C17.2168 106 18.364 105.267 19.3155 104.315C20.2671 103.364 21 102.217 21.4636 100.953C21.9272 99.6902 22.1102 98.3411 22 97H29.8835C29.7552 98.3603 29.9288 99.7321 30.3919 101.018C30.855 102.303 31.5962 103.47 32.5625 104.436C33.5289 105.402 34.6966 106.143 35.9822 106.605C37.2679 107.068 38.6398 107.241 40 107.112V114.879C38.6395 114.75 37.2675 114.924 35.9819 115.387C34.6963 115.85 33.5287 116.591 32.5625 117.558C31.5963 118.524 30.8551 119.691 30.392 120.977C29.929 122.263 29.7553 123.635 29.8835 124.995L29.8786 125Z" fill="white"/>
<path d="M125.879 125H118.112C118.241 123.64 118.068 122.268 117.605 120.982C117.143 119.697 116.402 118.529 115.436 117.563C114.47 116.596 113.303 115.855 112.018 115.392C110.732 114.929 109.36 114.755 108 114.883V107C109.341 107.11 110.691 106.927 111.954 106.463C113.218 106 114.365 105.267 115.317 104.316C116.269 103.364 117.002 102.217 117.466 100.954C117.931 99.6905 118.114 98.3414 118.005 97H125.883C125.755 98.3603 125.929 99.7321 126.392 101.018C126.855 102.303 127.596 103.47 128.563 104.436C129.529 105.402 130.697 106.143 131.982 106.605C133.268 107.068 134.64 107.241 136 107.112V114.879C134.64 114.75 133.268 114.924 131.982 115.387C130.696 115.85 129.529 116.591 128.563 117.558C127.596 118.524 126.855 119.691 126.392 120.977C125.929 122.263 125.755 123.635 125.883 124.995L125.879 125Z" fill="#018FFF"/>
<path d="M122.941 215H119.054C119.119 214.32 119.033 213.634 118.802 212.991C118.571 212.348 118.201 211.764 117.718 211.281C117.235 210.797 116.652 210.427 116.009 210.195C115.366 209.963 114.68 209.876 114 209.941V206.002C114.671 206.057 115.346 205.965 115.977 205.734C116.609 205.502 117.183 205.135 117.659 204.659C118.135 204.183 118.502 203.609 118.733 202.977C118.965 202.346 119.057 201.671 119.002 201H122.941C122.876 201.68 122.963 202.366 123.195 203.009C123.426 203.652 123.797 204.235 124.281 204.718C124.764 205.201 125.348 205.571 125.991 205.802C126.634 206.033 127.32 206.119 128 206.054V209.941C127.32 209.877 126.633 209.963 125.991 210.195C125.348 210.427 124.764 210.797 124.281 211.28C123.797 211.764 123.427 212.348 123.195 212.991C122.963 213.633 122.877 214.32 122.941 215Z" fill="white"/>
<path d="M122.941 29H119.054C119.119 28.3209 119.033 27.6359 118.802 26.9939C118.571 26.3518 118.201 25.7687 117.718 25.2861C117.235 24.8034 116.652 24.4333 116.009 24.202C115.366 23.9707 114.68 23.8841 114 23.9482V19.9896C114.67 20.0444 115.345 19.953 115.976 19.7217C116.607 19.4903 117.181 19.1247 117.657 18.65C118.133 18.1754 118.5 17.6031 118.732 16.9729C118.964 16.3426 119.056 15.6694 119.002 15H122.941C122.876 15.6792 122.963 16.3641 123.195 17.0059C123.426 17.6477 123.797 18.2304 124.281 18.7126C124.764 19.1947 125.348 19.5643 125.991 19.7949C126.634 20.0255 127.32 20.1115 128 20.0466V23.9275C127.32 23.8635 126.633 23.9502 125.991 24.1814C125.348 24.4127 124.764 24.7827 124.281 25.2653C123.797 25.7478 123.427 26.3308 123.195 26.9728C122.963 27.6148 122.877 28.2999 122.941 28.9793V29Z" fill="#262626"/>
</svg>
