<svg width="294" height="100" viewBox="0 0 294 100" fill="none" xmlns="http://www.w3.org/2000/svg">
<path d="M129.982 100C109.062 99.9582 88.1817 98.9579 67.5449 97.0088C67.008 96.9574 66.5292 96.7871 66.2136 96.5353C65.898 96.2835 65.7716 95.9709 65.8621 95.6662C65.9526 95.3615 66.2527 95.0897 66.6963 94.9106C67.1399 94.7315 67.6907 94.6598 68.2276 94.7112C118.063 99.3297 164.615 98.5354 202.892 92.4135C236.009 87.1169 262.401 77.8759 277.202 66.3916C291.265 55.4806 293.777 43.6127 284.301 33.0234C276.376 24.1505 260.319 16.6764 237.879 11.4069C212.272 5.39347 179.415 2.34027 140.216 2.33252H140.066C50.9286 2.33252 20.8771 19.1445 10.8964 29.1681C0.915683 39.1918 1.93287 51.2031 13.6271 62.1915C31.9638 79.449 71.6546 90.1507 114.793 89.4417C115.336 89.4329 115.863 89.547 116.258 89.7588C116.653 89.9706 116.884 90.2628 116.899 90.5711C116.914 90.8794 116.713 91.1785 116.34 91.4027C115.967 91.6269 115.452 91.7577 114.909 91.7664C91.8209 92.1539 69.6134 89.4649 50.6828 84.0172C33.1244 78.9802 19.1022 71.8354 10.1181 63.3849C-2.34069 51.6564 -3.34423 38.7655 7.38745 28.0174C17.8051 17.5559 48.9146 0 140.12 0H140.277C180.009 0 213.399 3.12294 239.504 9.24871C262.865 14.7352 279.639 22.589 288.015 31.9617C298.078 43.2252 295.361 56.2711 280.547 67.7593C265.207 79.6583 238.036 89.2053 204.046 94.6414C181.729 98.2099 156.778 99.9961 129.982 100Z" fill="#F477FF"/>
</svg>
