<svg width="160" height="53" viewBox="0 0 160 53" fill="none" xmlns="http://www.w3.org/2000/svg">
<rect x="0.0546265" y="20.3057" width="157.072" height="32" rx="10" transform="rotate(-7.42775 0.0546265 20.3057)" fill="#F44D21"/>
<path d="M31.9427 32.2835C32.7994 38.8549 28.1502 44.8794 21.559 45.7387C14.967 46.5981 8.92942 41.9669 8.0727 35.3954C7.21587 28.8231 11.8648 22.7995 18.4564 21.9401C25.0476 21.0808 31.0859 25.7116 31.9427 32.2835Z" fill="#FFD569"/>
<path d="M21.5988 33.6322L18.2175 34.073L17.7521 30.5032L21.1334 30.0624C21.3685 30.0318 21.6073 30.0476 21.8362 30.109C22.0651 30.1704 22.2796 30.2761 22.4674 30.4202C22.6553 30.5642 22.8128 30.7438 22.931 30.9486C23.0492 31.1535 23.1258 31.3795 23.1563 31.6139C23.1869 31.8483 23.1708 32.0865 23.1091 32.3147C23.0474 32.543 22.9412 32.757 22.7965 32.9444C22.6519 33.1318 22.4717 33.289 22.2662 33.407C22.0607 33.525 21.8339 33.6016 21.5988 33.6322ZM20.8231 27.6826L15.0548 28.4346L16.6061 40.3339L18.9931 40.0227L18.5277 36.4529L21.909 36.0121C24.216 35.7113 25.8432 33.6028 25.5433 31.3027C25.2435 29.0026 23.1301 27.3818 20.8231 27.6826Z" fill="#F44D21"/>
<path d="M38.8557 24.3229L45.1624 23.5007C48.1174 23.1154 50.0169 24.3805 50.3607 27.0182C50.7072 29.6757 49.2059 31.4648 46.231 31.8526L42.3439 32.3594L43.0653 37.8925L40.6656 38.2054L38.8557 24.3229ZM42.0802 30.3365L45.9872 29.8271C47.3952 29.6436 48.0653 28.7494 47.8843 27.3612C47.7033 25.9729 46.8342 25.34 45.4261 25.5236L41.5192 26.0329L42.0802 30.3365ZM56.3751 25.7904C57.9419 25.5861 59.1084 26.6442 59.3256 28.3101C59.4187 29.024 59.3333 29.7613 59.1134 30.395L56.7533 30.7027C57.0181 30.1034 57.1069 29.5473 57.0475 29.0911C56.9441 28.2978 56.4379 27.8193 55.7438 27.9097C54.6729 28.0494 54.0925 29.4764 54.3536 31.4794L54.9871 36.3383L52.7262 36.6331L51.4334 26.717L53.6943 26.4222L53.9141 28.108C54.2892 26.8085 55.1455 25.9507 56.3751 25.7904ZM65.7577 35.2165C62.7234 35.6121 60.4265 33.7736 60.018 30.6401C59.6094 27.5066 61.3583 25.1407 64.3926 24.7451C67.4071 24.3521 69.7239 26.188 70.1324 29.3215C70.5409 32.455 68.7722 34.8235 65.7577 35.2165ZM65.4992 33.2333C67.1056 33.0239 68.0283 31.5926 67.7723 29.6292C67.5164 27.6658 66.2575 26.5189 64.6511 26.7283C63.0249 26.9403 62.122 28.3691 62.378 30.3324C62.634 32.2958 63.8729 33.4453 65.4992 33.2333ZM78.2695 24.7109L77.561 19.2769L79.8219 18.9821L81.6317 32.8646L79.3709 33.1594L79.1796 31.6918C78.5707 32.9007 77.4834 33.6878 76.0356 33.8766C73.4178 34.2179 71.3019 32.3759 70.8908 29.2226C70.4823 26.0891 72.0328 23.7491 74.6705 23.4052C76.1182 23.2164 77.371 23.6985 78.2695 24.7109ZM76.4712 31.8029C78.1371 31.5857 79.0796 30.1518 78.8237 28.1884C78.5677 26.225 77.289 25.0807 75.6231 25.2979C73.9374 25.5177 72.9949 26.9516 73.2508 28.9149C73.5068 30.8783 74.7854 32.0226 76.4712 31.8029ZM88.9059 26.9748L88.2466 21.9176L90.5075 21.6229L91.8002 31.539L89.5394 31.8337L89.3067 30.0488C88.7858 31.4681 87.7458 32.3096 86.3576 32.4906C83.6009 32.85 82.8078 30.17 82.5777 28.4049L81.8408 22.7528L84.1017 22.458L84.836 28.0904C85.0066 29.3993 85.467 30.6099 86.8949 30.4238C88.3625 30.2324 89.1438 28.7994 88.9059 26.9748ZM98.1245 30.9969C95.0901 31.3924 92.7932 29.554 92.3847 26.4205C91.9736 23.2672 93.7052 20.9236 96.8386 20.5151C99.9721 20.1066 102.17 21.958 101.829 25.0682L99.5484 25.3655C99.6693 23.353 98.7036 22.2889 97.0774 22.5009C95.3718 22.7233 94.4887 24.1494 94.7447 26.1128C95.0007 28.0762 96.2397 29.2257 97.8857 29.0111C99.0757 28.8559 99.8156 28.0334 100.087 26.8685L102.527 26.5505C102.32 28.6751 100.881 30.6375 98.1245 30.9969ZM108.886 19.2268L109.142 21.1902L106.306 21.5599L106.935 26.3792C107.041 27.1923 107.319 27.7812 108.41 27.639C108.926 27.5718 109.304 27.3813 109.692 27.1088L109.951 29.092C109.543 29.3671 108.946 29.586 108.232 29.6791C105.277 30.0644 104.816 27.7647 104.676 26.6937L104.046 21.8547L102.162 22.1003L101.906 20.1369L103.79 19.8913L103.446 17.2536L105.707 16.9589L106.05 19.5966L108.886 19.2268ZM119.998 19.4119L119.271 13.8391L121.671 13.5262L123.481 27.4088L121.081 27.7216L120.262 21.4348L113.301 22.3423L114.12 28.6291L111.721 28.942L109.911 15.0594L112.31 14.7466L113.037 20.3194L119.998 19.4119ZM131.313 21.4463L130.653 16.3891L132.914 16.0943L134.207 26.0104L131.946 26.3052L131.713 24.5203C131.193 25.9395 130.153 26.781 128.764 26.962C126.008 27.3214 125.215 24.6414 124.984 22.8764L124.248 17.2242L126.508 16.9295L127.243 22.5618C127.413 23.8707 127.874 25.0814 129.302 24.8952C130.769 24.7039 131.551 23.2708 131.313 21.4463ZM140.178 14.865C143.37 14.4488 143.782 17.6021 143.976 19.0895L144.699 24.6425L142.439 24.9373L141.722 19.4438C141.575 18.3133 141.366 16.7069 139.62 16.9344C138.113 17.1309 137.238 18.6166 137.502 20.6394L138.135 25.4983L135.874 25.7931L134.581 15.877L136.842 15.5822L137.08 17.4068C137.564 16.0125 138.67 15.0615 140.178 14.865ZM150.887 13.7513L151.142 15.7147L148.306 16.0844L148.935 20.9036C149.041 21.7167 149.319 22.3057 150.41 22.1635C150.926 22.0963 151.304 21.9057 151.692 21.6333L151.951 23.6165C151.543 23.8915 150.946 24.1105 150.232 24.2036C147.277 24.5888 146.816 22.2891 146.676 21.2182L146.046 16.3791L144.162 16.6248L143.906 14.6614L145.79 14.4158L145.446 11.7781L147.707 11.4833L148.051 14.121L150.887 13.7513Z" fill="white"/>
</svg>
