<svg width="136" height="215" viewBox="0 0 136 215" fill="none" xmlns="http://www.w3.org/2000/svg">
<path d="M86 39.1392L96.8255 50C98.5419 47.919 100.695 46.2437 103.131 45.0938C105.567 43.9439 108.226 43.3476 110.919 43.3476C113.611 43.3476 116.27 43.9439 118.706 45.0938C121.143 46.2437 123.296 47.919 125.012 50L136 38.9762C133.981 37.2543 132.359 35.1125 131.246 32.6992C130.134 30.2859 129.558 27.6588 129.558 25C129.558 22.3412 130.134 19.7141 131.246 17.3008C132.359 14.8875 133.981 12.7457 136 11.0238L125.012 0C123.296 2.08102 121.143 3.75627 118.706 4.90619C116.27 6.05611 113.611 6.65235 110.919 6.65235C108.226 6.65235 105.567 6.05611 103.131 4.90619C100.695 3.75627 98.5419 2.08102 96.8255 0L86 10.8704C88.0743 12.5924 89.7441 14.7525 90.8903 17.1966C92.0365 19.6407 92.6307 22.3085 92.6307 25.0096C92.6307 27.7107 92.0365 30.3785 90.8903 32.8226C89.7441 35.2666 88.0743 37.4268 86 39.1488V39.1392Z" fill="#AB88EB"/>
<path d="M106.121 125H113.888C113.759 123.64 113.932 122.268 114.395 120.982C114.857 119.697 115.598 118.529 116.564 117.563C117.53 116.596 118.697 115.855 119.982 115.392C121.268 114.929 122.64 114.755 124 114.883V107C122.659 107.11 121.31 106.927 120.046 106.464C118.783 106 117.636 105.267 116.684 104.315C115.733 103.364 115 102.217 114.536 100.953C114.073 99.6902 113.89 98.3411 114 97H106.117C106.245 98.3603 106.071 99.7321 105.608 101.018C105.145 102.303 104.404 103.47 103.437 104.436C102.471 105.402 101.303 106.143 100.018 106.605C98.7321 107.068 97.3602 107.241 96 107.112V114.879C97.3605 114.75 98.7325 114.924 100.018 115.387C101.304 115.85 102.471 116.591 103.437 117.558C104.404 118.524 105.145 119.691 105.608 120.977C106.071 122.263 106.245 123.635 106.117 124.995L106.121 125Z" fill="white"/>
<path d="M10.1214 125H17.8883C17.7594 123.64 17.9324 122.268 18.3949 120.982C18.8574 119.697 19.5979 118.529 20.5638 117.563C21.5297 116.596 22.6971 115.855 23.9825 115.392C25.2679 114.929 26.6397 114.755 28 114.883V107C26.6587 107.11 25.3094 106.927 24.0459 106.463C22.7824 106 21.6349 105.267 20.683 104.316C19.7312 103.364 18.9977 102.217 18.5335 100.954C18.0694 99.6905 17.8857 98.3414 17.9951 97H10.1165C10.2448 98.3603 10.0712 99.7321 9.60809 101.018C9.14498 102.303 8.40385 103.47 7.4375 104.436C6.47114 105.402 5.3034 106.143 4.01776 106.605C2.73212 107.068 1.3602 107.241 0 107.112V114.879C1.36045 114.75 2.73249 114.924 4.01812 115.387C5.30374 115.85 6.47125 116.591 7.4375 117.558C8.40374 118.524 9.14489 119.691 9.60797 120.977C10.071 122.263 10.2447 123.635 10.1165 124.995L10.1214 125Z" fill="#99C6CC"/>
<path d="M13.0593 215H16.9459C16.881 214.32 16.967 213.634 17.198 212.991C17.429 212.348 17.7991 211.764 18.2819 211.281C18.7648 210.797 19.3484 210.427 19.9912 210.195C20.6339 209.963 21.3198 209.876 22 209.941V206.002C21.3292 206.057 20.6544 205.965 20.0226 205.734C19.3907 205.502 18.817 205.135 18.3411 204.659C17.8651 204.183 17.4985 203.609 17.2665 202.977C17.0346 202.346 16.9429 201.671 16.9978 201H13.0593C13.1235 201.68 13.0368 202.366 12.8052 203.009C12.5736 203.652 12.2028 204.235 11.7195 204.718C11.2361 205.201 10.6521 205.571 10.0091 205.802C9.36613 206.033 8.6801 206.119 8 206.054V209.941C8.68037 209.877 9.36654 209.963 10.0095 210.195C10.6524 210.427 11.2363 210.797 11.7195 211.28C12.2027 211.764 12.5733 212.348 12.8049 212.991C13.0365 213.633 13.1234 214.32 13.0593 215Z" fill="white"/>
<path d="M13.0593 29H16.9459C16.881 28.3209 16.967 27.6359 17.198 26.9939C17.429 26.3518 17.7991 25.7687 18.2819 25.2861C18.7648 24.8034 19.3484 24.4333 19.9912 24.202C20.6339 23.9707 21.3198 23.8841 22 23.9482V19.9896C21.3296 20.0444 20.6554 19.953 20.024 19.7217C19.3925 19.4903 18.8189 19.1247 18.3431 18.65C17.8673 18.1754 17.5005 17.6031 17.2682 16.9729C17.0359 16.3426 16.9437 15.6694 16.9978 15H13.0593C13.1235 15.6792 13.0368 16.3641 12.8052 17.0059C12.5736 17.6477 12.2028 18.2304 11.7195 18.7126C11.2361 19.1947 10.6521 19.5643 10.0091 19.7949C9.36613 20.0255 8.6801 20.1115 8 20.0466V23.9275C8.68037 23.8635 9.36654 23.9502 10.0095 24.1814C10.6524 24.4127 11.2363 24.7827 11.7195 25.2653C12.2027 25.7478 12.5733 26.3308 12.8049 26.9728C13.0365 27.6148 13.1234 28.2999 13.0593 28.9793V29Z" fill="#AB88EB"/>
</svg>
