<svg width="335" height="436" viewBox="0 0 335 436" fill="none" xmlns="http://www.w3.org/2000/svg">
<path d="M246.973 230.602L234.659 243C232.702 240.628 230.248 238.718 227.47 237.407C224.693 236.096 221.662 235.416 218.593 235.416C215.523 235.416 212.492 236.096 209.715 237.407C206.938 238.718 204.483 240.628 202.526 243L190 230.433C192.302 228.47 194.151 226.028 195.419 223.277C196.687 220.526 197.344 217.531 197.344 214.5C197.344 211.469 196.687 208.474 195.419 205.723C194.151 202.972 192.302 200.53 190 198.567L202.526 186C204.483 188.372 206.938 190.282 209.715 191.593C212.492 192.904 215.523 193.584 218.593 193.584C221.662 193.584 224.693 192.904 227.47 191.593C230.248 190.282 232.702 188.372 234.659 186L247 198.381C244.635 200.344 242.732 202.807 241.425 205.593C240.119 208.379 239.441 211.421 239.441 214.5C239.441 217.579 240.119 220.621 241.425 223.407C242.732 226.193 244.635 228.656 247 230.619L246.973 230.602Z" fill="#99C6CC"/>
<path d="M123.411 230.263H114.715C114.859 228.739 114.665 227.203 114.148 225.763C113.63 224.323 112.8 223.015 111.719 221.933C110.637 220.85 109.33 220.02 107.891 219.502C106.452 218.983 104.916 218.789 103.393 218.932V210.103C104.894 210.226 106.404 210.021 107.818 209.502C109.232 208.983 110.516 208.163 111.582 207.098C112.647 206.033 113.468 204.749 113.987 203.334C114.507 201.92 114.712 200.41 114.59 198.908H123.417C123.273 200.432 123.468 201.969 123.986 203.408C124.505 204.848 125.334 206.156 126.416 207.238C127.498 208.32 128.805 209.15 130.245 209.669C131.684 210.188 133.221 210.382 134.744 210.239V218.938C133.221 218.794 131.684 218.989 130.245 219.507C128.805 220.026 127.498 220.856 126.416 221.938C125.334 223.02 124.505 224.328 123.986 225.768C123.468 227.208 123.273 228.744 123.417 230.268L123.411 230.263Z" fill="#AB88EB"/>
<path d="M323.801 228.995H315.199C315.341 227.489 315.149 225.97 314.636 224.547C314.124 223.125 313.303 221.832 312.234 220.762C311.164 219.693 309.872 218.872 308.448 218.359C307.025 217.846 305.506 217.653 304 217.794V209.066C305.485 209.187 306.978 208.984 308.376 208.471C309.774 207.957 311.044 207.146 312.098 206.094C313.151 205.041 313.963 203.772 314.478 202.374C314.992 200.977 315.196 199.484 315.075 198H323.801C323.659 199.506 323.851 201.024 324.364 202.447C324.876 203.87 325.697 205.162 326.766 206.232C327.836 207.302 329.128 208.122 330.552 208.636C331.975 209.149 333.494 209.341 335 209.2V217.8C333.494 217.659 331.975 217.851 330.552 218.364C329.128 218.878 327.836 219.698 326.766 220.768C325.697 221.838 324.876 223.13 324.364 224.553C323.851 225.976 323.659 227.494 323.801 229V228.995Z" fill="white" fill-opacity="0.2"/>
<path d="M222.798 331H214.197C214.338 329.495 214.145 327.978 213.632 326.557C213.119 325.135 212.299 323.844 211.23 322.776C210.161 321.707 208.869 320.888 207.446 320.375C206.024 319.863 204.506 319.67 203 319.811V311.066C204.484 311.185 205.977 310.98 207.375 310.466C208.772 309.952 210.041 309.141 211.094 308.089C212.148 307.037 212.959 305.768 213.474 304.372C213.988 302.975 214.193 301.483 214.073 300H222.803C222.662 301.505 222.855 303.022 223.368 304.443C223.881 305.865 224.701 307.156 225.77 308.224C226.839 309.293 228.131 310.112 229.554 310.625C230.976 311.137 232.494 311.33 234 311.189V319.784C232.494 319.643 230.976 319.836 229.554 320.348C228.131 320.861 226.839 321.68 225.77 322.749C224.701 323.817 223.881 325.108 223.368 326.53C222.855 327.952 222.662 329.469 222.803 330.973L222.798 331Z" fill="#AB88EB"/>
<path d="M222.798 131H214.197C214.339 129.494 214.147 127.976 213.634 126.553C213.122 125.13 212.302 123.838 211.232 122.768C210.163 121.698 208.871 120.878 207.448 120.365C206.025 119.851 204.506 119.659 203 119.8V111.071C204.484 111.191 205.977 110.986 207.375 110.472C208.772 109.958 210.041 109.146 211.094 108.093C212.148 107.04 212.959 105.771 213.474 104.374C213.988 102.977 214.193 101.484 214.073 100H222.803C222.661 101.506 222.853 103.024 223.366 104.447C223.878 105.869 224.699 107.161 225.768 108.231C226.837 109.3 228.13 110.12 229.553 110.632C230.976 111.145 232.494 111.337 234 111.195V119.794C232.494 119.653 230.975 119.846 229.552 120.359C228.129 120.872 226.837 121.693 225.768 122.762C224.698 123.832 223.878 125.125 223.366 126.547C222.853 127.97 222.661 129.489 222.803 130.995L222.798 131Z" fill="white" fill-opacity="0.2"/>
<path d="M8.94069 323H5.05411C5.11822 322.32 5.03156 321.634 4.80024 320.992C4.56891 320.349 4.19868 319.766 3.71594 319.283C3.23319 318.8 2.64978 318.429 2.00746 318.198C1.36514 317.967 0.679689 317.88 0 317.944V313.999C0.669938 314.053 1.34372 313.961 1.97452 313.729C2.60532 313.497 3.1781 313.13 3.65335 312.655C4.12861 312.179 4.495 311.606 4.72701 310.975C4.95902 310.344 5.05116 309.67 4.9971 309H8.94069C8.8766 309.681 8.96349 310.367 9.19508 311.01C9.42667 311.653 9.79729 312.237 10.2805 312.721C10.7637 313.204 11.3477 313.575 11.9906 313.807C12.6336 314.038 13.3196 314.125 14 314.061V317.934C13.3199 317.869 12.6339 317.955 11.9909 318.186C11.3479 318.417 10.764 318.787 10.2806 319.27C9.79731 319.753 9.42657 320.337 9.19495 320.98C8.96333 321.623 8.87646 322.309 8.94069 322.99V323Z" fill="#AB88EB"/>
<path d="M120.557 324H116.415C116.484 323.271 116.391 322.537 116.143 321.848C115.895 321.16 115.499 320.535 114.981 320.017C114.464 319.5 113.839 319.103 113.151 318.855C112.463 318.607 111.728 318.514 111 318.583V314.356C111.718 314.415 112.441 314.317 113.117 314.068C113.794 313.82 114.408 313.427 114.918 312.918C115.428 312.409 115.821 311.794 116.07 311.118C116.319 310.441 116.417 309.719 116.359 309H120.579C120.511 309.729 120.604 310.465 120.852 311.154C121.1 311.843 121.497 312.469 122.015 312.987C122.533 313.505 123.158 313.902 123.847 314.15C124.536 314.398 125.271 314.491 126 314.423V318.572C125.271 318.502 124.536 318.594 123.847 318.842C123.158 319.089 122.533 319.486 122.015 320.004C121.497 320.521 121.1 321.147 120.852 321.836C120.603 322.525 120.51 323.26 120.579 323.989L120.557 324Z" fill="#99C6CC"/>
<path d="M220.585 15H216.421C216.489 14.271 216.396 13.5359 216.148 12.847C215.9 12.1581 215.503 11.5325 214.985 11.0148C214.467 10.4971 213.842 10.1 213.153 9.85184C212.464 9.6037 211.729 9.51064 211 9.57931V5.35397C211.718 5.41274 212.441 5.31462 213.117 5.06642C213.794 4.81822 214.408 4.42585 214.918 3.91655C215.428 3.40724 215.821 2.79316 216.07 2.11688C216.319 1.44059 216.417 0.718296 216.359 0H220.585C220.516 0.728239 220.609 1.46264 220.857 2.15085C221.105 2.83905 221.501 3.46406 222.019 3.98129C222.536 4.49852 223.161 4.89523 223.849 5.14308C224.537 5.39092 225.272 5.48381 226 5.41512V9.57931C225.271 9.5105 224.536 9.6035 223.848 9.85167C223.159 10.0998 222.534 10.497 222.016 11.0149C221.499 11.5327 221.102 12.1585 220.855 12.8474C220.608 13.5363 220.515 14.2713 220.585 15Z" fill="#99C6CC"/>
<path d="M321.585 15H317.421C317.489 14.271 317.396 13.5359 317.148 12.847C316.9 12.1581 316.503 11.5325 315.985 11.0148C315.467 10.4971 314.842 10.1 314.153 9.85184C313.464 9.6037 312.729 9.51064 312 9.57931V5.35397C312.718 5.41274 313.441 5.31462 314.117 5.06642C314.794 4.81822 315.408 4.42585 315.918 3.91655C316.428 3.40724 316.821 2.79316 317.07 2.11688C317.319 1.44059 317.418 0.718296 317.36 0H321.585C321.516 0.728239 321.609 1.46264 321.857 2.15085C322.105 2.83905 322.501 3.46406 323.019 3.98129C323.536 4.49852 324.161 4.89523 324.849 5.14308C325.537 5.39092 326.272 5.48381 327 5.41512V9.57931C326.271 9.5105 325.536 9.6035 324.848 9.85167C324.159 10.0998 323.534 10.497 323.016 11.0149C322.499 11.5327 322.103 12.1585 321.855 12.8474C321.608 13.5363 321.515 14.2713 321.585 15Z" fill="#AB88EB"/>
<path d="M221.585 436H217.421C217.489 435.271 217.396 434.536 217.148 433.847C216.9 433.158 216.503 432.533 215.985 432.015C215.467 431.497 214.842 431.1 214.153 430.852C213.464 430.604 212.729 430.511 212 430.579V426.36C212.719 426.418 213.442 426.32 214.119 426.072C214.796 425.823 215.41 425.43 215.92 424.92C216.43 424.41 216.823 423.796 217.072 423.119C217.32 422.442 217.418 421.719 217.359 421H221.585C221.521 421.727 221.618 422.46 221.867 423.146C222.117 423.832 222.514 424.455 223.03 424.972C223.546 425.488 224.168 425.886 224.854 426.136C225.54 426.386 226.273 426.483 227 426.421V430.579C226.273 430.517 225.54 430.614 224.854 430.864C224.168 431.114 223.546 431.512 223.03 432.028C222.514 432.545 222.117 433.168 221.867 433.854C221.618 434.54 221.521 435.273 221.585 436Z" fill="#99C6CC"/>
<path d="M9.36518 221.917H5.29407C5.3562 221.206 5.26206 220.489 5.01806 219.818C4.77405 219.147 4.38609 218.538 3.88161 218.033C3.37713 217.528 2.76828 217.139 2.09772 216.894C1.42717 216.65 0.711163 216.555 0 216.616V212.506C0.702239 212.563 1.40842 212.466 2.06959 212.222C2.73076 211.979 3.33115 211.595 3.82906 211.096C4.32698 210.598 4.71051 209.997 4.95317 209.335C5.19582 208.674 5.29181 207.967 5.23436 207.265H9.36518C9.30294 207.976 9.39741 208.693 9.64173 209.365C9.88604 210.036 10.2743 210.646 10.7794 211.151C11.2845 211.656 11.8941 212.045 12.5654 212.289C13.2366 212.534 13.9531 212.628 14.6647 212.566V216.632C13.9531 216.57 13.2366 216.665 12.5654 216.909C11.8941 217.153 11.2845 217.542 10.7794 218.047C10.2743 218.552 9.88604 219.162 9.64173 219.833C9.39741 220.505 9.30294 221.222 9.36518 221.933V221.917Z" fill="#161615"/>
</svg>
