<svg width="105" height="107" viewBox="0 0 105 107" fill="none" xmlns="http://www.w3.org/2000/svg">
<path d="M0.114666 73.6034L9.08363 64.5734C10.5088 66.3014 12.2966 67.6924 14.3194 68.6472C16.3422 69.602 18.5502 70.0971 20.7857 70.0971C23.0212 70.0971 25.2291 69.602 27.2519 68.6472C29.2748 67.6924 31.0625 66.3014 32.4877 64.5734L41.6113 73.7268C39.9346 75.1566 38.5878 76.935 37.6641 78.9388C36.7404 80.9426 36.2621 83.1239 36.2621 85.3316C36.2621 87.5393 36.7404 89.7207 37.6641 91.7245C38.5878 93.7283 39.9346 95.5067 41.6113 96.9365L32.4877 106.09C31.0625 104.362 29.2748 102.971 27.2519 102.016C25.2291 101.061 23.0212 100.566 20.7857 100.566C18.5502 100.566 16.3422 101.061 14.3194 102.016C12.2966 102.971 10.5088 104.362 9.08363 106.09L0.0949097 97.0718C1.81723 95.642 3.20364 93.8484 4.15535 91.819C5.10706 89.7896 5.60058 87.5744 5.60058 85.3316C5.60058 83.0888 5.10706 80.8737 4.15535 78.8443C3.20364 76.8149 1.81723 75.0213 0.0949097 73.5915L0.114666 73.6034Z" fill="#99C6CC"/>
<path d="M90.1126 73.8512H96.4469C96.3417 74.9608 96.4827 76.0799 96.8599 77.1287C97.2371 78.1775 97.8411 79.13 98.6289 79.9183C99.4166 80.7066 100.369 81.3113 101.417 81.689C102.465 82.0668 103.584 82.2085 104.693 82.1038V88.5348C103.6 88.445 102.5 88.5942 101.47 88.9722C100.44 89.3501 99.5048 89.9477 98.7289 90.7235C97.953 91.4993 97.3551 92.4346 96.9768 93.4646C96.5984 94.4947 96.4487 95.5948 96.538 96.6885H90.1087C90.2132 95.5787 90.0716 94.4595 89.6939 93.4107C89.3163 92.3619 88.7118 91.4095 87.9238 90.6212C87.1358 89.833 86.1837 89.2285 85.1352 88.8507C84.0867 88.4729 82.9678 88.3313 81.8583 88.4358V82.0998C82.9678 82.2044 84.0867 82.0627 85.1352 81.685C86.1837 81.3072 87.1358 80.7027 87.9238 79.9144C88.7118 79.1262 89.3163 78.1737 89.6939 77.125C90.0716 76.0762 90.2132 74.957 90.1087 73.8472L90.1126 73.8512Z" fill="#AB88EB"/>
<path d="M17.7228 0.477535H23.9871C23.8844 1.57337 24.0249 2.67833 24.3984 3.71372C24.772 4.74911 25.3694 5.68941 26.1482 6.46766C26.927 7.24592 27.868 7.84298 28.9041 8.21626C29.9402 8.58955 31.046 8.72989 32.1426 8.62729V14.9969C31.0614 14.9101 29.9742 15.059 28.9563 15.4334C27.9383 15.8078 27.0139 16.3986 26.2469 17.165C25.4799 17.9315 24.8886 18.8553 24.514 19.8725C24.1394 20.8898 23.9903 21.9762 24.0772 23.0566H17.7188C17.8215 21.9608 17.6811 20.8558 17.3075 19.8205C16.934 18.7851 16.3365 17.8448 15.5577 17.0665C14.7789 16.2883 13.838 15.6912 12.8019 15.3179C11.7657 14.9446 10.6601 14.8043 9.56347 14.9069V8.64687C10.6601 8.74947 11.7657 8.60913 12.8019 8.23584C13.838 7.86256 14.7789 7.2655 15.5577 6.48725C16.3365 5.70899 16.934 4.76869 17.3075 3.7333C17.6811 2.69791 17.8215 1.5929 17.7188 0.497068L17.7228 0.477535Z" fill="#AB88EB"/>
</svg>
