<svg width="136" height="125" viewBox="0 0 136 125" fill="none" xmlns="http://www.w3.org/2000/svg">
<path d="M86 85.8608L96.8255 75C98.5419 77.081 100.695 78.7563 103.131 79.9062C105.567 81.0561 108.226 81.6524 110.919 81.6524C113.611 81.6524 116.27 81.0561 118.706 79.9062C121.143 78.7563 123.296 77.081 125.012 75L136 86.0238C133.981 87.7457 132.359 89.8875 131.246 92.3008C130.134 94.7141 129.558 97.3412 129.558 100C129.558 102.659 130.134 105.286 131.246 107.699C132.359 110.112 133.981 112.254 136 113.976L125.012 125C123.296 122.919 121.143 121.244 118.706 120.094C116.27 118.944 113.611 118.348 110.919 118.348C108.226 118.348 105.567 118.944 103.131 120.094C100.695 121.244 98.5419 122.919 96.8255 125L86 114.13C88.0743 112.408 89.7441 110.247 90.8903 107.803C92.0365 105.359 92.6307 102.692 92.6307 99.9904C92.6307 97.2893 92.0365 94.6215 90.8903 92.1774C89.7441 89.7334 88.0743 87.5732 86 85.8512V85.8608Z" fill="#AB88EB"/>
<path d="M10.1214 0H17.8883C17.7594 1.3602 17.9324 2.73211 18.3949 4.01776C18.8574 5.3034 19.5979 6.47109 20.5638 7.43744C21.5297 8.4038 22.6971 9.14498 23.9825 9.60809C25.2679 10.0712 26.6397 10.2448 28 10.1165V18C26.6587 17.8899 25.3094 18.073 24.0459 18.5365C22.7824 19.0001 21.6349 19.733 20.683 20.6844C19.7312 21.6358 18.9977 22.783 18.5335 24.0462C18.0694 25.3095 17.8857 26.6586 17.9951 28H10.1165C10.2448 26.6397 10.0712 25.2679 9.60809 23.9825C9.14498 22.6971 8.40385 21.5297 7.4375 20.5638C6.47114 19.598 5.3034 18.8573 4.01776 18.3948C2.73212 17.9323 1.3602 17.7594 0 17.8883V10.1214C1.36045 10.2495 2.73249 10.0759 4.01812 9.61281C5.30374 9.14973 6.47125 8.40862 7.4375 7.44238C8.40374 6.47613 9.14489 5.30855 9.60797 4.02293C10.071 2.7373 10.2447 1.36532 10.1165 0.00485802L10.1214 0Z" fill="#99C6CC"/>
<path d="M13.0593 96H16.9459C16.881 96.6791 16.967 97.3641 17.198 98.0061C17.429 98.6482 17.7991 99.2313 18.2819 99.7139C18.7648 100.197 19.3484 100.567 19.9912 100.798C20.6339 101.029 21.3198 101.116 22 101.052V105.01C21.3296 104.956 20.6554 105.047 20.024 105.278C19.3925 105.51 18.8189 105.875 18.3431 106.35C17.8673 106.825 17.5005 107.397 17.2682 108.027C17.0359 108.657 16.9437 109.331 16.9978 110H13.0593C13.1235 109.321 13.0368 108.636 12.8052 107.994C12.5736 107.352 12.2028 106.77 11.7195 106.287C11.2361 105.805 10.6521 105.436 10.0091 105.205C9.36613 104.975 8.6801 104.889 8 104.953V101.073C8.68037 101.137 9.36654 101.05 10.0095 100.819C10.6524 100.587 11.2363 100.217 11.7195 99.7347C12.2027 99.2522 12.5733 98.6692 12.8049 98.0272C13.0365 97.3852 13.1234 96.7001 13.0593 96.0207V96Z" fill="#AB88EB"/>
</svg>
