<svg width="150" height="31" viewBox="0 0 150 31" fill="none" xmlns="http://www.w3.org/2000/svg">
<path d="M5.58086 14.0392V22.6774H0V6.13821H5.5486V8.20561C6.00023 7.40429 6.67768 6.79529 7.58094 6.36258C8.46807 5.94589 9.41972 5.73755 10.4359 5.73755C12.7424 5.73755 14.5328 6.60297 15.3554 8.46203C16.3393 6.79529 18.3233 5.73755 20.904 5.73755C22.9364 5.73755 24.4526 6.3786 25.4687 7.64468C26.2268 8.67037 26.6139 10.3211 26.6139 12.5968V22.6774H21.0008V13.7507C21.0008 12.5648 20.7911 11.7154 20.3718 11.2186C19.9685 10.7378 19.404 10.4974 18.662 10.4974C17.9684 10.4974 17.2265 10.7858 16.7748 11.3147C16.3071 11.8436 16.0813 12.7571 16.0813 14.0392V22.6774H10.5004V13.7507C10.5004 12.5648 10.2907 11.7154 9.87135 11.2186C9.46811 10.7378 8.88744 10.4974 8.11322 10.4974C7.29061 10.4974 6.67768 10.7698 6.24218 11.3147C5.80668 11.8756 5.58086 12.7891 5.58086 14.0392Z" fill="white"/>
<path d="M27.2443 28.5591L27.8411 23.7351C28.3088 23.8473 28.8573 23.8954 29.4541 23.8954C30.4702 23.8954 31.0186 23.8153 31.5348 23.3665C31.8251 23.0781 32.0509 22.7415 32.2284 22.3569L32.4703 21.6998L25.9862 6.13821H32.2284C33.4058 9.21527 34.18 11.3147 34.5833 12.4526C34.9865 13.5905 35.3414 14.7283 35.664 15.8502C35.8737 15.2091 36.4382 13.5103 37.3415 10.9461C37.777 9.68003 38.3415 8.0774 39.0351 6.13821H45.116L39.4706 20.2734C39.4706 20.2895 39.3415 20.594 39.0996 21.219C38.8415 21.844 38.648 22.3248 38.5189 22.6293C38.3738 22.9338 38.1963 23.3505 37.9544 23.8633C37.7124 24.3602 37.5028 24.7768 37.3253 25.0814C36.5995 26.4276 35.6478 27.3571 34.7768 27.8699C34.3413 28.1264 33.8252 28.3347 33.2284 28.4789C32.6316 28.6232 32.0993 28.7033 31.6154 28.7354C31.1315 28.7674 30.5347 28.7834 29.825 28.7834C29.1798 28.7834 28.325 28.7033 27.2443 28.5591Z" fill="white"/>
<path d="M51.5857 0V22.6773H46.0049V0H51.5857Z" fill="#018FFF"/>
<path d="M64.7005 16.7636L70.0878 18.1739C69.4587 19.6643 68.4103 20.8663 66.9586 21.7478C65.4908 22.6292 63.7972 23.0779 61.8616 23.0779C59.0873 23.0779 56.9098 22.3087 55.313 20.7541C53.7162 19.2156 52.9097 17.1001 52.9097 14.4077C52.9097 11.7954 53.7484 9.69594 55.4098 8.10933C57.0711 6.52272 59.1841 5.73743 61.7649 5.73743C67.3941 5.73743 70.2168 9.15104 70.2168 15.9783H58.8293C58.8293 16.6033 59.1035 17.1482 59.668 17.645C60.2164 18.1418 60.9745 18.3822 61.9262 18.3822C63.1359 18.3822 64.2004 17.7732 64.7005 16.7636ZM58.797 12.5647H64.3456C64.2811 10.8979 63.2488 10.1126 61.7003 10.1126C60.3293 10.1126 59.1035 10.8338 58.797 12.5647Z" fill="#018FFF"/>
<path d="M88.4123 6.13809L82.0734 22.6773H75.7022L69.2826 6.13809H75.4925C76.9925 10.5133 78.1378 14.0391 78.9281 16.6995C79.5572 14.584 80.6862 11.0582 82.3315 6.13809H88.4123Z" fill="#018FFF"/>
<path d="M99.0592 16.7636L104.447 18.1739C103.817 19.6643 102.769 20.8663 101.317 21.7478C99.8496 22.6292 98.1559 23.0779 96.2204 23.0779C93.4461 23.0779 91.2686 22.3087 89.6717 20.7541C88.0749 19.2156 87.2684 17.1001 87.2684 14.4077C87.2684 11.7954 88.1072 9.69594 89.7685 8.10933C91.4299 6.52272 93.5429 5.73743 96.1236 5.73743C101.753 5.73743 104.576 9.15104 104.576 15.9783H93.188C93.188 16.6033 93.4622 17.1482 94.0268 17.645C94.5752 18.1418 95.3333 18.3822 96.2849 18.3822C97.4946 18.3822 98.5592 17.7732 99.0592 16.7636ZM93.1558 12.5647H98.7044C98.6398 10.8979 97.6075 10.1126 96.0591 10.1126C94.6881 10.1126 93.4622 10.8338 93.1558 12.5647Z" fill="#018FFF"/>
<path d="M111.496 0V22.6773H105.916V0H111.496Z" fill="#018FFF"/>
<path d="M129.998 6.13821V22.6774H124.45V20.61C123.982 21.3953 123.272 22.0043 122.304 22.437C121.336 22.8697 120.336 23.0781 119.304 23.0781C117.272 23.0781 115.756 22.437 114.739 21.1709C113.965 20.1292 113.578 18.4785 113.578 16.2188V6.13821H119.207V15.0969C119.207 16.2669 119.417 17.0842 119.853 17.565C120.256 18.0618 120.885 18.3182 121.74 18.3182C122.611 18.3182 123.288 18.0458 123.756 17.4849C124.191 16.8759 124.417 15.9624 124.417 14.7604V6.13821H129.998Z" fill="#F477FF"/>
<path d="M137.951 21.1068V31.0001L135.235 28.6232L132.37 31.0001V6.13821H137.855V7.90111C138.806 6.53887 140.726 5.73755 142.903 5.73755C145.161 5.73755 146.903 6.50681 148.145 8.04534C149.387 9.5999 150 11.7314 150 14.4399C150 17.1483 149.29 19.2638 147.871 20.7863C146.452 22.3088 144.597 23.0781 142.306 23.0781C141.371 23.0781 140.5 22.9018 139.709 22.5171C138.919 22.1485 138.322 21.6838 137.951 21.1068ZM138.742 11.5231C138.129 12.2282 137.822 13.2058 137.822 14.4399C137.822 15.6739 138.129 16.6355 138.742 17.3246C139.338 18.0137 140.129 18.3503 141.113 18.3503C142.032 18.3503 142.806 18.0137 143.435 17.3246C144.064 16.6515 144.387 15.6739 144.387 14.4078C144.387 13.1577 144.081 12.1801 143.484 11.491C142.871 10.8019 142.097 10.4653 141.145 10.4653C140.145 10.4653 139.338 10.8179 138.742 11.5231Z" fill="#F477FF"/>
</svg>
