<svg width="150" height="31" viewBox="0 0 150 31" fill="none" xmlns="http://www.w3.org/2000/svg">
<path d="M5.58086 14.039V22.6772H0V6.13796H5.5486V8.20536C6.00023 7.40404 6.67768 6.79504 7.58094 6.36233C8.46807 5.94565 9.41972 5.7373 10.4359 5.7373C12.7424 5.7373 14.5328 6.60273 15.3554 8.46178C16.3393 6.79504 18.3233 5.7373 20.904 5.7373C22.9364 5.7373 24.4526 6.37836 25.4687 7.64444C26.2268 8.67013 26.6139 10.3208 26.6139 12.5966V22.6772H21.0008V13.7505C21.0008 12.5645 20.7911 11.7151 20.3718 11.2183C19.9685 10.7375 19.404 10.4971 18.662 10.4971C17.9684 10.4971 17.2265 10.7856 16.7748 11.3145C16.3071 11.8433 16.0813 12.7568 16.0813 14.039V22.6772H10.5004V13.7505C10.5004 12.5645 10.2907 11.7151 9.87135 11.2183C9.46811 10.7375 8.88744 10.4971 8.11322 10.4971C7.29061 10.4971 6.67768 10.7696 6.24218 11.3145C5.80668 11.8754 5.58086 12.7889 5.58086 14.039Z" fill="#262626"/>
<path d="M27.2443 28.5588L27.8411 23.7349C28.3088 23.8471 28.8573 23.8952 29.4541 23.8952C30.4702 23.8952 31.0186 23.815 31.5348 23.3663C31.8251 23.0778 32.0509 22.7413 32.2284 22.3566L32.4703 21.6995L25.9862 6.13796H32.2284C33.4058 9.21502 34.18 11.3145 34.5833 12.4523C34.9865 13.5902 35.3414 14.7281 35.664 15.8499C35.8737 15.2089 36.4382 13.5101 37.3415 10.9459C37.777 9.67979 38.3415 8.07715 39.0351 6.13796H45.116L39.4706 20.2732C39.4706 20.2892 39.3415 20.5937 39.0996 21.2188C38.8415 21.8438 38.648 22.3246 38.5189 22.6291C38.3738 22.9336 38.1963 23.3503 37.9544 23.8631C37.7124 24.3599 37.5028 24.7766 37.3253 25.0811C36.5995 26.4273 35.6478 27.3568 34.7768 27.8697C34.3413 28.1261 33.8252 28.3345 33.2284 28.4787C32.6316 28.6229 32.0993 28.7031 31.6154 28.7351C31.1315 28.7672 30.5347 28.7832 29.825 28.7832C29.1798 28.7832 28.325 28.7031 27.2443 28.5588Z" fill="#262626"/>
<path d="M51.5857 0V22.6773H46.0049V0H51.5857Z" fill="#018FFF"/>
<path d="M64.7005 16.7636L70.0878 18.1739C69.4587 19.6643 68.4103 20.8663 66.9586 21.7478C65.4908 22.6292 63.7972 23.0779 61.8616 23.0779C59.0873 23.0779 56.9098 22.3087 55.313 20.7541C53.7162 19.2156 52.9097 17.1001 52.9097 14.4077C52.9097 11.7954 53.7484 9.69594 55.4098 8.10933C57.0711 6.52272 59.1841 5.73743 61.7649 5.73743C67.3941 5.73743 70.2168 9.15104 70.2168 15.9783H58.8293C58.8293 16.6033 59.1035 17.1482 59.668 17.645C60.2164 18.1418 60.9745 18.3822 61.9262 18.3822C63.1359 18.3822 64.2004 17.7732 64.7005 16.7636ZM58.797 12.5647H64.3456C64.2811 10.8979 63.2488 10.1126 61.7003 10.1126C60.3293 10.1126 59.1035 10.8338 58.797 12.5647Z" fill="#018FFF"/>
<path d="M88.4123 6.13809L82.0734 22.6773H75.7022L69.2826 6.13809H75.4925C76.9925 10.5133 78.1378 14.0391 78.9281 16.6995C79.5572 14.584 80.6862 11.0582 82.3315 6.13809H88.4123Z" fill="#018FFF"/>
<path d="M99.0592 16.7636L104.447 18.1739C103.817 19.6643 102.769 20.8663 101.317 21.7478C99.8496 22.6292 98.1559 23.0779 96.2204 23.0779C93.4461 23.0779 91.2686 22.3087 89.6717 20.7541C88.0749 19.2156 87.2684 17.1001 87.2684 14.4077C87.2684 11.7954 88.1072 9.69594 89.7685 8.10933C91.4299 6.52272 93.5429 5.73743 96.1236 5.73743C101.753 5.73743 104.576 9.15104 104.576 15.9783H93.188C93.188 16.6033 93.4622 17.1482 94.0268 17.645C94.5752 18.1418 95.3333 18.3822 96.2849 18.3822C97.4946 18.3822 98.5592 17.7732 99.0592 16.7636ZM93.1558 12.5647H98.7044C98.6398 10.8979 97.6075 10.1126 96.0591 10.1126C94.6881 10.1126 93.4622 10.8338 93.1558 12.5647Z" fill="#018FFF"/>
<path d="M111.496 0V22.6773H105.916V0H111.496Z" fill="#018FFF"/>
<path d="M129.998 6.13796V22.6772H124.45V20.6098C123.982 21.395 123.272 22.004 122.304 22.4368C121.336 22.8695 120.336 23.0778 119.304 23.0778C117.272 23.0778 115.756 22.4368 114.739 21.1707C113.965 20.129 113.578 18.4783 113.578 16.2185V6.13796H119.207V15.0967C119.207 16.2666 119.417 17.084 119.853 17.5647C120.256 18.0616 120.885 18.318 121.74 18.318C122.611 18.318 123.288 18.0455 123.756 17.4846C124.191 16.8756 124.417 15.9621 124.417 14.7601V6.13796H129.998Z" fill="#F477FF"/>
<path d="M137.951 21.1066V30.9999L135.235 28.6229L132.37 30.9999V6.13796H137.855V7.90086C138.806 6.53862 140.726 5.7373 142.903 5.7373C145.161 5.7373 146.903 6.50657 148.145 8.0451C149.387 9.59965 150 11.7312 150 14.4396C150 17.1481 149.29 19.2635 147.871 20.786C146.452 22.3085 144.597 23.0778 142.306 23.0778C141.371 23.0778 140.5 22.9015 139.709 22.5169C138.919 22.1483 138.322 21.6835 137.951 21.1066ZM138.742 11.5228C138.129 12.228 137.822 13.2056 137.822 14.4396C137.822 15.6736 138.129 16.6352 138.742 17.3244C139.338 18.0135 140.129 18.35 141.113 18.35C142.032 18.35 142.806 18.0135 143.435 17.3244C144.064 16.6512 144.387 15.6736 144.387 14.4076C144.387 13.1575 144.081 12.1799 143.484 11.4908C142.871 10.8016 142.097 10.4651 141.145 10.4651C140.145 10.4651 139.338 10.8177 138.742 11.5228Z" fill="#F477FF"/>
</svg>
